<svg id="Layer_1" data-name="Layer 1" xmlns="http://www.w3.org/2000/svg" viewBox="0 0 300 279.09"><defs><style>.cls-1{fill:#e67e22;}</style></defs><path d="M448.86,489.2c0-.2,0-.21.09-.09a.69.69,0,0,0,.24.24c.13.08.11.09-.09.1s-.25,0-.24-.25Zm299.66.15a.69.69,0,0,0,.24-.24c.08-.12.09-.11.09.09s0,.25-.24.25-.22,0-.09-.1ZM683.34,482c-.35-.12-1.06-.34-1.6-.48a27.35,27.35,0,0,1-4.42-1.74c-.87-.41-2.17-.94-2.88-1.19s-2.13-.76-3.15-1.14c-2.83-1-12.93-4.37-16-5.27-1.09-.32-2.65-.8-3.45-1.07l-3-.93c-2.09-.62-8.16-2.58-11.3-3.64-2.82-1-6.7-2.23-8.77-2.88l-2.35-.74c-.58-.19-1.3-.41-1.6-.48a8.33,8.33,0,0,1-1.06-.37,17.83,17.83,0,0,0-2-.62c-.83-.21-2.13-.57-2.88-.79s-3.23-.87-5.49-1.43-5.26-1.31-6.65-1.67l-4.65-1.15c-1.17-.28-2.45-.6-2.84-.72s-1.06-.27-1.5-.35c-1.31-.23-4.6-1.09-6.12-1.59a14,14,0,0,0-2-.53c-.29,0-1-.18-1.5-.32s-1.73-.42-2.65-.62-2.07-.48-2.57-.62c-.85-.24-9.25-2-11.53-2.38l-3.11-.59c-1.13-.22-3.22-.57-4.65-.79-3.78-.58-6.83-1.07-9.2-1.46-1.94-.32-5.19-.75-7.36-1-1.61-.16-3.58-.43-4.45-.61a18.3,18.3,0,0,0-2-.27c-1.61-.13-2.94-.31-6.24-.81l-5-.75c-1.14-.17-3.1-.48-4.34-.7-3.78-.66-7.56-1.27-9.7-1.55l-4.21-.58c-3.73-.52-8.46-1-12.76-1.41-1.67-.15-7-.48-12.23-.76-1.78-.1-3.43-.19-3.67-.22l-1.64-.17c-1.28-.14-1.71-.16-7.09-.36-3.89-.15-5.88-.26-7.8-.44-1.41-.14-4-.26-8.37-.41-1.56-.05-3-.13-3.19-.18a1.61,1.61,0,0,1-1.2-1.73c0-.73.17-1.29,1-3.25,1.35-3.41,4.06-11.89,5.44-17,.34-1.28.79-2.88,1-3.56s.51-1.82.69-2.53.4-1.44.48-1.63a2.17,2.17,0,0,0,.14-.5,2.8,2.8,0,0,1,.3-.74,126.75,126.75,0,0,0,3.82-13.83,34.42,34.42,0,0,1,1.4-5.4c1.41-4.88,1.87-6.65,2.95-11.21.51-2.17,1-4.4,1.18-5,.31-1.25.5-2.22,1.41-7.27,1.32-7.3,2.07-11.94,3.2-19.76.85-6,1.63-10.74,1.86-11.51.38-1.29,1.17-4.39,1.46-5.72.17-.78.45-2,.62-2.79.95-4.06,2-9.67,2.57-13.73.13-.9.45-3,.71-4.74s.54-3.6.62-4.21.22-1.43.32-1.82a13.18,13.18,0,0,0,.27-1.63,13,13,0,0,1,.21-1.49A6.33,6.33,0,0,0,485,294a75.87,75.87,0,0,1,.84-7.64c.13-.91.31-2.49.4-3.52a36.5,36.5,0,0,1,.7-4.68c.15-.78.31-1.74.36-2.12.07-.65.11-.74.38-1s.34-.27,1.3-.33a22.25,22.25,0,0,0,4.07-.59,9.13,9.13,0,0,1,1.5-.32c1.91-.24,2-.32,2.32-1.67a35.62,35.62,0,0,1,2.54-6.77,16.09,16.09,0,0,1,5-5.2,17,17,0,0,1,3.26-1.28,9.6,9.6,0,0,0,1.18-.35,16.08,16.08,0,0,1,7.61,0,41.92,41.92,0,0,1,4.21,1.68,11.35,11.35,0,0,1,1,.9c.44.42,1,.93,1.26,1.14a11.34,11.34,0,0,1,2.25,3.22c.84,1.59,1.06,1.91,1.44,2.07a13.32,13.32,0,0,0,3.86-.27c.66-.12,1.92-.3,2.79-.4,3.34-.37,5.2-.65,8.08-1.18.94-.18,2.75-.46,4-.63,3.8-.52,14.67-2.33,19.84-3.31,3.89-.74,4.82-.91,8.5-1.52,1.78-.29,4.17-.73,5.32-1s3.26-.66,4.69-.94c5.34-1,9.27-1.83,12.76-2.65,9.37-2.19,11.2-2.58,18.34-3.86a65.49,65.49,0,0,0,7.13-1.56l2.93-.83c.68-.18,1.58-.44,2-.56a12,12,0,0,1,1.46-.32c1.81-.27,5.72-1,7.34-1.43,2-.5,3-.79,5-1.41a61.07,61.07,0,0,1,8.5-2.09c1.2-.22,2.8-.56,3.55-.75s2.05-.49,2.88-.67a18.75,18.75,0,0,0,2.27-.61,15.33,15.33,0,0,1,1.91-.53,26,26,0,0,0,4.19-1.15,11.56,11.56,0,0,1,1.94-.54,6.71,6.71,0,0,0,1.33-.36,4.82,4.82,0,0,1,1-.3,13.85,13.85,0,0,0,1.44-.35c.49-.14,1.06-.28,1.27-.32a1.44,1.44,0,0,0,.64-.29c.25-.23.28-.33.57-2a23.6,23.6,0,0,1,1.15-4.63c1.41-3.91,2.6-5.64,6.43-9.37a15.54,15.54,0,0,1,4.65-3.38c1.47-.7,1.91-.78,4.2-.76a11.52,11.52,0,0,1,2.38.13,1.67,1.67,0,0,0,1.13,0,2.31,2.31,0,0,1,1.16-.08,11.72,11.72,0,0,1,2.24.81,8.92,8.92,0,0,0,.89.47,13.16,13.16,0,0,1,6,5.51,15.8,15.8,0,0,1,1.95,4.5c.2.86.48,1.2,1,1.2a7.6,7.6,0,0,0,1.5-.39c.63-.22,1.67-.54,2.31-.71s1.79-.56,2.57-.86c2.72-1,5.19-1.85,9.61-3.15a20.54,20.54,0,0,1,5-1.13,3.37,3.37,0,0,1,3.65,1.95,7.43,7.43,0,0,1,1,3.84,24.12,24.12,0,0,0,1,6.39c.69,2.56,1.38,6,2.92,14.62.47,2.61,1.15,6.23,1.51,8.06.77,3.91,1,5.09,1.55,10.1.24,2.07.56,4.61.71,5.63.36,2.6.67,5.1.88,7.18.1,1,.3,2.82.45,4.12s.36,3.54.48,5,.32,3.4.44,4.3c.29,2.16.56,4.42.67,5.67,0,.56.2,2.17.35,3.59s.39,4.14.54,6.07.36,4.73.48,6.24c.47,5.86.74,10.78,1.07,19.09.22,5.46.23,6.28.19,14.57,0,5.15-.08,9.37-.13,10.2s-.17,2.49-.24,3.81c-.16,2.72-.64,9.72-1,14.13-.12,1.63-.5,5.88-.84,9.44-.9,9.47-1.25,14.16-1.68,22.1-.45,8.4-.7,12.15-1.07,16.17a56.71,56.71,0,0,0-.36,9.1,53.66,53.66,0,0,0,.41,6c.07.37.24,1.3.39,2.08.51,2.78.53,3.69.05,4.4s-1.45,1.17-4.47,2.15a16.31,16.31,0,0,1-6.72,1.11l-3,.08-.25.25c-.21.23-.27.42-.52,1.89a87.12,87.12,0,0,1-2.73,12.05c-.81,2.4-.91,2.63-1.38,3.09-.69.69-1.83,1-3.63.85a42.3,42.3,0,0,0-5.87.09c-2.48.17-2.82.22-3.17.49a11.89,11.89,0,0,0-1.12,1.94c-1.29,2.53-1.59,2.76-3.58,2.76-1.1,0-8.7-.89-12-1.39-1.39-.22-1.33-.28-1.87,1.66a20.8,20.8,0,0,1-1.71,4.11,10.41,10.41,0,0,1-2.54,3.18,3,3,0,0,1-2-.09Zm.51-3.87c1.18-.5,2.51-4.59,4.93-15.17.24-1.07.53-2.48.63-3.14a13.23,13.23,0,0,1,.27-1.35,6.66,6.66,0,0,0,.21-1c.22-1.48,1.26-6.92,1.7-8.87s1.88-7.72,2.91-11.6c.37-1.39.88-3.36,1.15-4.39s.62-2.34.8-2.92.41-1.48.53-2,.34-1.39.49-1.95.54-2.32.88-3.9,1-4.48,1.46-6.43c.84-3.56,2.3-10.73,3-14.53.59-3.41,1.31-8.19,1.6-10.72.15-1.31.29-2.45.31-2.52s.14-1.31.26-2.76.28-3,.35-3.5.3-2.31.5-4.06c.33-3,1-7.54,1.72-12.5.46-3,.64-4.45,2-16,1.82-15,1.77-14.67,2.39-17.5.42-1.95.68-3.56,1.29-8.09.29-2.19.64-4.72.79-5.63.35-2.24.3-1.83.89-7.59.29-2.83.57-5.38.62-5.67s.23-2.09.4-4,.41-4.35.53-5.45c.33-3,.56-5.39.67-6.82.35-4.82,1.21-12.43,1.76-15.68.73-4.23,1.2-7.87,1.82-14,.23-2.17.47-4.38.54-4.91s.17-1.94.22-3.13.16-2.67.26-3.33c.32-2.19.43-4.25.67-12.77.12-4.23.12-4.71,0-4.9-.23-.36-.47-.41-1-.21-.25.1-1.15.37-2,.59a42.26,42.26,0,0,0-5.16,1.68,48.58,48.58,0,0,1-5.54,1.78,10.61,10.61,0,0,0-2.44.75,60,60,0,0,1-6.54,1.77,14.78,14.78,0,0,0-1.64.39c-1.07.33-4.4,1.06-7.59,1.64a37.8,37.8,0,0,0-4.6,1c-.15.06-1.1.32-2.12.58a19.79,19.79,0,0,0-2.16.64c-.5.24-.66.64-.6,1.44a25.41,25.41,0,0,0,1.45,6c.19.42.41,1,.5,1.24.27.83.38,1,.65,1s.31-.16.72-1c.27-.51.62-1.13.78-1.37A4.06,4.06,0,0,1,688,245.3a3.19,3.19,0,0,1,1.86.09,11,11,0,0,1,1.71.53,8.94,8.94,0,0,1,3.44,3.51,15.2,15.2,0,0,1,1.25,3.18,44.66,44.66,0,0,1,.31,6.95A28.32,28.32,0,0,1,696,267a17.8,17.8,0,0,1-1.8,5.45c-.26.56-.63,1.37-.8,1.8a17,17,0,0,1-2.8,4.51,8.43,8.43,0,0,1-4.1,2.85,4.14,4.14,0,0,1-1.81.31,8.88,8.88,0,0,1-2.3-.25,11,11,0,0,1-3.72-2.92,5.12,5.12,0,0,1-1-1.59c-.74-1.75-1-3.75-1-7.73a31.83,31.83,0,0,1,.58-6.86,9.53,9.53,0,0,0,.26-3.35,6.17,6.17,0,0,0-1-1.32,10.89,10.89,0,0,1-1.15-1.38,45.73,45.73,0,0,1-2.07-5.74c-1.32-3.92-1.45-4.42-1.64-6.2-.14-1.31-.25-1.68-.54-1.79a3.15,3.15,0,0,0-.82.09c-.37.08-1.28.21-2,.28a14.54,14.54,0,0,0-3.36.63c-.59.16-1.74.44-2.57.62s-1.87.43-2.31.58-1.43.38-2.21.53-1.88.39-2.44.53-2.91.65-5.23,1.11-4.51.95-5,1.11c-2.36.83-6.39,2.1-7.53,2.38-.41.1-1.45.26-2.3.36a35,35,0,0,0-5.14,1c-1,.24-2.13.52-2.61.62a10.89,10.89,0,0,0-1.33.37,18.55,18.55,0,0,1-1.81.48c-.75.16-1.73.42-2.17.56a30.82,30.82,0,0,1-4.84,1,86.39,86.39,0,0,0-8.73,1.6c-1.37.35-3.4.78-4.56,1a12.86,12.86,0,0,0-1.46.36,21.26,21.26,0,0,1-2.17.48,20.37,20.37,0,0,0-2.11.45c-.95.29-3.11.75-10.16,2.17-3.17.64-6.38,1.3-7.13,1.47s-2.59.5-4.08.75c-2.88.47-6.38,1.09-10.9,1.94-3.34.62-5.17.94-8.42,1.46-1.34.22-3.53.62-4.87.89s-3.12.57-4.07.67c-2.13.23-4.4.57-5.66.84-2.08.45-5.15.94-8,1.28-.85.1-2.21.3-3,.44s-2.3.37-3.32.49a42.78,42.78,0,0,0-4.66.75,36.51,36.51,0,0,1-5.29.8l-4.94.58-3.19.35c-1.73.17-2,.23-2.31.58s-.26.28-.26,1.31a9.58,9.58,0,0,0,.84,4.09,4.38,4.38,0,0,1,.31.77.48.48,0,0,0,.2.33c.29.11.46,0,.62-.55a2.35,2.35,0,0,1,.82-1.15,2.9,2.9,0,0,1,1.64-1,2,2,0,0,1,.55.12,6,6,0,0,0,1.63.12,9.5,9.5,0,0,1,1.66.1c.83.23,1.41,1.06,2.18,3.11a7.51,7.51,0,0,1,.45,2.84c.08,1.09.2,2.39.27,2.87a5,5,0,0,1,0,1.9c-.07.57-.17,1.71-.22,2.54a16.66,16.66,0,0,1-.41,3.3c-.07.23-.23,1-.35,1.66s-.31,1.58-.43,2-.26,1-.32,1.28a4.59,4.59,0,0,1-.83,1.86c-.2.29-.58.88-.83,1.29a8.15,8.15,0,0,1-2.41,2.56c-1.26,1-1.48,1.12-2,1.2a7,7,0,0,0-.82.2c-.43.14-.51.13-1.55-.05a7.63,7.63,0,0,1-2-.77,8.9,8.9,0,0,1-2-2.11,8.32,8.32,0,0,1-.95-3.2,19.59,19.59,0,0,1-.32-3.56,20.79,20.79,0,0,1,.43-5.46c.42-1.9.43-1.87-1.64-4.09a13,13,0,0,1-2.48-3.31,19.52,19.52,0,0,1-2.49-5.86c-.28-1.13-.51-1.48-.93-1.39-.12,0-1.1.17-2.17.33-3.67.51-3.92.57-4.26,1.1s-.66,3-1.14,8.33c-.43,4.8-.92,8.79-1.74,14.13-.24,1.59-.66,4.38-.93,6.2-.84,5.67-1.44,9.21-1.68,9.87a3.81,3.81,0,0,0-.22,1,58.05,58.05,0,0,1-1.21,5.93c-.21.9-.51,2.2-.65,2.88s-.48,2.14-.75,3.24a144.27,144.27,0,0,0-2.88,16.74c-.71,5.28-1.47,10-1.95,12.18-.14.63-.42,2.11-.62,3.28s-.5,2.8-.66,3.63-.49,2.46-.72,3.63-.51,2.47-.63,2.88-.31,1.23-.43,1.82c-.36,1.88-3.19,12.7-4.57,17.45-.24.83-.57,2.19-.74,3s-.53,2.3-.79,3.27c-1.19,4.42-2.76,10-3,10.81-.16.49-.44,1.43-.61,2.09s-.51,1.83-.76,2.61-.59,2-.76,2.61-.45,1.6-.61,2.08-.46,1.47-.66,2.18-.68,2.28-1.07,3.5c-.67,2.07-1.11,3.53-1.77,5.84-.15.54-.42,1.33-.59,1.76-.32.79-.33,1.06-.05,1.2a15.49,15.49,0,0,0,1.83.14c2.92.1,5.6.22,7.67.36,1.09.07,3.73.19,5.85.26,4.41.16,6.43.27,8.5.45.81.07,4,.29,7,.48,9.15.59,13.85,1,18.21,1.56.92.12,2.82.33,4.21.48s2.92.34,3.41.44,1.6.27,2.48.37,2.65.36,3.94.58l3.72.62a12.67,12.67,0,0,1,1.93.43,3.07,3.07,0,0,0,1,.22,49.24,49.24,0,0,1,5.41.66c.76.13,3,.43,5,.67s4.05.53,4.61.62,1.9.27,3,.4c2.52.29,4.35.54,5.62.75.57.1,1.52.24,2.13.31s2.09.3,3.28.49l3.19.49c5.21.73,17.68,3.05,22.15,4.11,1,.25,2.46.58,3.14.72a15.71,15.71,0,0,1,1.69.44,17.7,17.7,0,0,0,1.73.44c.7.14,7,1.68,13.91,3.42,11.91,3,17.8,4.5,19.62,5.08,1.25.41,6.11,1.87,7.09,2.13.49.14,1.22.37,1.64.52,2.3.82,14.08,4.6,22.41,7.19,4.39,1.36,14.52,4.61,15.51,5l2.3.82c1.72.6,3.33,1.21,6.6,2.49a22.49,22.49,0,0,0,4.29,1.47,1.78,1.78,0,0,1,.68.27,3.42,3.42,0,0,0,.82.43l.31-.11Zm-10.08-31.43a3.48,3.48,0,0,0-.65-.17,4.53,4.53,0,0,1-.93-.3c-1.46-.6-2.47-1-5.42-1.92-9.32-3-13.37-4.25-22.68-6.76-4-1.07-5.59-1.52-11.49-3.16-.86-.24-2.3-.62-3.2-.84s-2.21-.56-2.91-.76a28.72,28.72,0,0,0-3.22-.75c-.38-.07-.95-.21-1.25-.3-.66-.21-8.8-2-11.6-2.61l-3.86-.81c-1-.23-3.08-.65-4.52-.94s-4-.85-5.74-1.24c-4.36-1-7.75-1.65-12.2-2.38-2.09-.34-4.35-.72-5-.84s-1.4-.25-1.64-.28c-.79-.1-3.58-.56-5.61-.92-1.08-.19-3.11-.49-4.51-.66-3.43-.42-3.52-.43-7.07-1-7.1-1.1-13.79-2-19.38-2.48-1.3-.12-2.41-.24-2.48-.27s-1.57-.12-3.35-.22l-4.21-.26c-4.73-.4-33.27-.73-46.07-.54a100.66,100.66,0,0,0-10.19.36c-.48.05-1.94.12-3.23.15-2.76.06-2.78.05-3.38-.73l-.64-.82a.75.75,0,0,1-.2-.72,6.19,6.19,0,0,1,.42-1.19,70.48,70.48,0,0,0,2.38-7.23c.45-1.54,1-3.33,1.2-4s.63-2.06.93-3.1.87-3,1.28-4.34c.91-3,1.79-6.2,2.62-9.57.34-1.39.81-3.29,1-4.21s.63-2.48.85-3.46a16.52,16.52,0,0,1,1-3.59,4,4,0,0,0,.31-.92,76,76,0,0,1,2-7.53c.1-.25.35-1.15.57-2s.89-3.27,1.49-5.36a221.52,221.52,0,0,0,5.37-21.58c.6-3.61.74-4.05,1.49-4.7a5.17,5.17,0,0,0,.73-.77,2.24,2.24,0,0,1,.52-.51,8.06,8.06,0,0,1,2.17-.44,67.63,67.63,0,0,0,8.91-1.58c2-.42,4.64-.94,5.93-1.16s4.38-.78,6.87-1.24c5.61-1,7.06-1.29,9.75-1.69,1.17-.18,3.88-.61,6-1,4.39-.74,5.07-.84,7.75-1.16,1.05-.12,3.44-.44,5.32-.7s4.19-.57,5.14-.67,2.12-.24,2.61-.31,2.64-.31,4.79-.53c4-.42,7.79-.92,10.45-1.37,4.22-.73,12-1.63,16.08-1.86l4.57-.27c.78-.05,2.37-.13,3.54-.18s2.94-.15,3.94-.22l4.08-.27c1.24-.07,3.21-.21,4.38-.31,8.65-.7,15.47-1,26.89-1.24,7.22-.14,13.08-.14,31.19,0,19,.13,26.42.24,29.06.42,2.07.14,6.35.38,8.7.48a4.18,4.18,0,0,1,1.7.22c.69.45.74,1.21.2,3.56-.45,2-1.33,7.67-1.78,11.56-.49,4.18-.9,7.05-2,13.69-1.07,6.45-1.34,7.9-2.78,14.66-.51,2.36-1,4.74-1.11,5.27-.45,2.26-2.07,9.74-2.31,10.63-.37,1.42-2.3,10.49-2.83,13.34-1.38,7.38-4,19.57-4.48,20.72a3.15,3.15,0,0,0-.22.94,59.45,59.45,0,0,1-1.34,6.78c-.49,2.22-1.07,5-1.28,6.07-.89,4.54-2.61,12.91-3.09,15-.21.93-.49,2.18-.62,2.79a38.64,38.64,0,0,1-1.34,4.8,4.36,4.36,0,0,1-1.4,1.53c-.37.18-.51.17-1.07,0Zm-.8-4.45a8.64,8.64,0,0,0,1-3.2c.13-.66.32-1.53.44-1.93a15.31,15.31,0,0,0,.5-2.42,7.5,7.5,0,0,1,.31-1.28c.35-1,1.17-4.43,1.64-6.9s.89-4.5,1.63-7.87c.27-1.23.73-3.42,1-4.88s.75-3.58,1-4.72c2.29-9.78,3.62-16.07,4.51-21.31.27-1.56.63-3.45.8-4.21s.4-1.79.49-2.3c.17-.91.17-.94,0-1.15s-.24-.23-1-.28a6.27,6.27,0,0,1-1.24-.18,3.69,3.69,0,0,0-.85-.19,11.3,11.3,0,0,1-1.37-.33c-.48-.16-1.51-.41-2.29-.58-2.48-.51-5.89-1.27-7.4-1.64-2.62-.64-5.76-1.2-10.9-1.94-2.32-.34-2.49-.35-2.7-.22s-.36.42-1.2,3.58c-.39,1.48-1.21,4.41-1.81,6.51-1.24,4.31-2,7.09-2.35,9.07a13.89,13.89,0,0,1-.48,1.86,5.5,5.5,0,0,0-.27,1c-.06.58-1.54,7.28-2.1,9.5-.19.78-.79,3.07-1.32,5.09-1.25,4.78-3.9,15.54-5.06,20.53-.26,1.14-.28,1.28-.16,1.5a1,1,0,0,0,.39.36c.27.12,4.59,1.35,6.81,1.93.67.18,1.48.42,1.79.54a6.61,6.61,0,0,0,1.14.3,69.33,69.33,0,0,1,6.88,2c1.43.5,3,1,3.36,1.07s1.45.42,2.31.7,2.37.79,3.36,1.1,2,.68,2.26.8c.56.27.61.28.89,0Zm-3.19-28.7c-1-.38-2.49-1.87-4-4.15-1.19-1.79-1.26-1.8-2.69-.48-.55.51-1.29,1.15-1.63,1.41a4.22,4.22,0,0,1-2.23,1,2.42,2.42,0,0,1-1.53-1.21.71.71,0,0,1,0-.58c.18-.41.33-.58,1.42-1.51a25.57,25.57,0,0,0,3.14-3.11c.14-.34,0-.54-.85-1.63a8.46,8.46,0,0,1-1.55-2.16,3.5,3.5,0,0,1-.31-1.29l-.06-.73.33-.29a1.11,1.11,0,0,1,.47-.28c.7,0,1.36.53,2.48,2a8.7,8.7,0,0,0,1.81,2.05.41.41,0,0,0,.51,0,7.93,7.93,0,0,0,1.12-1.1,23.34,23.34,0,0,1,3.1-2.89c.61-.41,1.11-.25,1.9.65s.76,1.29.29,2c-.13.19-1,1.06-2,1.95l-2.2,2.06c-.37.35-.47.5-.47.71s.79,1.59,2.92,4.87c1.18,1.81,1.3,2.22.79,2.65-.29.24-.42.26-.83.12Zm-30,18.78c.17-.15.28-.43.46-1.13.12-.51.34-1.29.48-1.73a40.77,40.77,0,0,0,1.07-4.34c.2-1,.54-2.32.76-3s.74-2.55,1.15-4.16,1.11-4.34,1.57-6.05c.89-3.28,2.18-8.79,3.69-15.72,1.13-5.15,1.7-7.35,3.68-14.22.72-2.48,1.47-5.19,1.68-6,.39-1.5.39-1.5.22-1.74a.82.82,0,0,0-.37-.29c-.3-.07-3.55-.54-5.87-.86-1.12-.14-2.56-.34-3.19-.44-1.64-.24-4.62-.58-6.42-.75l-2.62-.27-2.83-.26c-1-.08-2.32-.22-3-.31s-1.56-.2-2-.23l-.79-.06-.27.27c-.22.22-.36.58-.81,2.07-.91,3-1.86,6.29-2.51,8.71-.35,1.27-1.06,3.82-1.59,5.67s-1.6,5.7-2.38,8.55-1.87,6.84-2.43,8.86-1.14,4.16-1.29,4.75-.35,1.3-.45,1.59-.43,1.41-.71,2.48-.86,3-1.27,4.36-1.06,3.53-1.44,4.89l-.69,2.49.18.24c.19.27,0,.22,3.54.95,2.07.43,15,3.49,16.82,4,.83.23,1.71.49,1.95.58a9.83,9.83,0,0,0,1.1.3c.37.08,1.39.33,2.27.57a18.37,18.37,0,0,0,1.83.44.74.74,0,0,0,.46-.19Zm-4.63-26.89a5.45,5.45,0,0,1-1.69-1.68,4.13,4.13,0,0,1-.45-.75,5,5,0,0,0-.87-1.29c-.51-.51-.66-.46-2.76,1.13-.56.42-1.28,1-1.6,1.28a2.66,2.66,0,0,1-1.54.84,2.13,2.13,0,0,1-1.73-1.42c-.17-.63.09-1,1.67-2.36.74-.64,1.84-1.54,2.43-2,1.45-1.12,1.45-1,.1-2.87s-1.61-2.45-1.29-3.18a.85.85,0,0,1,1.11-.58,4.25,4.25,0,0,1,1.57,1,12.29,12.29,0,0,1,1,1.26c.71,1,.91,1.24,1.24,1.24a6.45,6.45,0,0,0,2.32-1.69c1-1,1.22-1.14,1.79-1.14a1.77,1.77,0,0,1,1.49.9,2.47,2.47,0,0,1,.54,1.46c0,.49-.21.78-.79,1.12s-3.13,2.26-3.29,2.45a1,1,0,0,0-.14.29,9.15,9.15,0,0,0,.73,1.77c1.39,2.89,1.59,3.75,1,4.21-.2.15-.44.14-.8,0Zm-27.53,19.28c.38-.29.81-1.26,1.35-3,.27-.89.89-2.92,1.38-4.5,1.22-3.95,2.46-8.31,3.09-10.86.29-1.18.63-2.43.75-2.79s.6-2.09,1.07-3.85c1.22-4.61,1.73-6.42,3.1-10.94.67-2.22,1.27-4.27,1.35-4.56s.24-.93.38-1.42.63-2.3,1.09-4,1.15-4.19,1.52-5.47a14.62,14.62,0,0,0,.61-2.52.64.64,0,0,0-.25-.3,100.87,100.87,0,0,0-10.16-1.16c-1.87-.17-3.85-.37-4.38-.44-2.14-.29-6.39-.68-9.08-.84-.91-.05-2-.14-2.48-.19-.93-.09-1.13,0-1.37.43s-4.63,15.5-5.64,19.2c-.25.93-.81,3-1.24,4.52s-1.18,4.33-1.67,6.16-1.05,3.9-1.25,4.61-.87,3.28-1.5,5.71a98.31,98.31,0,0,1-2.94,10.22c-.3.75-.3.82-.1,1.07s.91.33,6.89,1.38c3.7.65,7.65,1.39,8.77,1.63l4.39.94c1.29.27,3,.65,3.85.84,1.78.41,2.14.43,2.47.17Zm-12.3-26a3,3,0,0,1-.6-.45c-.72-.69-.46-1.15,2-3.62,2.15-2.17,2.08-1.95,1-3.36a3.71,3.71,0,0,1-1-2.38c0-.4,0-.5.26-.71s.29-.25.78-.19a3.33,3.33,0,0,1,2.47,1.7c.2.46.41.65.69.65a13.33,13.33,0,0,0,1.63-1.44,16.52,16.52,0,0,1,1.76-1.56c.24-.1.35-.09.72,0a3,3,0,0,1,1.41,1.06,1.11,1.11,0,0,1,.24.82c0,.64-.19.88-1.87,2.42a11.24,11.24,0,0,0-1.5,1.56c-.16.39,0,.59,1.25,2s1.37,1.54,1.37,1.91-.33.65-1,.65c-1,0-1.41-.24-2.86-1.5-1.15-1-1.06-1-2.72.44a9.25,9.25,0,0,1-2.57,1.9,1.58,1.58,0,0,1-1.41.07Zm-18.29,20.25a2.25,2.25,0,0,0,.49-.76,96,96,0,0,0,3.4-11c.16-.71.56-2.24.89-3.41s1.08-3.92,1.68-6.12,1.39-5.11,1.78-6.49,1-3.52,1.32-4.74c1-3.61,2.77-9.65,3.69-12.51.47-1.46,1.06-3.36,1.32-4.21.65-2.15.73-2.07-2.18-2.21-3.83-.18-21.24-.48-22.89-.39-1,.06-1.25.14-1.48.57,0,.08-.49,1.75-1,3.72-3,11.29-4.28,16-5.67,20.4-.31,1-.74,2.44-.93,3.18s-.62,2.14-.94,3.09-.57,1.81-.57,1.89-.29,1.06-.66,2.17-.74,2.35-.84,2.75-.52,1.67-.93,2.82c-1.13,3.23-2.26,6.74-2.26,7.06a.81.81,0,0,0,.55.7c.35.12,7.34,1.14,15.24,2.23,1.21.16,2.48.38,2.83.47a8.57,8.57,0,0,0,1.31.23c1.07.09,4.54.5,4.87.58a1.46,1.46,0,0,0,1,0Zm-30-4.35c.32-.26.87-1.68,2.31-6,1-3.06,3-9.07,3.91-12s4.16-13.87,4.41-14.85c.14-.58.57-2.2,1-3.58,1-3.73,2.27-8.42,2.52-9.53.22-.95.22-1,.06-1.19l-.16-.23h-2.83c-1.55,0-3.4,0-4.11.11s-2.78.15-4.61.2-4.14.13-5.13.17l-4.83.22c-4.38.19-4.44.2-4.79.5a1.7,1.7,0,0,0-.47.9c-.39,1.31-.92,3.68-1.79,8a196.18,196.18,0,0,1-6,23.62c-.62,1.89-2.64,8.16-3.34,10.39l-.45,1.4.46.47,3.44.15c1.89.09,3.92.2,4.5.25s2.14.16,3.45.23c5.23.29,8.81.58,10.28.83a11.21,11.21,0,0,0,1.2.09c.66,0,.78,0,1-.19Zm-71.55-1.26c2.44-.18,13.38-.49,17.23-.49,1.17,0,1,.27,3-5.36,1.3-3.75,1.35-3.91,1.83-5.49,1.2-4,4.13-15.62,5.15-20.52.18-.85.5-2.26.72-3.14s.68-2.73,1-4.12c.61-2.51.61-2.53.45-2.75s-.2-.22-1.15-.2a10.08,10.08,0,0,0-1.63.15c-.35.07-.92.16-1.26.19l-2.39.26c-1,.12-2.65.3-3.73.4l-3.05.31-2.22.26c-1.27.15-4.05.31-5.36.32s-1.16-.25-2.29,3.93c-.52,1.89-1.06,4-1.21,4.78-.38,1.86-.72,3.27-1.09,4.58-.17.6-.39,1.42-.48,1.81-.32,1.28-.56,2.1-1.17,4.08-.34,1.07-.68,2.21-.76,2.52a14.35,14.35,0,0,1-.45,1.37,17.28,17.28,0,0,0-.56,1.82c-.15.56-.57,2-.94,3.24s-1.22,4.05-1.9,6.29-1.34,4.37-1.46,4.73c-.22.65-.22.72,0,1s1.24.21,3.71,0Zm16.68-16.25a15.12,15.12,0,0,1-2.32-2.38c-.53-.66-.74-.8-1-.65a16.71,16.71,0,0,0-1.3,1.29c-1.24,1.31-1.55,1.55-2,1.55s-1.66-1-1.66-1.44,1.13-2.07,2.43-3.5c.4-.44.58-.72.58-.87s-.25-.5-1-1.27c-1.33-1.38-1.62-2-1.25-2.54a1.12,1.12,0,0,1,1-.43,5.11,5.11,0,0,1,1.94,1.34c.81.75,1,.85,1.4.65a15.84,15.84,0,0,0,1.93-2.59,3,3,0,0,1,.68-.88c.84-.51,1.71.25,1.8,1.58a2.1,2.1,0,0,1-.34,1.38,7.08,7.08,0,0,1-.76,1.27,6.73,6.73,0,0,0-1.27,2.2,1.42,1.42,0,0,0,.2.6l.67,1.08a7.59,7.59,0,0,1,1.22,2.83c.05.54,0,.59-.17.8a.82.82,0,0,1-.31.23,2.18,2.18,0,0,1-.47-.25ZM518,413c.74-.14.73-.13,2.22-4.39,1.1-3.11,2.68-7.93,3.68-11.16a158.38,158.38,0,0,0,4.7-18.7,80.32,80.32,0,0,1,2-8.94c.33-1.14.34-1.25.22-1.44s-.31-.25-1.46-.12l-2.17.18c-3.71.24-5.15.39-9.65,1l-5.76.76c-2.4.31-2.69.39-2.88.74-.06.1-.47,1.72-.93,3.61-.77,3.17-1.07,4.51-2.48,10.92-.28,1.24-.88,3.8-1.34,5.67s-1,4.21-1.28,5.18c-.74,3-2.64,9.66-3.23,11.3a34.35,34.35,0,0,0-1.19,3.7l-.26,1,.39.46,4.43.08,7.3.16c4,.09,7.24.1,7.7,0ZM687.19,376.9c.26-.6,1.58-6.25,2.3-9.85.68-3.36,1.73-8.21,2-9.22.23-.84,1.14-5.75,1.68-9,.17-1,.49-2.86.71-4,1.14-6.19,1.79-10.44,2.44-15.95.14-1.22.41-3.07.61-4.12.41-2.26.8-4.82.8-5.3s-.25-.68-.75-.76c-.19,0-1.55-.13-3-.23l-3-.22c-1.47-.21-6.11-.37-14-.49-6.45-.1-6.17-.12-6.39.43s-1.44,5.73-1.65,7c-.13.73-.38,2.12-.57,3.1s-.43,2.31-.54,3-.27,1.55-.36,2c-.34,1.53-.79,3.83-1.23,6.25-.63,3.45-2.29,11.63-3.15,15.41-1.07,4.78-2.52,10.65-3.32,13.46-.54,1.91-.6,2.26-.42,2.5s.43.41,3,.79c2.83.43,7.21,1.17,8.55,1.45,2.56.54,6.36,1.2,8.46,1.47a23.9,23.9,0,0,1,2.93.52c.48.15,1.32.36,1.85.49a3.52,3.52,0,0,1,2.26,1.14c.35.48.66.56.8.22Zm-11.05-16.64a5,5,0,0,1-2.08-.91,5.67,5.67,0,0,1-1.68-1.44l-.73-1.11a3.33,3.33,0,0,1-.73-2.91c.28-1.08.86-1.86,1.39-1.86.35,0,1,.62,1.25,1.15a12.57,12.57,0,0,1,.56,2.15c.16,1,1.51,1.51,3,1.21a4.3,4.3,0,0,0,2-.88,10.63,10.63,0,0,0,1.74-2.52,7.34,7.34,0,0,0-.32-5.69,3.61,3.61,0,0,0-1.23-1.62,25,25,0,0,1-2.62-2.74,11.11,11.11,0,0,1-1.94-6.48,4.25,4.25,0,0,1,.41-2.19c.75-1.58,3.3-2.83,6.14-3a3.92,3.92,0,0,1,2.4.46,3.21,3.21,0,0,1,1.47,1.48c1,1.71,1.2,3,.42,3.84a1,1,0,0,1-1.26.15,4.24,4.24,0,0,1-1.5-1.58,2,2,0,0,0-.47-.68c-.22-.16-.23-.16-1.24.09a4.72,4.72,0,0,0-2.19.93,3.22,3.22,0,0,0-.88,1.75,6.14,6.14,0,0,0,.77,3.22,10.22,10.22,0,0,0,1.17,1.18,13.88,13.88,0,0,1,4.51,6.62A16.23,16.23,0,0,1,685,352a11,11,0,0,1-.75,3.22c-.79,2-2.36,4-3.72,4.55a9.41,9.41,0,0,1-4.36.48Zm-20.59,10.13c.2-.2.31-.52.67-2,.23-1,.78-3.11,1.21-4.74s1-3.69,1.15-4.57.64-2.73,1-4.12.77-3.42,1-4.52.6-3.07.89-4.38.81-3.93,1.15-5.81c.56-3.06,1-5.32,3-15.22.31-1.58.7-3.32.87-3.87s.39-1.42.5-1.93l.2-1-.2-.21c-.19-.2-.29-.22-1.37-.27-1.47-.07-14.06-.3-20.39-.38l-4.79-.05-.25.21c-.3.26-.37.54-1.13,4.33-1,4.9-1.57,7.53-2.61,11.48-.56,2.14-1.42,5.43-1.9,7.31s-1.1,4.25-1.37,5.27-.59,2.34-.71,2.92-.35,1.45-.49,1.91-.4,1.52-.58,2.35c-.36,1.75-1.72,7.67-2.6,11.28l-.6,2.52.23.25c.27.3.37.32,3.91.65,2.45.24,11,1.17,13,1.43,2.73.35,7.72,1,8.64,1.18,1.36.22,1.39.22,1.67-.06Zm-10-13.18a5.58,5.58,0,0,1-3-2.15,6.39,6.39,0,0,1-1.78-4.42c.1-1.4,1.15-2.78,2.1-2.78a1.81,1.81,0,0,1,1.52,1,2.59,2.59,0,0,1,0,2.1c-.22.9-.23,1-.14,1.41a2,2,0,0,0,.84,1.23,2.09,2.09,0,0,0,.87.15,1.15,1.15,0,0,0,.9-.23,7.41,7.41,0,0,0,1.4-2.29,9,9,0,0,0,.68-3.64c.1-3.25-.45-4.88-2.35-6.94a12.71,12.71,0,0,1-2.6-4.83,5.11,5.11,0,0,1,0-2.39,5.37,5.37,0,0,1,2.93-2.67,6.59,6.59,0,0,1,2.75-.91,2.63,2.63,0,0,1,1.48.45,4.08,4.08,0,0,1,2.24,2.06,6.71,6.71,0,0,0,.32.82,1.63,1.63,0,0,1,.17.58c0,.52-.82,1.34-1.48,1.48-.43.08-1-.27-1.73-1l-.59-.64-.44,0a3,3,0,0,0-2.16,1.44A3.41,3.41,0,0,0,648,338a4.92,4.92,0,0,0,1.09,1.12,7,7,0,0,1,1,.93,31.78,31.78,0,0,1,2.09,4.22,15.52,15.52,0,0,1,.47,5.29,13.88,13.88,0,0,1-1,3.91,7.84,7.84,0,0,0-.5,1.15,2.46,2.46,0,0,1-.79,1.21,4.48,4.48,0,0,1-2.13,1.37,7.31,7.31,0,0,1-2.64,0ZM487.46,369.75c1-.1,2.54-.25,3.36-.35l4.78-.54c4.37-.47,8.23-.94,9.17-1.11.62-.12.82-.19,1-.39s.46-1.12,2.13-7.72c1-4.11,2.16-8.44,2.48-9.6s1.05-3.77,1.6-5.76c1.3-4.64,3.41-13.89,3.27-14.27s-.33-.31-2.66.13l-4.06.75c-3.78.67-6,1.11-7.36,1.46-.78.2-1.81.42-2.3.5s-1.22.22-1.63.32a17.19,17.19,0,0,1-1.9.26c-1.24.08-1.51.14-1.79.35s-.4.42-.62,1.6c-.13.65-.4,1.87-.62,2.69s-.49,2.13-.61,2.88c-.25,1.54-.45,2.49-.9,4.3-.78,3.1-1.58,5.92-1.89,6.65a6,6,0,0,0-.4,1.21,14.3,14.3,0,0,1-.4,1.55c-.19.63-.43,1.53-.54,2a48.06,48.06,0,0,1-1.41,5.14c-.39,1.17-1,3.39-1.43,4.94-.71,2.73-.73,2.82-.57,3s.83.23,3.3,0Zm15.21-7.8a4.85,4.85,0,0,1-1.54-1.58l-.19-.39.14-1.83c.08-1,.22-2.65.32-3.66.22-2.23.21-2.67-.07-2.71s-.33.18-1,1.2c-.93,1.38-1.64,2.19-2.08,2.33a2.73,2.73,0,0,1-2.28-.75c-.45-.37-.54-.41-.72-.33s-.23.23-.36.78a29,29,0,0,1-1.24,3.83,8.43,8.43,0,0,0-.4,1.15c-.19.82-.91,1.43-1.53,1.29a3.65,3.65,0,0,1-2-1.22c-.33-.54-.22-1.05.63-2.89a20.74,20.74,0,0,0,1.55-5.31c.68-3.35,1.33-6.14,1.47-6.37a2.08,2.08,0,0,1,2.12-.34l.77.23a2.25,2.25,0,0,1,.84.53c.49.45.57.61,1,1.94.14.5.23.67.4.74s.28.14,2.07-2c2.88-3.45,3.13-3.68,4.07-3.68a2.34,2.34,0,0,1,2.23,1.27l.21.4-.16.7c-.09.38-.34,1.23-.55,1.89a24.81,24.81,0,0,0-1,4c-.75,4.53-.89,6.82-.5,8.38.2.78.2.89.1,1.28a1.6,1.6,0,0,1-2.27,1.1Zm11.08,4.7,3.15-.44c1.11-.16,1.9-.25,6.29-.71.9-.1,2.76-.24,4.12-.31,3.8-.2,4-.22,4.31-.36a1,1,0,0,0,.35-.33c.18-.34,1.51-4.81,1.94-6.53.36-1.43,1.6-6,2.44-8.87.35-1.24.83-3.05,1-4,2-8.69,2.16-9.41,2.71-12.48.24-1.37.64-3.46.88-4.65l.43-2.16-.21-.21a.42.42,0,0,0-.41-.17c-.11,0-1,.15-2,.27s-2.61.36-3.63.53-2.28.37-2.8.44-1.66.28-2.57.45-2.29.39-3.1.49c-1.3.16-2.41.33-5.67.84-1.14.18-1.59.37-1.84.76s-.74,2.38-1.75,7.21a66.5,66.5,0,0,1-2.16,8.59,7.62,7.62,0,0,0-.35,1.2c-.05.32-.43,1.76-.84,3.2-.94,3.31-1.41,5.14-2.58,10.18-.76,3.28-1.43,6-1.69,6.92a.5.5,0,0,0,.15.34c.19.2.24.2,1,.15.44,0,1.68-.17,2.75-.32Zm9.38-7.4a5,5,0,0,1-1.76-1.64c-.16-.36-.16-.39,0-1a24.5,24.5,0,0,0,.71-3.91c.38-3.06.48-3.77.95-6.24l.45-2.38-.43-.42-1.42.35a14.74,14.74,0,0,1-1.64.36,4.19,4.19,0,0,1-1.78-1.2c-.62-.75-.69-1.12-.32-1.65.22-.33.62-.48,1.49-.6a29.63,29.63,0,0,0,4.62-1.19c1-.32,2.15-.66,2.53-.76,1.56-.4,5-1.08,5.67-1.13a1.88,1.88,0,0,1,1.37.26c1,.48,1.52,1.09,1.53,1.84s-.66,1.31-1.68,1.2a10.57,10.57,0,0,0-3.4.48c-2.17.54-2.4.67-2.52,1.51,0,.22-.16.7-.27,1.06a49.7,49.7,0,0,0-1.2,5.5,62,62,0,0,0-.76,6.33c-.16,2-.29,2.58-.69,3a1.07,1.07,0,0,1-1.45.17Zm101.07,7.62a1.07,1.07,0,0,0,.39-.4c.18-.34.86-3.11,1.73-7,1.27-5.68,3.3-14,4.52-18.47,1-3.71,3.28-12.41,3.62-13.87.19-.85.64-3.08,1-5s.68-3.62.73-3.88c.09-.44.08-.48-.12-.69l-.23-.22-3.45.13c-1.89.08-5.56.2-8.14.27l-7,.23c-2.55.1-8.65.49-9.1.58s-.7.41-1.05,1.81c-.18.7-.5,2.14-.71,3.19s-.63,3-.93,4.43-1,4.6-1.51,7.13c-1.15,5.41-1.73,8-3.18,14.09-.59,2.47-1.15,4.88-1.25,5.35s-.3,1.21-.44,1.65c-.28.88-1.8,6.46-1.95,7.2-.09.4-.08.5,0,.69a.9.9,0,0,0,.35.3c.24.09,2.13.28,5.2.54,1.19.09,2.46.21,2.83.26s1.6.17,2.75.27c2.28.2,5.5.53,7.83.8.83.1,2.76.27,4.3.4s2.84.23,2.88.25a1.47,1.47,0,0,0,.94-.08Zm-15.56-12.26A4.63,4.63,0,0,1,607.3,353l-.32-.66.09-.73a12.59,12.59,0,0,1,.45-1.75c.19-.56.41-1.3.49-1.64a11.18,11.18,0,0,1,.33-1.1,20.76,20.76,0,0,0,.53-2.06c.34-1.57.6-2.59,1.19-4.72a55.19,55.19,0,0,0,1.46-8c.09-1.12.32-1.63.84-1.88.3-.14.36-.14,1,0,.89.19,1.72.11,4.13-.42a8.86,8.86,0,0,1,3.58-.35,3.26,3.26,0,0,1,2.74,2.77,1.46,1.46,0,0,1-1.11,1.45c-.26.05-.43,0-1-.31a3.31,3.31,0,0,0-.94-.36c-.31,0-2.53.44-4,.81-1,.23-1.19.31-1.48.57s-.35.38-.65,1.61c-.18.71-.42,1.78-.53,2.37-.18.93-.19,1.08-.08,1.25a.68.68,0,0,0,.24.24c.06,0,1-.09,2.15-.24,2-.26,2-.27,2.45-.11a2.82,2.82,0,0,1,1.36,1.35c.25.55.2.76-.32,1.2a6,6,0,0,1-2.71,1c-.73.17-1.83.44-2.45.61-2.07.58-2.06.57-2.54,2.44a29.82,29.82,0,0,0-.81,4.87c-.17,1.94-.43,2.8-1,3.19a2.94,2.94,0,0,1-1.73.19Zm-65.2,9.91c2.87-.1,6-.21,6.91-.26s3.11-.13,4.87-.18a50.17,50.17,0,0,0,6.95-.4c.3-.15.4-.36.67-1.37s.3-1.19,1.6-6.56c.41-1.68,1-4.21,1.41-5.63s1-3.8,1.33-5.31.82-3.37,1-4.12c.79-3.12,2.31-10,3.1-14.09a28.36,28.36,0,0,1,1.06-4.48c.18-.41.1-.72-.22-.8a24.64,24.64,0,0,0-3.9.5c-3.45.59-6.22,1-9.48,1.28-2.67.26-7.74.87-8.77,1.07-.39.07-1.41.2-2.27.3-1.69.18-2.09.3-2.39.72s-.73,1.91-1.45,6c-.27,1.54-.6,3.29-.72,3.9-.27,1.31-1.65,7.57-2.15,9.7-.35,1.52-2,7.78-2.45,9.17-.13.41-.39,1.37-.57,2.13s-.77,2.89-1.28,4.74-.94,3.42-.94,3.48a.64.64,0,0,0,.19.29c.18.18.25.19,1.22.13l6.26-.23Zm12.61-6.42a3.14,3.14,0,0,1-1.89-1.88,31,31,0,0,0-2-5.19c-.31-.35-.52-.19-2,1.57-2,2.37-2.2,2.61-2.95,4.25a1,1,0,0,1-.67.65,1.26,1.26,0,0,1-.84.16,3,3,0,0,1-1.94-1.4c-.49-.73-.51-1-.17-2.45.15-.65.37-1.78.49-2.52l.49-3c.15-.92.51-2.92.8-4.43a29.78,29.78,0,0,0,.79-4.91c0-1.08.43-1.51,1.48-1.51a2,2,0,0,1,1.52.56,1.92,1.92,0,0,1,.66,1.65,53.5,53.5,0,0,1-1.15,6.14c-.36,1.55-.42,2.43-.18,2.58s.22,0,.6-.39c.24-.26.66-.77.92-1.11a7.12,7.12,0,0,1,.75-.87,2.21,2.21,0,0,1,1.41-.44,3.83,3.83,0,0,1,1.52.88,8.25,8.25,0,0,1,1.2,2.6c.26.91.28.94.54,1s.27,0,.68-1.07c1-2.79,3.47-10.53,3.63-11.5s.62-1.4,1.65-1.29a2.77,2.77,0,0,1,1.59.67c.6.49.65.69.41,1.6a11.29,11.29,0,0,1-.52,1.42c-.37.81-.82,2.15-2.06,6.07-.52,1.66-1.1,3.42-1.28,3.92a22.21,22.21,0,0,0-1.22,6.23c-.1,1.5-.21,1.85-.66,2.06a2.43,2.43,0,0,1-1.58,0Zm37,5.87c.34-.34.62-1.17,1.45-4.19,1.25-4.58,4.13-16.57,5.29-22,.32-1.48.75-3.46,1-4.38,1.12-4.85,1.76-7.83,2-9.37.1-.63.3-1.77.44-2.54.4-2.16.4-2.1.14-2.36s-.27-.22-.73-.18-4.77.33-7.47.49l-5.93.31c-4.91.25-5.58.3-9.35.67-3.31.33-4,.43-4.27.59s-.26.36-.07.61a.8.8,0,0,1,.13.41c0,.13-.42,2.32-.93,4.87-1.33,6.57-1.43,7-1.71,7.87a11.34,11.34,0,0,0-.4,1.67c-.08.5-.37,1.82-.64,2.92s-.79,3.31-1.15,4.89-.76,3.23-.88,3.65-.36,1.44-.53,2.26-.45,2-.63,2.69-.42,1.65-.54,2.21-.63,2.61-1.11,4.56-.86,3.63-.83,3.74a.53.53,0,0,0,.21.29c.09,0,3.56.14,8.17.22,10.4.18,17,.32,17.09.37a2,2,0,0,0,.52,0,.83.83,0,0,0,.77-.29Zm-11.81-8a4.83,4.83,0,0,1-1.6-1.58,2.27,2.27,0,0,1,0-1.85c.23-.74,1.74-6.72,1.91-7.6.06-.3.46-1.84.89-3.43s.86-3.28,1-3.75l.2-.86-.44-.44-1.59.19c-.87.1-2,.26-2.45.36-.85.18-.89.18-1.38,0a2.86,2.86,0,0,1-1.85-2.35c0-.47,0-.55.16-.75a1.37,1.37,0,0,1,.42-.31c.12,0,1.19-.14,2.4-.21s2.77-.23,3.51-.35,1.83-.28,2.44-.36l3.23-.44c4.09-.58,4.53-.59,5.42-.19a3.62,3.62,0,0,1,1.47,1.4,1,1,0,0,1-.18,1.32c-.42.45-.65.49-3.74.61-1.24.05-2.42.13-2.6.17a1.2,1.2,0,0,0-.9.88,5.09,5.09,0,0,1-.31.9,6.27,6.27,0,0,0-.35,1.31,7.65,7.65,0,0,1-.23,1.09c-.32.91-1.42,4.87-1.72,6.23-.19.83-.55,2.37-.79,3.42a32.72,32.72,0,0,0-.9,4.81,1.9,1.9,0,0,1-1.17,1.79c-.41.17-.39.17-.85,0Zm-43.08-42.39a8.39,8.39,0,0,1-1.71-1,2.5,2.5,0,0,1-.56-.7l-.22-.44.15-.86a10.61,10.61,0,0,0,.14-1.48,3.22,3.22,0,0,1,.08-.88c.35-.92.52-5.4.71-18.64.11-7.28.07-6.94.67-7.22.35-.17.48-.17,1.29,0a2,2,0,0,1,1.74,1.48,100.84,100.84,0,0,1,.12,10.87c0,2-.06,3.73,0,3.79a.28.28,0,0,0,.24.11c.17,0,.29-.19.79-1.23.32-.68.59-1.26.59-1.31s.38-.85.85-1.8c.88-1.77,1.58-3.23,2.07-4.26a2.11,2.11,0,0,1,1.29-1.28,3.37,3.37,0,0,1,2.38.81c.44.45.56.84.77,2.64,0,.43.23,1.44.4,2.25s.39,2.15.49,3c.2,1.77.42,3.28.49,3.47s.14.12.28.11.28-.21,1.27-3.22c.58-1.75,1.22-3.77,1.41-4.47.52-1.85.54-1.9,2.15-6.87.81-2.49,1.71-5.28,2-6.21a15.79,15.79,0,0,1,.71-1.92c.29-.36.63-.45,1.54-.4a2.78,2.78,0,0,1,1.18.22,1.72,1.72,0,0,1,.89,1.37c0,.43,0,.6-.36,1.5a15.56,15.56,0,0,0-.59,1.8,7.87,7.87,0,0,1-.53,1.48,16.09,16.09,0,0,0-1.14,3.31,36.26,36.26,0,0,1-1.36,4.34c-.19.53-.46,1.38-.59,1.9-.42,1.56-1.2,4.2-1.82,6.12-.32,1-.64,2.12-.71,2.48a7.31,7.31,0,0,1-.26,1.07,8.1,8.1,0,0,0-.28.87c-.07.26-.47,1.31-.88,2.33a18.52,18.52,0,0,0-.93,2.69,4.81,4.81,0,0,1-.9,2.14,1.3,1.3,0,0,1-2.1,0,2.29,2.29,0,0,0-.74-.47,1.35,1.35,0,0,1-.93-1.16c-.32-1.78-.39-2.25-.52-3.41-.17-1.63-.44-3.58-.66-4.83-.09-.54-.21-1.45-.26-2-.12-1.42-.23-1.9-.48-2s-.37,0-.81.65a41.28,41.28,0,0,0-2.83,6.39c-.28.78-.83,2.14-1.22,3a22.49,22.49,0,0,0-1.57,4.22c-.2.9-.43,1.35-.84,1.6s-.42.19-.85,0Zm22.88-2a7,7,0,0,1-2.28-1.87,2.06,2.06,0,0,1,.09-1.6,8.13,8.13,0,0,0,.35-1.18,7,7,0,0,1,.44-1.28,3.83,3.83,0,0,0,.32-.78,12.34,12.34,0,0,1,.47-1.28,12.1,12.1,0,0,0,.63-2,23.11,23.11,0,0,1,.64-2.23c.26-.78.47-1.47.47-1.52a2.74,2.74,0,0,1,.23-.59,4.82,4.82,0,0,0,.3-.91c0-.23.17-.76.27-1.17s.22-1.17.28-1.69A18.29,18.29,0,0,1,564,290c.35-1.27.9-3.9,1.29-6.2.17-1,.44-2.35.61-3s.38-1.49.46-1.88c.25-1.18.59-1.67,1.26-1.78a25.12,25.12,0,0,0,4.12-1.08c2-.67,2.07-.68,3-.68h.94l.84.42a3.17,3.17,0,0,1,1.68,1.47c.23.71-.15,1.71-.7,1.85a3.25,3.25,0,0,1-.84,0c-1.38-.24-2.43,0-4.54.86l-1.2.48a2.4,2.4,0,0,0-1.24,1.19,21.79,21.79,0,0,0-.75,3.85c-.13.87-.45,2.64-.7,3.94-.46,2.3-.46,2.36-.3,2.52a.56.56,0,0,0,.27.17s.76-.22,1.57-.49c2.31-.76,3-.81,4.52-.35,1.24.37,1.83,1.8,1,2.49-.38.34-.62.43-1.79.65a15.37,15.37,0,0,0-5,1.74,7.22,7.22,0,0,0-1.93,1.88,11.32,11.32,0,0,0-.95,2.76c-.15.61-.42,1.54-.62,2.07s-.42,1.23-.5,1.55-.21.9-.3,1.27c-.23.95-.22,1.35.05,1.63a.8.8,0,0,0,.35.21,32,32,0,0,0,3.91-1,11.36,11.36,0,0,0,2.54-1.33,2.76,2.76,0,0,1,2.51-.57c.66.08.73.11,1,.44a2.05,2.05,0,0,1,.49,1.76c-.07,1-.42,1.33-1.48,1.62a8.55,8.55,0,0,0-1.28.58,9.08,9.08,0,0,1-1.6.66c-.39.11-1.32.39-2.07.63a13.31,13.31,0,0,1-3.14.7,4.22,4.22,0,0,0-.86.16,7,7,0,0,1-1.24.23c-.37,0-1,.12-1.33.19-.75.14-.85.15-1.13,0Zm19.37-3.66a3.06,3.06,0,0,1-.84-.27,4.75,4.75,0,0,1-1.4-1.7c-.43-.89-.46-1.09-.24-1.7a23.9,23.9,0,0,0,.85-4.62,17.3,17.3,0,0,1,.53-3c.27-.77,1-3.69,1.6-6.28s1-4.23,1.76-6.87c.36-1.27.81-3,1-3.81s.44-2,.58-2.56a8.79,8.79,0,0,0,.26-1.31,1.42,1.42,0,0,1,.5-1c.37-.29,1.09-.22,2,.2a3.71,3.71,0,0,0,1,.32,13.79,13.79,0,0,0,1.8-.49c5.46-1.75,7.19-2,8.82-1.22a3.13,3.13,0,0,1,1.31,1.1,1.44,1.44,0,0,1-.34,1.65c-.39.4-.7.47-2.33.47a13.47,13.47,0,0,0-1.72.08c-1,.24-4.55,1.39-5.21,1.68l-2.39,1c-.42.17-.55.45-.87,1.83-.16.69-.46,1.84-.65,2.54s-.51,1.86-.69,2.55l-.33,1.27.46.46,1.36-.45c1.88-.61,2.24-.68,3-.54,1.23.2,1.75.51,2.07,1.21a1.65,1.65,0,0,1-.67,2.31,1.35,1.35,0,0,1-.94.21,3.63,3.63,0,0,0-2.17.33,10.11,10.11,0,0,0-3.43,2.11c-.9.84-.91.84-1,1.45-.08.33-.26,1-.41,1.38a28.7,28.7,0,0,0-.79,2.77c-.13.65-.45,3.31-.45,3.83,0,.74.52.92,1.37.47a13.78,13.78,0,0,1,1.38-.57c.51-.18,1.73-.66,2.7-1.06,2.13-.89,2.49-.95,3.41-.59,1.2.47,1.79,1.46,1.36,2.29A3.44,3.44,0,0,1,590.1,305a18.84,18.84,0,0,0-3.56,1.15,23.07,23.07,0,0,1-3.1,1.07,8.35,8.35,0,0,0-1.06.35,2.84,2.84,0,0,1-2,.27Zm17.78-2.7a4.56,4.56,0,0,1-1.69-1.65,18.44,18.44,0,0,1,.77-5l.45-1.42c.09-.32.29-1.14.43-1.82s.33-1.48.43-1.76a16.39,16.39,0,0,0,.41-2.13,69.44,69.44,0,0,1,1.47-7.19c.91-3.84,1.07-4.47,2-7.88.38-1.37.74-2.72.8-3a1.31,1.31,0,0,1,1.71-1.13,5.48,5.48,0,0,1,1.52.52,2.17,2.17,0,0,1,.66,1.33c0,.15-.39,1.51-.88,3-1,3.14-1.18,3.8-1.06,4s.14.17.21.17a31.45,31.45,0,0,0,3-4.17c2.14-3.14,3-4.46,3.21-4.85a2.89,2.89,0,0,1,1-1.13,1.42,1.42,0,0,1,1.37.13c1.07.5,1.54,1.16,1.41,2-.08.47-.69,1.5-2.54,4.27-1.64,2.45-2.91,4.28-4.38,6.27-1,1.43-1.21,1.74-1.26,2.52s.1,1.21,1.13,3.68c.76,1.8,3.27,7,4,8.15a9.39,9.39,0,0,1,.53,1.06,4,4,0,0,0,.46.84,6.42,6.42,0,0,1,1.23,3.54,2.07,2.07,0,0,1-1.07,1.21c-.38.18-.41.18-.95,0a3.29,3.29,0,0,1-.74-.26c-.8-.52-2.54-3.6-3.26-5.75a68.26,68.26,0,0,0-2.84-6.42c-.46-1-.9-2-1-2.21-.28-.88-1-1.27-1.36-.78a7.11,7.11,0,0,0-.55,2.57,37.15,37.15,0,0,1-1.24,6.49,17.28,17.28,0,0,0-.43,1.8,25.87,25.87,0,0,1-.64,3.25c-.35,1.08-1.12,2-1.69,2a1.88,1.88,0,0,1-.65-.25Zm26.86-1.78c-1.24-1.19-1.58-1.92-1.1-2.38.26-.23.73-.33,2.5-.5s2.72-.38,3.11-.76c.79-.77,1.39-3.12,2-7.91.14-1.16.36-2.54.48-3.06s.32-1.37.44-1.9.29-1.46.37-2.08.26-1.84.4-2.72.3-2.15.35-2.84a16.58,16.58,0,0,1,.39-2.48c.17-.68.32-1.36.35-1.51,0-.3-.14-.66-.34-.66a2.89,2.89,0,0,0-.65.44c-.73.58-1.24.77-1.7.64-.86-.26-1.77-1.18-1.77-1.78a3.71,3.71,0,0,1,1.22-2.15,25.17,25.17,0,0,1,5.21-3.51c1.21-.6,1.46-.68,1.86-.54a2.24,2.24,0,0,1,1.18,1.12c.18.67-.07,2.38-.88,5.83a44.1,44.1,0,0,0-1.33,8.37,43.6,43.6,0,0,1-1,6.16,31.31,31.31,0,0,0-.89,5.36c-.1,1-.24,2.21-.31,2.69-.17,1.15-.17,1.14.11,1.48l.24.28.8-.08a5.48,5.48,0,0,1,2.9.22c1.24.53,1.75,1.39,1.45,2.44a1.59,1.59,0,0,1-2,1.11,14.47,14.47,0,0,0-5.23.37,37.22,37.22,0,0,1-6.3,1l-1.08.05Zm76.93,168c1-.3,1.95-1.77,2.36-3.72l.4-1.9c.1-.46.34-1.68.53-2.7s.54-2.94.79-4.25.69-3.8,1-5.52.6-3.38.7-3.71a4,4,0,0,0,.18-.93,12.8,12.8,0,0,1,.27-1.6c.27-1.29.65-3.73,1-6.27.1-.81.26-1.88.36-2.4s.19-1.17.22-1.46.19-1.41.36-2.48.36-2.57.44-3.32.25-2.29.4-3.41.38-3.22.53-4.65c.31-3.08.67-6.14.79-6.83a45.88,45.88,0,0,0,.49-5.4c.13-1.92.26-3.82.31-4.21s.19-2.06.31-3.72c.27-3.64.33-4.23.71-7.62.17-1.46.41-3.69.53-5s.37-3.5.53-5c.42-3.62.53-4.76.89-9.48.17-2.25.35-4.36.4-4.71.18-1.39.45-4.54.71-8.32.17-2.5.87-9.54,1.06-10.57,0-.27.19-2,.31-3.81.38-5.67,1-12.86,1.51-18.71.17-1.83.41-4.48.53-5.89s.28-3.13.35-3.81.21-2.78.31-4.65.2-3.57.23-3.77.22-2.59.44-5.31c.44-5.43.68-7.8.89-8.81a4.18,4.18,0,0,0,.1-1.11,12.37,12.37,0,0,1,0-1.43c.16-2,.27-3.94.48-8.19.31-6,.47-8.57.62-9.57.22-1.45.39-3,.58-5.07.09-1.1.23-2.28.3-2.61a79.15,79.15,0,0,0,.59-10.26c0-2.1.08-4.32.08-4.94v-1.13h-.48l-.25,2.32c-.14,1.28-.35,3.25-.46,4.37a97.17,97.17,0,0,1-1.46,10.5c-.81,4.28-1.18,7.47-2.17,18.65-.22,2.48-.46,5-.53,5.54-.25,2-.58,5.2-.71,7-.08,1-.26,2.92-.4,4.21s-.35,3.16-.45,4.16c-.35,3.47-.78,6.86-1.78,13.78-.34,2.33-.9,5.76-1.53,9.26-.5,2.81-.83,5-1.07,7.17-.21,1.9-1.57,12.94-2.13,17.28-.26,2.07-.62,4.9-.8,6.28-.32,2.54-.4,3.16-1.18,8.43-.25,1.63-.63,4.68-.85,6.78-1.75,16.41-2.71,22.68-5.14,33.67-2.06,9.29-3.15,13.77-6.73,27.64-.9,3.51-1.8,7.12-2,8-.62,2.86-1.15,5.55-1.66,8.28-.85,4.65-1.61,8.36-2.17,10.57a23.91,23.91,0,0,0-.51,2.38c.06.46.34.56,1.9.65a17.26,17.26,0,0,1,1.77.18c.19.05.83.15,1.41.22a7.76,7.76,0,0,1,1.41.27,5.08,5.08,0,0,0,.8.23c.25,0,.73.16,1.07.25a5.39,5.39,0,0,0,2.52,0Zm8.3-4.51a36.75,36.75,0,0,1,5.27-.31c2.22,0,2.14.05,2.73-1.64.16-.43.72-2.41,1.25-4.38.78-2.92,1.07-4.18,1.54-6.74.72-3.86,1.08-6.1,1.61-9.87.22-1.61.62-4.22.88-5.81.49-2.93.94-6.37,1.1-8.29.1-1.11.38-3.42,1-8,.19-1.51.62-5.36.94-8.55s.73-7.28.92-9.08c.4-3.73.85-8.94,1-11.32.18-3.37.36-11.69.57-26.51.08-5,.2-10.33.27-11.79s.19-4.65.27-7.09.18-5.62.23-7.08c.15-3.81.14-32.8,0-35.44-.07-1.29-.13-6.78-.18-16,0-7.75-.11-15.28-.16-16.75s-.13-3.6-.16-4.76l0-2.1H729c-.24,0-.26,0-.26.37,0,1.27-1,10.4-1.23,11.82,0,.24-.13,1.23-.18,2.2s-.13,2.22-.18,2.75-.17,2.51-.27,4.39c-.21,4-.52,8.46-.83,11.83-.41,4.35-.89,10.46-1.29,16.39-.15,2.14-.33,4.41-.4,5.05s-.21,2.32-.31,3.76-.26,3.49-.36,4.57-.25,2.86-.35,4-.25,2.9-.35,3.94-.36,4.26-.58,7.14c-.47,6.06-.78,9.71-1,12-.44,4.1-1.45,15.17-1.56,17.14a10.39,10.39,0,0,1-.18,1.52,7.51,7.51,0,0,0-.12,1.42c0,1.21-.5,6.78-1,11.46-.12,1.07-.32,2.93-.44,4.12s-.3,2.93-.4,3.85-.31,3.48-.49,5.67c-.79,9.91-1.45,16.91-2.21,23.17-.17,1.39-.43,3.67-.58,5.05-.27,2.52-.46,3.9-1,7.19-.15.95-.35,2.45-.45,3.32s-.25,2.07-.35,2.65-.23,1.54-.31,2.13-.3,2-.5,3.23-.49,3.07-.65,4.17c-.33,2.18-.5,3.15-1.34,7.7-.61,3.3-1.19,6.74-1.19,7.09a.69.69,0,0,0,.67.62,7.82,7.82,0,0,0,1-.13Zm16.62-18.12c.36-.09,1.23-.25,1.93-.35a16.61,16.61,0,0,0,5.92-1.75c1.31-.7,1.29-.66,1.23-2.33a13.11,13.11,0,0,0-.36-2.88c-.17-.83-.37-2.12-.45-2.88s-.22-1.87-.32-2.48a4,4,0,0,1-.09-1.68c0-.32.14-1.34.19-2.26a67,67,0,0,1,.74-7.36,49.56,49.56,0,0,0,.45-5.13c.42-7.32,1.24-20.14,1.42-22.33.17-2,.54-5.57.71-6.74.07-.48.19-1.66.26-2.61s.18-1.95.23-2.21.16-1.63.26-3a28.33,28.33,0,0,1,.32-2.91,5.73,5.73,0,0,0,.12-1.31c0-.5.14-2.86.31-5.23.8-11.11.85-12.08.94-15.75.15-7.21.07-16.05-.22-23.62-.31-7.93-.42-9.88-.85-15-.1-1.17-.38-4.7-.62-7.84-.57-7.46-.63-8.07-1.2-13-.26-2.3-.62-5.62-.79-7.4-.6-6.15-1.25-11.9-1.78-15.84-.12-.89-.31-2.34-.43-3.23s-.36-2.8-.54-4.23c-.32-2.72-.65-4.93-.91-6.18-.13-.66-.16-.74-.34-.74a.35.35,0,0,0-.26.09c0,.05,0,2.5,0,5.43s.18,11.3.27,18.58.23,16,.29,19.36c.15,8.09.15,31.07,0,35.8-.06,1.95-.15,5-.2,6.82s-.13,3.86-.18,4.56c-.19,2.8-.28,7.39-.53,26.54-.12,9.47-.26,13.72-.58,18.16-.24,3.42-.74,8.94-.87,9.66-.07.39-.2,1.65-.27,2.79s-.28,3.32-.45,4.83-.41,3.78-.53,5.05c-.26,2.66-.47,4.47-.84,7.09-.14,1-.32,2.48-.4,3.23s-.19,1.79-.26,2.3-.18,1.39-.23,1.95-.19,1.66-.31,2.44-.44,2.93-.71,4.78-.66,4.57-.88,6c-.36,2.44-.38,2.67-.25,2.81s.24.2,1,0ZM511.36,289.92c.11-.17-.95-1.38-1.94-2.23a14.75,14.75,0,0,1-3-3.71,19.92,19.92,0,0,1-2.21-6.46,12.14,12.14,0,0,1-.2-2.84,7.48,7.48,0,0,1,.61-3.79,14.53,14.53,0,0,1,1.81-2.77c.66-.79.94-1,1.26-1.11a2.81,2.81,0,0,0,.77-.44,13,13,0,0,1,1.17-.73,4.64,4.64,0,0,1,1.9-.55,14.18,14.18,0,0,0,1.67-.33,2,2,0,0,1,.77-.08,2.26,2.26,0,0,0,.73,0,2.82,2.82,0,0,1,1.13,0c.41.07,1.09.15,1.5.18a1.88,1.88,0,0,1,1.26.39c.27.19.91.68,1.41,1.1,2.32,1.94,2.83,1.92,1.69,0a10.6,10.6,0,0,0-5.07-4.44,7.42,7.42,0,0,0-3.47-.59,5.76,5.76,0,0,0-2.31.14c-.3.1-.87.26-1.26.37a14.79,14.79,0,0,0-2.08.86,5.73,5.73,0,0,0-2.09,1.39,17.12,17.12,0,0,0-3.35,5.5c-.18.49-.44,1.19-.58,1.55a11,11,0,0,0-.36,4.21,19.4,19.4,0,0,0,2.71,8.11,13.08,13.08,0,0,0,3.76,4.17,7.4,7.4,0,0,1,1.25,1.05c.6.63.71.71,1.15.8a5.74,5.74,0,0,1,.74.22c.33.15.55.17.62.05ZM514,269.58c2.77-.39,2.6-.35,2.6-.61s-.67-.62-1.23-.55a16.64,16.64,0,0,0-3.21.71c-.75.26-.83.31-.86.53s0,.31,2.7-.08ZM685,260a2.4,2.4,0,0,1,1.21,0,.9.9,0,0,0,.73,0,4.12,4.12,0,0,0,1.58-2.17,1,1,0,0,0-.85-.86,5.78,5.78,0,0,1-1-.36,2.91,2.91,0,0,0-.83-.3,2.82,2.82,0,0,1-1.09-.49,3.82,3.82,0,0,0-.78-.39,7.15,7.15,0,0,1-3.19-3.05c-2-3.25-3.06-7-3.56-12.28l-.2-2,.34-1.4a17.59,17.59,0,0,1,1.32-4c1.57-3.13,3.67-5.57,5.74-6.67.41-.21,1-.54,1.24-.72.76-.51,1.12-.57,3.79-.56a14.27,14.27,0,0,1,6.2,1c.95.37,1.55.79,3.45,2.43a2.57,2.57,0,0,0,.75.53c.2-.06.15-.38-.11-.9a2.64,2.64,0,0,1-.27-.64,8.65,8.65,0,0,0-.78-1.69,7.61,7.61,0,0,1-.42-.69,3.59,3.59,0,0,0-1.19-1.4,11.05,11.05,0,0,0-4.51-1.82,31.58,31.58,0,0,0-5.18-.19,5.42,5.42,0,0,0-2.45,1l-1.15.81a17.75,17.75,0,0,0-3.15,3,18.59,18.59,0,0,0-4.57,8.76c-.15.64-.34,1.38-.44,1.63a18.76,18.76,0,0,0-.46,2,13.31,13.31,0,0,0-.28,3.34c0,2.85.24,4.13,1.55,8.41a30.45,30.45,0,0,0,1.64,4.64c1.07,2.14,3.68,4.72,5.26,5.21A3.39,3.39,0,0,0,685,260Zm-.34-24.75c1.08-.24,2.91-.61,4.08-.84a54.51,54.51,0,0,0,8.54-2,.5.5,0,0,0,.2-.82,9.58,9.58,0,0,0-2.23-2,10.16,10.16,0,0,1-1-.63,5,5,0,0,0-3.44-.87,7.67,7.67,0,0,0-4.45,1.11,13,13,0,0,0-3,3.11,15.84,15.84,0,0,0-1.56,2.94.68.68,0,0,0,.18.33c.22.24,0,.26,2.69-.32ZM448.86,210.6c0-.21,0-.24.24-.24s.22,0,.09.09a.91.91,0,0,0-.24.24c-.08.13-.09.12-.09-.09Zm299.76,0-.2-.21h.22c.17,0,.22,0,.22.22s0,.26-.24,0Zm0,0" transform="translate(-448.86 -210.36)"/><path class="cls-1" d="M565.15,401.46a5.37,5.37,0,0,1-2-2.23,22,22,0,0,0-1.43-2.09c-1.19-1.47-1.45-2.3-.87-2.82a.68.68,0,0,1,.73-.2,4,4,0,0,1,2.34,1.36c.79.79,1,.88,1.33.53.1-.11.63-.81,1.18-1.57s1.32-1.79,1.72-2.3a16.75,16.75,0,0,0,1.05-1.51,8.61,8.61,0,0,1,.9-1.22c.32-.35.74-.86.93-1.12a5.63,5.63,0,0,1,.88-.88,4.87,4.87,0,0,0,.86-.9,41.28,41.28,0,0,1,4.27-4c1.85-1.59,2.62-2.06,3.54-2.15a1.59,1.59,0,0,1,1.09.21c.81.37,1,.62,1,1.21s-.25.94-1.69,2A52.66,52.66,0,0,0,574.1,390a63.12,63.12,0,0,0-4.68,6.39c-.19.35-.65,1.15-1,1.79s-.83,1.45-1,1.81a3,3,0,0,1-1.15,1.46.94.94,0,0,1-1.08.06Z" transform="translate(-448.86 -210.36)"/><path class="cls-1" d="M538.11,397.7a5.32,5.32,0,0,1-2-2.22,22.19,22.19,0,0,0-1.44-2.1c-1.19-1.46-1.44-2.29-.87-2.81a.71.71,0,0,1,.73-.21,4.15,4.15,0,0,1,2.34,1.36c.79.8,1,.89,1.34.54.1-.11.63-.82,1.17-1.57s1.33-1.8,1.73-2.31a16.39,16.39,0,0,0,1-1.5,8.07,8.07,0,0,1,.9-1.22c.32-.35.74-.86.93-1.12a5.23,5.23,0,0,1,.88-.88,5.2,5.2,0,0,0,.86-.9,41.28,41.28,0,0,1,4.27-4c1.85-1.59,2.62-2.06,3.54-2.16a1.71,1.71,0,0,1,1.09.21c.81.37,1,.63,1,1.21s-.25.94-1.68,2a52.18,52.18,0,0,0-6.93,6.13,63.13,63.13,0,0,0-4.68,6.4l-1,1.78c-.38.64-.84,1.46-1,1.82a3,3,0,0,1-1.15,1.46.94.94,0,0,1-1.08.05Z" transform="translate(-448.86 -210.36)"/><path class="cls-1" d="M508.76,401.08a5.36,5.36,0,0,1-2-2.23,21.94,21.94,0,0,0-1.44-2.09c-1.19-1.47-1.44-2.3-.87-2.82a.69.69,0,0,1,.73-.2,4.09,4.09,0,0,1,2.35,1.36c.78.79,1,.88,1.33.53.1-.11.63-.81,1.18-1.57s1.32-1.79,1.72-2.3a13.55,13.55,0,0,0,1-1.51,8.61,8.61,0,0,1,.9-1.22c.32-.35.74-.85.94-1.12a5.56,5.56,0,0,1,.87-.88,4.56,4.56,0,0,0,.86-.9,41.28,41.28,0,0,1,4.27-4c1.85-1.59,2.62-2.06,3.55-2.15a1.56,1.56,0,0,1,1.08.21c.81.37,1,.62,1,1.21s-.24.94-1.68,2a52.17,52.17,0,0,0-6.93,6.14A62,62,0,0,0,513,396l-1,1.78c-.38.64-.84,1.45-1,1.81a2.9,2.9,0,0,1-1.15,1.46.94.94,0,0,1-1.08.06Z" transform="translate(-448.86 -210.36)"/></svg>