<svg id="Layer_1" data-name="Layer 1" xmlns="http://www.w3.org/2000/svg" viewBox="0 0 300 209.27"><defs><style>.cls-1{fill:#231f20;}.cls-2{fill:#e67e22;}</style></defs><path class="cls-1" d="M576.31,293.34c.13,1.17.27,3,.31,3.94.1,2.11.3,4.66.5,6.12a43,43,0,0,1,.38,5.4c.17,5.2.31,6.55.81,7.6a4,4,0,0,0,2.19,1.94,1,1,0,0,0,.87,0,1.76,1.76,0,0,0,1-1.13,3.52,3.52,0,0,0-.29-2.3l-.3-.91-.09-2.58a24,24,0,0,0-.26-3.4c-.49-2.38-1.41-13.92-1.69-21.22-.08-2.11-.12-2.57-.25-2.79a4.45,4.45,0,0,0-2.6-1.26c-.39,0-.43,0-.74.28l-.33.32.06,2.37C575.93,288.89,576.05,290.78,576.31,293.34Z" transform="translate(-448.86 -245.81)"/><path class="cls-1" d="M551.37,312.44a15.27,15.27,0,0,0,2,3.91,23.12,23.12,0,0,0,1.71,1.94,5.85,5.85,0,0,0,2.15,1.57,10.65,10.65,0,0,0,1.68.68,11.57,11.57,0,0,0,3.57-.08,18.26,18.26,0,0,0,6.65-4.23,4.7,4.7,0,0,0,1.3-2.16c1-2.32,1.16-3.48,1.32-8,.13-3.62.08-4.05-.68-5.35a6.23,6.23,0,0,0-2.62-2.71,8.41,8.41,0,0,0-2.86-.49,3.85,3.85,0,0,0-1.64.23c-3,1.08-3.87,1.85-3.29,3a3.87,3.87,0,0,0,2.42,1.69c.34,0,.54-.12,1.21-.72a5.28,5.28,0,0,1,2.33-1.18,1.88,1.88,0,0,1,.89.88c.39.77.43,5,.06,7.23a15.6,15.6,0,0,1-1.62,5.25,16.27,16.27,0,0,1-3.48,2.67c-1.9,1.08-2.49,1.25-3.31.94-1.67-.63-3.45-3-4-5.37-.69-2.84-1.12-4.79-1.2-5.49a98.18,98.18,0,0,1,.18-11.43,20.62,20.62,0,0,1,1.89-8,9.36,9.36,0,0,1,3.73-3.55,5.36,5.36,0,0,1,2.54-.67,2,2,0,0,1,1.75.61,4.61,4.61,0,0,1,1.1,2.18,9.26,9.26,0,0,0,.4,1.18,4.57,4.57,0,0,0,1.54,1.52c.39.21.44.22.66.09,1.64-.92.21-5.3-2.36-7.22a8.24,8.24,0,0,0-4.66-1.58,6.57,6.57,0,0,0-3.45,1.05,10.56,10.56,0,0,0-3.46,2.68c-1.77,1.94-2.23,3.08-3,7.46-.73,4-1,13.58-.4,16.88C550.51,308.79,551.1,311.45,551.37,312.44Z" transform="translate(-448.86 -245.81)"/><path class="cls-1" d="M589.24,296.66c.17,2.9.24,3.35.7,4.61a9.69,9.69,0,0,1,.36,1.6c.15,1,.5,2.81,1,5.18a69.72,69.72,0,0,1,1.13,7,2.83,2.83,0,0,0,.37,1.6c.56,1,.76,1.21,1.48,1.38a3.9,3.9,0,0,0,1.86,0c1.37-.32,1.52-1.5.52-4a30.16,30.16,0,0,1-1.15-4.47c-.95-4.37-1.35-6.34-1.42-7-.09-.83-.12-.81,2.85-1.47a52,52,0,0,1,6.22-1.18c1.12-.09,1.59-.32,1.88-.92a1.44,1.44,0,0,0-.42-1.83,3.54,3.54,0,0,0-3.51-.59c-1,.29-6,1.36-6.77,1.44s-.94-.1-1.08-.6a78.36,78.36,0,0,1-.76-9.78,5.5,5.5,0,0,1,1.17-3.62c.51-.52.8-.61,1.8-.54s4.2.51,5.14.7c1.16.25,1.73.14,2-.39s-.22-1.56-1-2.14a6.64,6.64,0,0,0-2.9-.87c-.87-.16-2.15-.42-2.83-.58a10.79,10.79,0,0,0-3.17-.45,6.08,6.08,0,0,0-2.57,1.62,8.26,8.26,0,0,0-1.24,3.1,8,8,0,0,0-.28,3,41.2,41.2,0,0,0,.24,4.43C589,293.29,589.17,295.42,589.24,296.66Z" transform="translate(-448.86 -245.81)"/><path class="cls-1" d="M748.76,454.75a.91.91,0,0,1-.24.24c-.13.07-.11.09.09.09s.25,0,.24-.24S748.84,454.62,748.76,454.75Z" transform="translate(-448.86 -245.81)"/><path class="cls-1" d="M530.9,354.34c-.3,1.58-.59,2.93-.64,3a.3.3,0,0,1-.51-.08c0-.11-.19-.62-.32-1.12s-.42-1.45-.66-2.1c-.41-1.1-.57-1.61-1.37-4.29-.72-2.44-1.42-4.52-1.79-5.36a16.24,16.24,0,0,1-.73-2.12,44.25,44.25,0,0,0-2-5.5c-1-2.35-1.69-3.91-2.27-5.36-.9-2.27-1.22-2.89-1.79-3.46a3.67,3.67,0,0,0-2.31-1l-.8-.16-.28.27a.53.53,0,0,0-.22.59,22.61,22.61,0,0,0,1.31,3.17,114.17,114.17,0,0,1,4,10.72,92.6,92.6,0,0,1,3,10.1,15.23,15.23,0,0,0,.54,1.86,13.55,13.55,0,0,1,.57,2c.14.69.32,1.42.4,1.64s.29,1,.49,1.71.49,1.74.66,2.22l.62,1.93a5.08,5.08,0,0,0,1.54,2.57,4,4,0,0,0,1.65,1,2.41,2.41,0,0,0,1.61,0,2.72,2.72,0,0,1,.76-.18,1.86,1.86,0,0,0,1.72-1.08,9.85,9.85,0,0,0,.51-3.17,35,35,0,0,1,.63-5c.17-.87.42-2.33.57-3.25s.3-1.85.35-2.06.27-1.48.49-2.82.48-2.84.57-3.32.32-1.87.49-3.06c.33-2.22.76-4.71,1-5.58.07-.27.22-1.07.35-1.78.25-1.45.89-4.15,1.35-5.66a14.63,14.63,0,0,0,.8-3.65,2.22,2.22,0,0,0-1.1-1.57,2.35,2.35,0,0,0-2.37-.59c-.39.19-.55.51-.67,1.34-.05.39-.36,1.65-.68,2.79s-.72,2.57-.88,3.18c-.37,1.37-1.95,9.2-2.38,11.79-.18,1-.42,2.32-.53,2.83s-.38,1.81-.58,2.88-.42,2.17-.49,2.44S531.2,352.76,530.9,354.34Z" transform="translate(-448.86 -245.81)"/><path class="cls-1" d="M512.65,299.45a14.92,14.92,0,0,1,2.62,2.64c.23.45.19.64-1.38,6a11.76,11.76,0,0,0-.52,3.3,1.75,1.75,0,0,0,1,1.51c.93.49,1.32.27,3.56-2.08,2.54-2.67,2.7-2.81,2.93-2.81s1.07.55,2.77,2.25a17,17,0,0,0,2.2,2,1.69,1.69,0,0,0,2.72-1,5.16,5.16,0,0,0-.39-2.43l-.57-1.1a28.49,28.49,0,0,1-1-2.71c-.58-1.72-.67-2.06-.59-2.26s.46-.63,2.18-2.1a12.11,12.11,0,0,0,2.31-2.4c.54-.7,1-1.38,1.12-1.5a1.79,1.79,0,0,0,.22-1.31,2.1,2.1,0,0,0-1.19-1.15,7.73,7.73,0,0,0-2.82.07c-1.3.2-3.25.44-3.6.44-.57,0-.73-.35-1.5-3.36a6.34,6.34,0,0,0-1.15-2.34,1.34,1.34,0,0,0-1.74.22,15.4,15.4,0,0,0-1.44,3.14l-.59,1.61a2.75,2.75,0,0,1-1,1.27,6.42,6.42,0,0,1-3.15,0,14,14,0,0,0-2-.2c-.8,0-.88,0-1.1.23a1.45,1.45,0,0,0-.25,1.88A8.09,8.09,0,0,0,512.65,299.45Z" transform="translate(-448.86 -245.81)"/><path class="cls-1" d="M542.1,356c.12.38.32,1.13.45,1.66a12.24,12.24,0,0,0,.57,1.77c.19.44.43,1,.53,1.31a6.71,6.71,0,0,0,1.86,2.65,18.67,18.67,0,0,0,4.09,3,12.55,12.55,0,0,0,2.48,1.11,4.83,4.83,0,0,0,2-.24,7.26,7.26,0,0,0,3.8-2.59c.36-.49.88-1.14,1.15-1.47a10,10,0,0,0,1.56-2.87,25.11,25.11,0,0,0,1.46-4.16c.75-2.93.78-3.34.88-11.3l.08-6.42-.4-1.37c-1-3.62-2-5.93-2.77-7a12.48,12.48,0,0,1-.8-1.16,4.68,4.68,0,0,0-1.76-1.75,6.08,6.08,0,0,0-1.23-.41c-.43-.1-1.12-.3-1.54-.44a9.72,9.72,0,0,0-3.44-.51c-1.25.06-1.77.33-3.1,1.61-2,1.94-3.35,4.3-4.57,8.15-.28.88-.6,1.84-.72,2.13a31.16,31.16,0,0,0-1,4.21,49,49,0,0,0-.07,11.41A18,18,0,0,0,542.1,356Zm4.36-14.89a71.81,71.81,0,0,1,2.26-7c.77-2,2.19-3.9,3.28-4.41a3.79,3.79,0,0,1,2.49-.25c.43.18.82.62,1.45,1.67a17.94,17.94,0,0,1,2.61,6.8c.14,1.64-.06,11.8-.28,14.06a20.52,20.52,0,0,1-1.67,5.79c-1.16,2.59-2.91,5-4.09,5.59a1.85,1.85,0,0,1-.64.17,7,7,0,0,1-3-1.89c-.89-.95-1.45-2.27-2.09-4.93A41.41,41.41,0,0,1,546.46,341.11Z" transform="translate(-448.86 -245.81)"/><path class="cls-1" d="M629.05,323c-.17.38-.17.43,0,1.39.09.58.16,2,.19,3.47s.09,3.14.14,3.94c.1,1.74.44,9.75.44,10.47a1,1,0,0,1-.21.75c-.19.22-.27.24-1.26.31a22.4,22.4,0,0,0-3.76.61c-.61.14-1.33.28-1.61.31-.46.06-.51,0-.77-.19s-.41-.34-.72-7.05c-.1-2-.22-5.21-.27-7.08a20.36,20.36,0,0,0-.22-3.63,5.42,5.42,0,0,0-2.43-1.67c-.62-.21-.91-.19-1.22.1s-.33.66-.17,1.78c.3,2.11.5,6.9.72,17.16.3,13.82.47,18.69.72,19.76.07.32.23,1,.34,1.52a3.62,3.62,0,0,0,1.67,2.73,1.23,1.23,0,0,0,1.35.1,2.42,2.42,0,0,0,.85-.88,17.62,17.62,0,0,0,0-3.48,19,19,0,0,1-.09-2.07,10.84,10.84,0,0,0-.07-1.6c-.23-1.12-.62-7.2-.62-9.58,0-1.21,0-1.27.22-1.52a1.83,1.83,0,0,1,.59-.41c.44-.17,4.91-1.07,5.76-1.16.56-.06.6,0,.86.19a1.15,1.15,0,0,1,.36.71c.12.64.25,3,.45,8.36s.33,7.62.46,8.11a4.55,4.55,0,0,0,1,1.89,2.75,2.75,0,0,0,1.73.75,2.26,2.26,0,0,0,1.74-1.24,1.63,1.63,0,0,0,.17-1.18c0-.39-.13-1.08-.22-1.54a68.07,68.07,0,0,1-.94-8.25c-.07-1.12-.19-2.87-.26-3.9s-.21-4.19-.31-7-.2-5.24-.22-5.32-.08-1.65-.14-3.5c-.23-8.16-.31-9.78-.54-10.79-.08-.36-.19-.5-.76-1a2.85,2.85,0,0,0-1.76-1A.92.92,0,0,0,629.05,323Z" transform="translate(-448.86 -245.81)"/><path class="cls-1" d="M448.86,246.05c0,.21,0,.22.09.09a.91.91,0,0,1,.24-.24c.13-.07.11-.09-.09-.09S448.85,245.84,448.86,246.05Z" transform="translate(-448.86 -245.81)"/><path class="cls-1" d="M701.27,302.45c1,.92,1.23,1,2.31.34a13,13,0,0,1,1.45-.72,10.8,10.8,0,0,1,3.18-.59c.67.09,1.08.59,1.56,1.9a7.59,7.59,0,0,0,.59,1.21,6.82,6.82,0,0,0,1.71,1.65h0c.69.37,1.26.08,1.79-.91a1.29,1.29,0,0,0,.23-1,7.94,7.94,0,0,0-.41-1.4c-.47-1.26-.47-1.65,0-1.89a2.13,2.13,0,0,1,1.46,0,1.55,1.55,0,0,0,1.41-.08,1.91,1.91,0,0,0,.45-2.9,8.82,8.82,0,0,0-2.57-1.79,2.84,2.84,0,0,1-1.55-1.46,23.75,23.75,0,0,1-.33-3.74,13.73,13.73,0,0,1,.09-2.64l.14-1-.31-.68a4.91,4.91,0,0,0-1.11-1.79c-.85-.88-1.94-1.22-2.51-.78a17.49,17.49,0,0,0-1.42,2.55c-.66,1.3-1.31,2.49-1.45,2.66-.33.4-.6.34-1-.24a4,4,0,0,0-2.59-1.7c-1.34,0-1.49,1.63-.3,3.18a12.49,12.49,0,0,1,.74,1.08c.76,1.34.77,1.35.72,1.72a31,31,0,0,1-2.8,5.36,1.82,1.82,0,0,0-.51,1.61A2.79,2.79,0,0,0,701.27,302.45Z" transform="translate(-448.86 -245.81)"/><path class="cls-1" d="M449.19,455a.91.91,0,0,1-.24-.24c-.08-.13-.09-.12-.09.09s0,.24.24.24S449.32,455.06,449.19,455Z" transform="translate(-448.86 -245.81)"/><path class="cls-1" d="M666.48,323a24.17,24.17,0,0,0-4.66-.31c-.49,0-1.15.07-1.44.07-.64,0-.87.18-1,.67a5.93,5.93,0,0,0,.14,2.5,100.86,100.86,0,0,1,1.19,11.27c0,1,.13,4.9.17,8.59s.1,6.75.12,6.78.21,2.79.37,6.45c.14,3.09.22,3.76.51,4.33a4.33,4.33,0,0,0,1.64,1.56,1.08,1.08,0,0,0,.82-.05,1.92,1.92,0,0,0,1.38-2c0-.17-.09-1.24-.14-2.37s-.15-2.33-.21-2.66a65.8,65.8,0,0,1-.56-9.32c-.06-3.87-.06-3.85.5-4.25s.84-.22,1.19.38c.12.21.88,2,1.68,4s1.79,4.42,2.19,5.39.79,2,.86,2.25a17.43,17.43,0,0,0,.91,2c.43.83,1,2,1.24,2.58a28.34,28.34,0,0,0,2.32,4.42,4,4,0,0,0,.77.68,1.52,1.52,0,0,0,.69.26,2.77,2.77,0,0,0,1.81-1.13c.37-.6.07-1.52-1.05-3.27a36.31,36.31,0,0,1-2.46-4.58c-.26-.6-.63-1.41-.83-1.82a19.61,19.61,0,0,1-.85-2.12,32.64,32.64,0,0,0-1.77-4.36c-.41-.85-.79-1.71-.85-1.91s-.36-1-.67-1.77c-.93-2.36-1.1-3.45-.68-4.39a15.26,15.26,0,0,1,.93-1.46l1.18-1.65a16.93,16.93,0,0,0,1.7-3.88,10.18,10.18,0,0,0,.16-3.91C673.18,327,669.66,323.59,666.48,323Zm2.41,11.87a18.24,18.24,0,0,1-3.27,3.49,3.05,3.05,0,0,1-.76.5c-.32,0-.47-.23-.5-.76-.12-1.84-.32-4-.47-5-.22-1.47-.43-3.57-.5-5.06l-.06-1.16.24-.25.24-.24,1.39,0c2.14.08,3,.41,4.24,1.62.92.9,1.23,1.5,1.14,2.19A12.51,12.51,0,0,1,668.89,334.85Z" transform="translate(-448.86 -245.81)"/><path class="cls-1" d="M659.1,303.26c1.47.23,1.42.14,1.4,2.63v2l.24.42a1.83,1.83,0,0,0,.7.68,1.24,1.24,0,0,0,1.5,0c.49-.31,1-1,1.89-2.62.75-1.35,1-1.64,1.38-1.64a7.16,7.16,0,0,1,1.25.36,3.47,3.47,0,0,0,2.54.22c1-.31,1.14-.77.5-1.66-1.58-2.23-1.72-2.5-1.51-2.91a10.31,10.31,0,0,1,1.4-1.27c.69-.56,1.37-1.12,1.49-1.26a3.61,3.61,0,0,0,.88-1.32c0-.48-1.21-1.08-2-1-.56.07-.88.29-2.14,1.45s-1.37,1.23-1.74,1.08a7.71,7.71,0,0,1-1.8-2.23,5.38,5.38,0,0,1-.94-2.08,2.18,2.18,0,0,0-.95-1.54c-.39-.26-.44-.27-1.07-.21s-1.1.21-1.26.51a24.84,24.84,0,0,0-.09,3.69c0,2,0,3.66-.07,3.86-.14.61-.46.69-1.57.43-1.9-.44-3.1.45-2.06,1.53A3.28,3.28,0,0,0,659.1,303.26Z" transform="translate(-448.86 -245.81)"/><path class="cls-1" d="M748.86,246c0-.18-.05-.22-.22-.22h-.22l.2.21C748.87,246.29,748.86,246.29,748.86,246Z" transform="translate(-448.86 -245.81)"/><path class="cls-1" d="M603,324.76a13.52,13.52,0,0,0-4.11,3.41A28,28,0,0,0,594.3,338c-.17.87-.63,4.42-.76,5.8a60.29,60.29,0,0,0,.1,12,18.48,18.48,0,0,0,1.36,3.69,8.66,8.66,0,0,1,.48,1,3,3,0,0,0,.48.74,11.28,11.28,0,0,1,.78,1,30.7,30.7,0,0,0,3.72,3.66,7.27,7.27,0,0,0,2.33,1.09,8.34,8.34,0,0,1,1.1.36c.6.25,1,.23,2.45-.15,2.85-.73,4.46-1.95,6.93-5.23,1.68-2.22,2.2-3.93,1.7-5.54a2.12,2.12,0,0,0-.68-1.1,2.36,2.36,0,0,0-1.11-.69,5.08,5.08,0,0,0-.71-.2c-.28,0-.58.38-.78,1a18.25,18.25,0,0,1-1.54,3.47,14.84,14.84,0,0,1-4.44,4,3.72,3.72,0,0,1-3.45-.28,7.6,7.6,0,0,1-1-.77c-2.08-1.9-3.41-5.22-3.69-9.16-.11-1.64-.05-6.32.1-8,0-.54.21-1.57.35-2.3s.31-1.69.36-2.13a17.87,17.87,0,0,1,1.8-5.77,12.91,12.91,0,0,1,2.65-4.13,10.34,10.34,0,0,1,2.52-2c.59-.31.9-.37,1.18-.21a5.06,5.06,0,0,1,.74.81,10.5,10.5,0,0,0,1,1.15c.68.65,1.08.67,1.7.11,1.08-1,.41-2.88-1.53-4.34a9.09,9.09,0,0,0-3.26-1.51A2.93,2.93,0,0,0,603,324.76Z" transform="translate(-448.86 -245.81)"/><path class="cls-1" d="M613.56,285.32c3.24-.51,3.63-.55,3.87-.39a1.11,1.11,0,0,1,.29.28,55.56,55.56,0,0,1,.41,5.56c.07,1.37.15,2.58.18,2.7s.08,2.5.13,5.28.12,5.57.17,6.2c.38,5.38.74,9.69.85,10.31a6.33,6.33,0,0,0,.64,1.94,5.09,5.09,0,0,0,1.37,1,2.61,2.61,0,0,0,.69.09,1.79,1.79,0,0,0,1.49-.71c.19-.28.2-.37.17-1.24a11.72,11.72,0,0,0-.37-2.27,52.52,52.52,0,0,1-.94-6.85c0-.71-.12-3.36-.17-5.89s-.14-5.07-.19-5.63c-.31-3.74-.55-8.9-.47-10.21s0-1.39,2.29-1.69a31.44,31.44,0,0,1,4.82-.42,9.39,9.39,0,0,0,1.51-.08,2.29,2.29,0,0,0,1.15-.84c.42-.62.2-1.24-.69-2a2.76,2.76,0,0,0-1.67-.87c-.61,0-14.55,1.88-16.1,2.23a12.38,12.38,0,0,1-2.88.25c-2,0-2.37.1-2.72.43s-.08,1.58.83,2.56S609.3,286,613.56,285.32Z" transform="translate(-448.86 -245.81)"/><path class="cls-1" d="M639.61,341.23c.14,3.59.26,5.75.42,7,.1.83.15,2.46.2,6.47.06,6,0,5.54.76,7.12a11.16,11.16,0,0,0,1.8,2.57,2.71,2.71,0,0,0,1.32.76,3.82,3.82,0,0,0,1.82-.08,26.5,26.5,0,0,0,4.05-1.58l2.84-1.48c2.29-1.18,2.7-1.44,3-1.9a1.9,1.9,0,0,0,.09-1.52,3.17,3.17,0,0,0-1.34-1.34c-.88-.51-1.56-.35-3.09.7a49.37,49.37,0,0,1-5.31,2.65c-.52.1-.76-.17-1.13-1.26-.31-.93-.67-4.64-1.24-12.88-.12-1.78-.25-3.46-.28-3.73,0-.44,0-.52.18-.76.49-.59,3.8-1.67,5.75-1.89a2.86,2.86,0,0,0,2-.86c.65-.62.63-.88-.12-1.83a4.86,4.86,0,0,0-1.67-1.21c-.49-.15-.86-.09-3.58.59l-2.41.6-.22-.22c-.2-.2-.24-.39-.49-2.34a53.37,53.37,0,0,1-.59-5.85l-.06-1.51.24-.28c.47-.56,2.14-.85,4.84-.85a9.85,9.85,0,0,1,3.72.47,1.55,1.55,0,0,0,1,.09,2.05,2.05,0,0,0,.75-.45c.34-.31.37-.38.37-.78a1.2,1.2,0,0,0-.27-.82,5.73,5.73,0,0,0-2.92-1.9,30.14,30.14,0,0,0-7.49.1c-.46.07-1.38.17-2,.22a12.54,12.54,0,0,0-1.51.18,1.2,1.2,0,0,0-.85.89c-.05.3.36,4.54.67,6.94A96.22,96.22,0,0,1,639.61,341.23Z" transform="translate(-448.86 -245.81)"/><path class="cls-1" d="M571.43,332.19c.17-.88.4-2.19.5-2.92.22-1.52.2-1.64-.4-2.29a3.69,3.69,0,0,0-1.64-1c-.83-.31-1.19-.3-1.56.07s-.46.61-.52,1.76c0,.51-.15,1.49-.27,2.17-.68,3.81-.8,5.83-.8,13.16,0,8.5,0,8.58,1.72,13.74,1.35,4.09,1.69,4.78,3,6.06a7,7,0,0,0,2,1.49,9.9,9.9,0,0,0,3,1.23,6.59,6.59,0,0,1,.94.25,1.77,1.77,0,0,0,1.09,0l1-.22a6.65,6.65,0,0,0,1-.36,18.42,18.42,0,0,0,4.23-3.67c.5-.65,2-3,2.44-3.86.2-.39.54-1.12.75-1.64s.55-1.29.74-1.72a7.4,7.4,0,0,0,.72-2.93,21,21,0,0,1,.41-2.52c.41-1.88.45-2.73.27-6.34-.08-1.56-.18-4.29-.23-6.07a68,68,0,0,0-.4-7.15,18,18,0,0,0-1-3.24,3.55,3.55,0,0,0-1.27-1.39,5.13,5.13,0,0,0-1.74-.44,1.07,1.07,0,0,0-1,.54c-.12.24-.13.37,0,1a14.72,14.72,0,0,0,.4,1.69c.16.55.36,1.3.43,1.67.2.92.45,6.85.56,13.23a21.31,21.31,0,0,1-.14,4.58,24.2,24.2,0,0,1-1.91,7.22c-.26.54-.56,1.2-.66,1.48a18,18,0,0,1-3.24,4.54c-1.62,1.63-2.84,2-4,1.24a7.92,7.92,0,0,1-2.12-2.13,38.83,38.83,0,0,1-2.52-9.21c-.15-1.9-.21-10.06-.1-13.4A22.27,22.27,0,0,1,571.43,332.19Z" transform="translate(-448.86 -245.81)"/><path class="cls-1" d="M684.79,376.18c-1.42.07-1.39.08-2.38-.79a7.5,7.5,0,0,0-1.22-.86,1.4,1.4,0,0,0-1-.22,5.75,5.75,0,0,0-1.25.36,37.79,37.79,0,0,1-7.7,2.11c-1.67.18-2.57-.07-5-1.4s-3.27-1.6-5.08-1.52c-2,.1-3.55.53-7.71,2.19a29.75,29.75,0,0,1-5.78,1.91,21.72,21.72,0,0,1-7.68-.09c-.47-.12-1.68-.48-2.68-.8-3.49-1.13-4.62-1.34-6.56-1.25a49.79,49.79,0,0,0-8.68,1.38c-1.29.29-2.75.58-3.24.66a45.84,45.84,0,0,1-8.64.19,29.62,29.62,0,0,1-6.37-1.68,11.8,11.8,0,0,0-7.08-.73c-.6.13-1.36.34-1.68.45a6.3,6.3,0,0,1-.95.27c-.19,0-.69.16-1.11.28a29.46,29.46,0,0,1-8,.66,12,12,0,0,1-4.84-1.3,15.46,15.46,0,0,0-3.11-1.13,19.62,19.62,0,0,0-4.51-.16,16.64,16.64,0,0,0-3.59.6c-1.15.27-2.82.71-3.72,1a21,21,0,0,1-4.57.93,20.41,20.41,0,0,1-8-.9,11,11,0,0,0-4.93-.54,27.43,27.43,0,0,0-4,.71c-3.79.85-4.3.93-5.76.87a9.12,9.12,0,0,1-3.86-.84,11.06,11.06,0,0,0-4.36-1.22c-.22,0-.9.17-1.52.31s-1.42.3-1.78.35a5,5,0,0,0-1.21.31,19.58,19.58,0,0,1-5.26,1.12,6.64,6.64,0,0,1-3.58-.92c-.87-.66-1.55-.84-2-.53s-.4.53-.09,1.18a7,7,0,0,0,3.59,2.88,15.11,15.11,0,0,0,3.74.55,7.74,7.74,0,0,0,3.59-.55c.67-.22,2-.56,2.83-.76a9.65,9.65,0,0,1,4.26-.3,6.89,6.89,0,0,1,2.54,1c.83.44,3.9.7,6.32.53a9.29,9.29,0,0,0,3.23-.58,16.31,16.31,0,0,1,5.62-.93,6.6,6.6,0,0,1,3.47.75l1.12.5,4.41,0c4.77,0,4.56,0,6.38-.61a59.11,59.11,0,0,1,7.58-1.8,8.94,8.94,0,0,1,2.43,0c2.29.15,2.8.26,4.09.92a13,13,0,0,0,3.84,1.33,28.56,28.56,0,0,0,7.2.31,27.58,27.58,0,0,0,6.35-1.49,2.74,2.74,0,0,1,.8-.19,5.14,5.14,0,0,0,1-.19,3.82,3.82,0,0,1,1.48-.13,11.79,11.79,0,0,1,3.3.72l1.49.62c2.29,1,6,1.48,10.51,1.5A19.21,19.21,0,0,0,619,381c1.67-.28,3.5-.67,4.65-1a38,38,0,0,1,8.38-1.23,8.17,8.17,0,0,1,2.48.22,20,20,0,0,1,2.19.73,23.37,23.37,0,0,0,6.49,1.5c.19,0,1.25,0,2.35,0a11.6,11.6,0,0,0,3.05-.26,17.13,17.13,0,0,0,4.48-1.51,27.51,27.51,0,0,1,4.25-1.74,5.69,5.69,0,0,0,1-.32,10.41,10.41,0,0,1,4.85-.43,8,8,0,0,1,2.87,1.19,9.91,9.91,0,0,0,5.41,1.75,5.24,5.24,0,0,0,2.66-.45c.51-.18,1.47-.46,2.12-.63s1.5-.4,1.86-.53a11.76,11.76,0,0,1,2.43-.58,1.37,1.37,0,0,1,.73.31,4.72,4.72,0,0,0,2.48,1.11c.92.15,1.27,0,2.26-.76s1.25-1.35.87-1.83S686.15,376.11,684.79,376.18Z" transform="translate(-448.86 -245.81)"/><path class="cls-1" d="M715,346a2.22,2.22,0,0,0,.63-1.41.9.9,0,0,0-.32-.76,2.91,2.91,0,0,0-1.34-.89,2.64,2.64,0,0,1-.71-.21,5.24,5.24,0,0,0-2.65-.19,19.17,19.17,0,0,1-2.32.45l-2.24.36c-.18,0-.31,0-.53-.21l-.29-.26-.07-1.27a18.68,18.68,0,0,0-.25-2.17,27.43,27.43,0,0,1-.44-4,17.24,17.24,0,0,0-.23-2.08,2.77,2.77,0,0,0-1-1.52,10.4,10.4,0,0,0-2.38-.79c-1.09-.25-1.21-.13-1.65,1.62-.4,1.59-2.52,7.32-3.77,10.22-.64,1.47-.93,1.88-1.46,2-.2.06-1.73.11-4,.14-2,0-3.81.06-4,.08a.94.94,0,0,0-.74.72c0,.38.24.7,1.23,1.6a4.71,4.71,0,0,0,1.71,1.18c.4.16,1.32.58,2,.93,1.3.65,1.76,1,1.76,1.37a34.68,34.68,0,0,1-2.09,5.65,3.94,3.94,0,0,0-.39,1c0,.36.56.87,1.5,1.35a3,3,0,0,0,1.94.5,2.66,2.66,0,0,0,.78-.5A13.16,13.16,0,0,1,695,358c.36-.25.92-.66,1.24-.91s.81-.62,1.1-.82.76-.55,1-.77c.63-.53.89-.53,1.59-.06a28.73,28.73,0,0,1,2.89,2.36,12.27,12.27,0,0,0,3,2.14c.59.24.81.25,1.21.06a2.63,2.63,0,0,0,1.09-1.25c.1-.35,0-.64-.68-3a17.53,17.53,0,0,1-.55-2.23,9.36,9.36,0,0,0-.22-1.18,8.42,8.42,0,0,1-.35-2.19c.07-.28.44-.63,1.37-1.3a13.86,13.86,0,0,1,3.12-1.61c1.65-.69,1.65-.69,2.53-.69S714.57,346.46,715,346Z" transform="translate(-448.86 -245.81)"/><path class="cls-1" d="M497.58,340.65c-.27.58-.77,1.11-1,1.11s-.84-.69-1.21-1.38a7,7,0,0,0-2.36-2.72,2.31,2.31,0,0,0-1.2-.19c-1.7,0-2.52.35-2.52,1a14.43,14.43,0,0,0,.26,1.62,35.72,35.72,0,0,1,.57,4.1c.05.7.05.75-.16,1s-.29.21-1.08.21a9,9,0,0,0-3.09.48,1.51,1.51,0,0,0-.52.48.6.6,0,0,0-.07.63,2.55,2.55,0,0,0,1.89,1.66c.26.07,1.09.2,1.84.3,1.63.22,1.6.21,1.85.47a12.68,12.68,0,0,1,.72,3.47c0,.49.18,1.34.27,1.9a11.39,11.39,0,0,1,.17,2.41c0,1.29,0,1.41.17,1.66a4.54,4.54,0,0,0,2,1.44,1.77,1.77,0,0,0,1.91-.62,3.54,3.54,0,0,0,.34-.9,19.91,19.91,0,0,1,1.26-3.34c.36-.85.84-2.08,1.07-2.73.31-.93.46-1.24.66-1.41a.85.85,0,0,1,.42-.22,12.52,12.52,0,0,1,2.5.7c1.78.66,2.66.69,3.29.1a1,1,0,0,0,.4-.77c.06-.77-.35-1.25-1.88-2.13-.39-.23-1.05-.66-1.47-1s-1-.65-1.18-.78a1.16,1.16,0,0,1-.72-1.21c0-.21.26-1.12.53-2,.74-2.48.74-2.88,0-3.56a2.48,2.48,0,0,0-1.9-.69C498.19,339.7,498,339.82,497.58,340.65ZM495,350.78a.22.22,0,0,1-.26-.11c-.08-.23,0-.42.26-.39s.2.09.2.25S495.18,350.76,495,350.78Zm1-3.62c-.33.31-.87.2-.87-.18s.62-.54.89-.3S496.3,346.94,496.06,347.16Z" transform="translate(-448.86 -245.81)"/><path class="cls-1" d="M493.44,290.58c1-.52,1.57-1,1.57-1.43,0-.61-1-1.28-2.17-1.53a1.27,1.27,0,0,0-1.14.17,3.55,3.55,0,0,1-.76.28c-.24,0-.5-.36-.71-1a4.07,4.07,0,0,0-1.6-2,4.76,4.76,0,0,0-2.65-1.2c-.69,0-.7,0-1,.22s-.27.31-.27,1a16.83,16.83,0,0,1-.18,1.93c-.16,1.1-.2,1.24-.41,1.43a.47.47,0,0,1-.38.15,6.37,6.37,0,0,0-.69-.21,1.19,1.19,0,0,0-.93,0,.8.8,0,0,0-.61,1,3.28,3.28,0,0,0,1.24,1.47,2.82,2.82,0,0,1,.7.66c.08.18,0,.48-.26,1.72-.43,1.76-.42,2,.12,2.55a3,3,0,0,0,1.21.88c.73.27,1.47-.12,2.94-1.52a8.37,8.37,0,0,1,1.36-1.15,1,1,0,0,1,.86.24,6.24,6.24,0,0,0,1.74.65,1.6,1.6,0,0,0,1.65-.79.6.6,0,0,0,0-.63,4.09,4.09,0,0,0-.44-.69,2.38,2.38,0,0,1-.59-1.11C492.09,291.38,492.5,291.07,493.44,290.58Z" transform="translate(-448.86 -245.81)"/><path class="cls-1" d="M742.57,357.49c-.16-11.56-.32-17.07-.62-21-.1-1.19-.2-2.6-.23-3.14s-.11-1.7-.18-2.58c-.25-3.27-.33-9.6-.34-25.91,0-11.83,0-17.49.12-21.13.17-6.7.18-20.42,0-20.89s-.41-.59-1-.69a3,3,0,0,1-.82-.34,2.93,2.93,0,0,0-.9-.36l-1.15-.23a2,2,0,0,0-1.11,0c-1.1.27-19.7.21-38.4-.13-16.77-.3-45.61-.52-68.93-.52-15.43,0-19.41,0-28.4.19-5.75.11-13.4.24-17,.29s-7.79.13-9.3.18l-5.19.17c-1.34,0-6.1.08-10.58.09-18.69,0-31.84.41-39.65,1.2-1.86.18-4.17.29-8.2.39-4.46.12-13.37.12-16,0s-8.1-.48-11.21-.76c-3.56-.31-4.86-.38-10.81-.53-2.92-.07-6-.17-6.91-.22a75.13,75.13,0,0,0-7.56-.1c-1.71.21-2.49,1-2.5,2.38a9.91,9.91,0,0,1-.12,1.13c-.39,2.4-.47,4.83-.63,19-.07,6.48-.17,12.4-.22,13.16-.12,2-.11,10.6,0,11.15a2.44,2.44,0,0,1,0,1.05,9.2,9.2,0,0,0,0,2.05c.24,3.94.35,7.65.53,18.22.05,2.88.13,6.06.18,7.09.1,2.31.23,7,.35,12.67s.26,9.87.36,10.56a2.84,2.84,0,0,1,0,.93,19.27,19.27,0,0,0,0,2.77c.06,1.32.16,4.67.23,7.44s.18,6.29.24,7.8c.14,3.77.14,24.19,0,26.94-.06,1.12-.15,3.78-.2,5.92s-.15,4.72-.22,5.72c-.13,1.82-.25,4.54-.35,7.63,0,.9-.11,2.27-.18,3.05s-.19,2.66-.26,4.17-.16,3.09-.19,3.52l-.06.77.3.3a1.39,1.39,0,0,0,.83.41c.68.15,5.92.16,15.82.06,7.07-.07,7.49-.07,13,.16,5.2.21,9.24.42,10.28.54l3.23.18c1.56.07,3.49.19,4.3.26,1.38.13,3.49.19,14.18.4,2.5.05,6.27.19,8.37.31s5.22.28,7,.35,3.57.18,4.08.23c1.53.15,8.34.24,22.41.31,7.34,0,14.55.09,16,.13h0c1.49,0,4.66,0,7.05,0,4.45-.06,4.71-.06,8.72,0,3.1.07,10.67-.1,13.78-.32,3.88-.27,7.35-.34,24.86-.45,16.75-.12,16.16-.12,30.16.19,4.76.1,21.9.1,26.76,0,2.19,0,5-.14,6.24-.21,2.3-.13,5.82-.24,13.13-.41,3.79-.08,5-.14,9.57-.48,2.4-.18,5.6-.2,16.64-.08l9.17.1.25-.23c.22-.2.24-.28.24-.85a4.37,4.37,0,0,1,.54-2.09,3.41,3.41,0,0,0,.35-1.25c0-.41.12-3.91.17-7.78s.14-8.54.19-10.37c.12-4.1.06-37.36-.08-45.76C742.7,367.08,742.62,361.34,742.57,357.49Zm-3.44,61.62c-.06,1.2-.19,4.44-.29,7.22-.16,4.71-.27,6.74-.41,7.59a.85.85,0,0,1-.31.56l-.26.22h-3.39c-1.86,0-7.11,0-11.68.08-6.67.07-8.48.11-9.22.22-1.66.25-3.06.31-9.37.4-6,.09-8.55.17-12,.36-5.14.28-29.26.41-35.53.19-6.7-.24-13.94-.31-20.16-.2-3.36.06-6.53.15-7,.19a8,8,0,0,1-1.77,0c-.62-.07-3.32-.08-10.1,0-9.17.06-10.35.09-14.31.36-1.12.07-3.39.17-5.05.22h0c-4.44.13-9.5.18-10.78.1-1.6-.1-9.78-.17-29.67-.27-9.52-.05-18.08-.13-19-.18l-3.06-.17c-.75-.05-3.07-.15-5.14-.23s-4.44-.19-5.27-.26c-1.5-.13-3.18-.19-12.71-.45-2.76-.07-6.25-.19-7.76-.26l-5-.22c-1.22,0-3-.15-4-.23-5.34-.38-12.46-.63-21.84-.75-4-.05-8.67-.14-10.33-.19s-3.34-.11-3.74-.11c-1.1,0-1.05.11-.92-2.33.06-1.11.15-2.48.19-3s.17-2.87.27-5.14.21-4.56.26-5.09.15-2.75.22-4.92.2-5.58.28-7.57c.22-5.44.26-19,.08-24.72-.07-2.44-.2-6.61-.27-9.26-.15-5.37-.28-9.49-.35-10.63,0-.42-.09-2.63-.14-4.92s-.13-4.51-.18-4.92a3.66,3.66,0,0,1,0-1.16c.09-.39,0-4.43-.3-15.14-.07-2.51-.17-7.08-.23-10.15-.11-6.72-.23-11.19-.36-13.48-.12-2,0-14,.09-16,.05-.7.13-5.83.18-11.38.1-11.14.14-13,.32-13.83.13-.57.48-3.62.48-4.14a.65.65,0,0,1,.22-.5c.25-.24.23-.24,3.55.09,2.47.24,4.37.33,9.43.44,5.24.11,7.38.2,10.28.43,1.2.1,3.43.26,5,.36l5.54.37c2.59.18,3.22.18,11.12.13,8.52,0,11.13-.12,13.17-.36.63-.07,2.06-.19,3.18-.27l4.34-.31c2.77-.21,5.14-.32,9.39-.44l4.34-.14c.64,0,7.29-.08,14.8-.13s14.56-.13,15.68-.17c6.32-.28,9.39-.35,21.44-.54,3.32-.05,7.7-.14,9.75-.19,5.63-.15,33.13-.19,46.38-.08,11.65.1,33.51.27,41.51.32,3.75,0,7.61.11,18.43.4,1.9.05,6.09.09,9.3.08,3.65,0,6.17,0,6.69.08s2.2.14,3.86.19,3.88.13,5,.18a11.5,11.5,0,0,0,2.44,0,8,8,0,0,1,2.9.15c.64.41.68,1.14.54,9.78-.07,4.22-.11,14.73-.11,28.44,0,22.12,0,24.94.35,29.51.46,6.71.61,11.44.84,27.42.05,3.36.14,8.76.2,12C739.29,380.85,739.29,416.1,739.13,419.11Z" transform="translate(-448.86 -245.81)"/><path class="cls-1" d="M732.86,413c-1.06-2.66-1.14-3-1.08-4.51a23.92,23.92,0,0,1,1.27-6.28,12.65,12.65,0,0,0,.34-8,24.21,24.21,0,0,0-2-6.4c-.57-1.2-.58-1.24-.53-1.76a16.94,16.94,0,0,1,1.43-4.09,10.82,10.82,0,0,0,1.38-5.2,49.51,49.51,0,0,0-1.18-7.93l-.72-3.54v-3.64c0-4.64,0-4.64,1.33-7.86a8.8,8.8,0,0,0,.7-4,16.5,16.5,0,0,0-.71-4.95c-1-3.76-1.14-4.34-1.07-6.66a24.6,24.6,0,0,1,1.22-7.38A11.25,11.25,0,0,0,734,326a12.56,12.56,0,0,0-.75-4.93,22.07,22.07,0,0,1-1.18-7.57,32.56,32.56,0,0,1,.24-4.43,36.39,36.39,0,0,1,.82-5.36,6.43,6.43,0,0,0,.27-2.34,21,21,0,0,0-.27-2.17c-.22-1.16-.38-1.82-1.24-5.16a24.66,24.66,0,0,1-.5-11.94c.71-3.51.82-8.35.23-10.26-.11-.38-.25-.88-.31-1.12a1.76,1.76,0,0,0-.75-1.26c-.27-.13-.32-.13-.72,0s-.54.24-1.21-.07a2.54,2.54,0,0,0-.92-.27,4.23,4.23,0,0,0-2.09.72l-.54.39-1.16,0a17.93,17.93,0,0,1-6.31-1c-2.25-.77-3-.73-7.5.46a54,54,0,0,1-9,1.87,13.87,13.87,0,0,1-5.54-.57c-1-.34-4.39-1.71-5.71-2.3a6.1,6.1,0,0,0-3.71-.69,67.85,67.85,0,0,0-8.3,1.37c-.53.12-1.57.34-2.3.47a18.2,18.2,0,0,1-4.56.24,35.08,35.08,0,0,1-6.2-.34,21.68,21.68,0,0,1-3.88-1.37,13.87,13.87,0,0,0-5.85-1.34,18.51,18.51,0,0,0-5.31.85,9,9,0,0,1-1.36.34c-.44.08-1.71.42-2.81.76-4.35,1.33-5.05,1.45-8.31,1.46a12.64,12.64,0,0,1-5.65-.85c-4.1-1.28-6.23-1.55-9-1.14A33.71,33.71,0,0,0,616,270.1a22.8,22.8,0,0,1-9.88,1.14,15.7,15.7,0,0,1-4.16-.71c-2.24-.64-4.16-1.12-5-1.25a21.32,21.32,0,0,0-2.35-.11,10.09,10.09,0,0,0-2.94.28,17.87,17.87,0,0,0-4,1.36,10.65,10.65,0,0,1-3.51,1,22,22,0,0,1-3.59-.65,26.69,26.69,0,0,1-3.11-1,16.5,16.5,0,0,0-6.41-.57c-1.19.13-4.32.75-6,1.18a31.06,31.06,0,0,1-7.09,1.12,29.41,29.41,0,0,1-5.42-.14,13.79,13.79,0,0,1-3.74-1.35l-1.64-.77-2.93,0a50.69,50.69,0,0,0-7,.3c-1.18.16-1.38.2-4.23.72l-2.3.42h-2.09a13.68,13.68,0,0,1-3.36-.24l-2.39-.42c-.61-.1-1.53-.3-2-.44a28.09,28.09,0,0,0-5.84-1.15,24.53,24.53,0,0,0-5.19,1.23c-1.32.39-2.59.75-2.84.81a7.54,7.54,0,0,0-.91.31,10.32,10.32,0,0,1-1.55.45c-1.07.24-1.13.25-4.18.25a18,18,0,0,1-6.42-.73c-2.26-.5-3.64-.31-6.74.91-.69.27-1.5.55-1.8.63a11.37,11.37,0,0,1-3.58.09,6,6,0,0,1-2.06-.85c-.3-.22-.3-.22-2.12-.22a12.16,12.16,0,0,0-3.29.29,23.51,23.51,0,0,0-3,.83l-3,1a17.21,17.21,0,0,0-1.88.75c-1,.6-1.14,1.25-.62,3.51a9.73,9.73,0,0,1,.33,2.3,6.48,6.48,0,0,1-.84,3.2l-.56,1.28v2c0,1.12.06,2.42.12,2.88a27.93,27.93,0,0,0,1.88,6.95c1.23,3.05,1.25,3.85.17,8.38a29.64,29.64,0,0,0-1.11,8.37,40,40,0,0,0,2.14,13l.25.67v5.23l-.55,2.12a43.34,43.34,0,0,0-1.7,11.61,24.69,24.69,0,0,0,.84,7.18,38.69,38.69,0,0,1,1.17,7.88,16.09,16.09,0,0,1-1,6.6c-1.31,3.86-1.55,5.27-1.38,7.93a50.45,50.45,0,0,0,1.38,7.48,21.15,21.15,0,0,1,.87,6.43,15.79,15.79,0,0,1-.24,3.55c-.14.78-.5,2.42-.81,3.64a16.17,16.17,0,0,0-.73,5.78,27.65,27.65,0,0,0,.81,6c.66,3.21.7,3.71.46,5.58a26.88,26.88,0,0,1-1.31,5.83,11.46,11.46,0,0,0-.43,1.24c-.08.33-.24.83-.35,1.13a2.48,2.48,0,0,0-.14,1.38,11,11,0,0,0,.66,3.08.78.78,0,0,0,.91.52,3,3,0,0,1,.89.08,2.46,2.46,0,0,0,1.18,0,2.64,2.64,0,0,1,1.42.1,15.81,15.81,0,0,1,5.71,2.48c1.52,1.09,1.56,1.11,2.61,1.1a9.64,9.64,0,0,0,2.53-.43,27.09,27.09,0,0,0,2.64-.81,29.91,29.91,0,0,1,7.76-1.63,22.73,22.73,0,0,1,5.8.23,27.78,27.78,0,0,1,2.89,1c3,1.18,3.87,1.43,5.42,1.59a15.77,15.77,0,0,0,4.17-.31,11.79,11.79,0,0,0,2.57-.71c3.89-1.49,4.3-1.59,6.71-1.59A21,21,0,0,1,524,429a20.34,20.34,0,0,1,4.87,1.6,23.46,23.46,0,0,0,4.61,1.62,17.3,17.3,0,0,0,6.42-.44l3-.66c1.71-.37,2.22-.5,5-1.28a21.28,21.28,0,0,1,7.16-1,14.67,14.67,0,0,1,4.67,1.34c4,1.59,6.75,2.15,9.74,2a27,27,0,0,0,7.4-1.51C579,430,581.7,429.22,583,429a16.63,16.63,0,0,1,3.28-.16h2.48l2,.51c1.1.28,2.75.75,3.68,1s2.24.66,2.92.82l1.24.28,2.13-.15a29.38,29.38,0,0,0,7-1.29c1.27-.34,2.82-.73,3.46-.86A9.38,9.38,0,0,1,614,429c2.5.06,4.67.48,9.18,1.78a12,12,0,0,0,4.82.74c2.59-.11,5-.64,10-2.24a37.85,37.85,0,0,1,5-1.33,14.84,14.84,0,0,1,3.66-.37,26.64,26.64,0,0,1,7.68.73,23.37,23.37,0,0,0,7.57.82,18.33,18.33,0,0,0,3.68-.26l3.52-.61c1.23-.2,2.71-.48,3.28-.62a13.29,13.29,0,0,1,3-.37,25.92,25.92,0,0,1,6.21.34c1.4.25,1.69.31,5.14,1.15a27.19,27.19,0,0,0,5.81.94,6.41,6.41,0,0,0,2.44-.09l1.58-.33,2.32-.49c.86-.19,2-.41,2.48-.47a44.24,44.24,0,0,1,6.55-.15,8.48,8.48,0,0,1,2.85.36,5.92,5.92,0,0,0,1.07.27,12.17,12.17,0,0,1,1.45.3,10.4,10.4,0,0,0,4,.41,43.07,43.07,0,0,0,5.69-.93c.9-.22,1.95-.44,2.35-.49l1.61-.24a3.17,3.17,0,0,1,1.51,0c.34.07.81.16,1.06.19a5,5,0,0,1,1.16.41,2.12,2.12,0,0,0,3.63-1.69c.08-.27.25-.79.37-1.15a6,6,0,0,0,.23-2.53,25.51,25.51,0,0,0-2-10.06Zm-1.35,11.22c-.56,1.68-.79,2.08-1.17,2.08a4.18,4.18,0,0,1-.91-.4,6.37,6.37,0,0,0-3.65-.79c-1.7,0-2,0-5.36.78a17,17,0,0,1-4.86.67,11.32,11.32,0,0,1-3.92-.57c-.56-.17-1.71-.46-2.57-.64l-1.55-.34h-2.74c-1.54,0-3.17,0-3.7.1-1.13.13-4.47.75-5.61,1a18.49,18.49,0,0,1-4.67.38c-1.72,0-2-.1-6.89-1.26-4.55-1.07-5-1.14-7.71-1.15s-3,.05-8.29,1c-5.45,1-5,.94-7.92.93a15.51,15.51,0,0,1-5.85-.73,20.75,20.75,0,0,0-6.66-.88,23.79,23.79,0,0,0-5.65.39,30.28,30.28,0,0,0-5.19,1.36c-1.22.4-2.91.93-3.76,1.19s-1.75.56-2,.67a13.44,13.44,0,0,1-4,.39,7.33,7.33,0,0,1-2.79-.37c-8.27-2.19-8.51-2.24-11.64-2.23a12.62,12.62,0,0,0-4.67.73c-1.93.56-3.35.9-5.18,1.27a13.42,13.42,0,0,1-3.63.25c-2.74,0-2.29.07-6.23-1.1a23.87,23.87,0,0,0-8.13-1.37,13,13,0,0,0-3.14.24,48,48,0,0,0-5.1,1.39c-4.84,1.56-7.47,2-10,1.68a35.45,35.45,0,0,1-7.75-2.37,11.82,11.82,0,0,0-4.57-1.06,17.61,17.61,0,0,0-5,.47c-1.47.37-3.45,1-4.73,1.47a14.94,14.94,0,0,1-1.91.53l-3,.57a26.43,26.43,0,0,1-3.28.48h0c-.7.05-1.35.08-1.45.08a16,16,0,0,1-3.85-.94c-7.36-2.62-9.71-3.14-13.51-3a11.84,11.84,0,0,0-5,1.22,22.62,22.62,0,0,1-2.44.88,26.12,26.12,0,0,1-6.76.22,13.11,13.11,0,0,1-2.86-1.24,5.74,5.74,0,0,0-2.27-.88,39.19,39.19,0,0,0-6.43-.22,22.3,22.3,0,0,0-5.16.57c-1.74.45-4,1.09-4.55,1.31a10.94,10.94,0,0,1-3.28.55h-.89l-1.44-.73a38.25,38.25,0,0,0-5.51-2.32c-1.79-.6-2.15-.78-2.35-1.16a5.37,5.37,0,0,1,.23-3.11,28.14,28.14,0,0,0,1.64-6.72c.46-2.86.47-3.28.14-4.57a13.51,13.51,0,0,1-.33-1.68,8.87,8.87,0,0,0-.27-1.28,20.7,20.7,0,0,1-.54-6.32,9.2,9.2,0,0,1,.36-3.21,51.6,51.6,0,0,0,1.16-5.67,28.35,28.35,0,0,0,.15-4.83,31.45,31.45,0,0,0-.77-3.58c-1.19-4.72-1.49-6.53-1.49-9.09a8.48,8.48,0,0,1,.24-2.7,30.15,30.15,0,0,1,1.25-3.94,20.65,20.65,0,0,0,.67-2.13,21.09,21.09,0,0,0,.18-5,32.11,32.11,0,0,0-1.12-7.45c-.21-.87-.45-2-.52-2.52a39.47,39.47,0,0,1,0-9.34c.21-1.49.62-3.41,1.23-5.9a16.28,16.28,0,0,0,.76-5.21,21.25,21.25,0,0,0-1.15-7.09,18.73,18.73,0,0,1-1.11-6.29,63.37,63.37,0,0,1,.09-7.4,34.12,34.12,0,0,1,1.11-4.7,15,15,0,0,0,.66-4.24,7,7,0,0,0-1.14-4.12,13,13,0,0,1-1.29-3.86,16,16,0,0,1-.49-4.35c0-1.72,0-1.92.92-4.48s.84-2.48.51-3.95c-.4-1.77-.43-2.13-.21-2.35s.34-.19,1.32-.24a19.1,19.1,0,0,0,4.63-.68c2-.53,3.22-.64,3.9-.39a15.81,15.81,0,0,0,4.66,1.29,7.72,7.72,0,0,0,3.05-.2,11.66,11.66,0,0,1,2.24-.66,3.72,3.72,0,0,0,1.25-.42,3.69,3.69,0,0,1,2.28-.65,20.79,20.79,0,0,1,4.91.57l1.59.31,2.22-.05c3.57-.08,4.6-.24,6.42-.95a14.94,14.94,0,0,1,2-.61,24.59,24.59,0,0,0,3.65-1.07,12.86,12.86,0,0,1,1.35-.43c1.35-.27,3.58.05,6.5.95a61.49,61.49,0,0,0,6.06,1.09,23,23,0,0,0,2.88.05,26.79,26.79,0,0,0,6.07-.76c.92-.19,1.92-.37,2.2-.41a4.76,4.76,0,0,0,.89-.19,3.44,3.44,0,0,1,1.34-.07,21.5,21.5,0,0,0,2.57-.06,12.63,12.63,0,0,1,3.84,0c.32.09,1.33.48,2.26.87a18,18,0,0,0,4.62,1.51c.52.06,2.13.11,3.94.11a15.56,15.56,0,0,0,3.94-.19c.49-.1,1.2-.23,1.59-.29a16.2,16.2,0,0,0,2.17-.57,25.57,25.57,0,0,1,4.93-1.21,16.37,16.37,0,0,1,3.54-.37c1.89,0,2.61.17,5.57,1.35a14.29,14.29,0,0,0,5.11,1.12,7.26,7.26,0,0,0,3.81-.69,26.73,26.73,0,0,1,4-1.52,8,8,0,0,1,2.92-.27A10.79,10.79,0,0,1,599,273c.89.2,2.29.55,3.1.77a16.28,16.28,0,0,0,5.15.89,55,55,0,0,0,6.6-.32,22.85,22.85,0,0,0,2.82-.77,47.29,47.29,0,0,1,8.71-1.76c1.37-.11,2.8.16,6.56,1.24a16.9,16.9,0,0,0,6.23.88,29,29,0,0,0,3-.1,63,63,0,0,0,6.46-1.76,28.33,28.33,0,0,1,7.88-1.59c1.65-.1,2.45.09,5.54,1.29a21,21,0,0,0,6.51,1.73,38.28,38.28,0,0,0,6.73-.08c.47-.08,1.18-.16,1.6-.19a43,43,0,0,0,5.21-1A2.88,2.88,0,0,1,682,272a8,8,0,0,0,1.26-.18,25.19,25.19,0,0,1,5.25-.19,6.93,6.93,0,0,1,1.46.49,65.5,65.5,0,0,0,6.27,2.44c.79.18,2.47.47,3.39.59a14.74,14.74,0,0,0,3-.23l1.18-.17a11.82,11.82,0,0,0,1.18-.26,10,10,0,0,1,1.39-.28,26.75,26.75,0,0,0,4.13-1,14.77,14.77,0,0,1,4.25-.8,6.94,6.94,0,0,1,2.8.31c4,.95,8.2,1.3,10.12.82.77-.19.84-.19,1.05-.06s.41.51.41,2.31a30.81,30.81,0,0,1-.64,7.05,32.5,32.5,0,0,0-.56,6.46V291l.51,2.35c.28,1.29.64,2.8.81,3.36s.46,1.58.64,2.26l.33,1.24V302a14.78,14.78,0,0,1-.28,3.37c-.45,2.59-1,6.53-1,7.71a26.9,26.9,0,0,0,.42,5.24,27.3,27.3,0,0,0,1,4.7,9.9,9.9,0,0,1,.67,3.92,9.14,9.14,0,0,1-.25,2.53,14.06,14.06,0,0,1-.49,1.68,5,5,0,0,0-.31.92,5.06,5.06,0,0,1-.28.83,13.81,13.81,0,0,0-.68,4.53,23.41,23.41,0,0,0,.41,6.43c.18.83.45,2,.62,2.49a12.34,12.34,0,0,1,.63,4.25,8,8,0,0,1-.62,3.65l-.62,1.48a16.79,16.79,0,0,0-1,6,31.16,31.16,0,0,0,1.07,8.85,28.28,28.28,0,0,1,.8,7.12v2.17l-.47,1.05a15,15,0,0,1-.83,1.66,13,13,0,0,0-1.18,2.7,13.94,13.94,0,0,0-.31,2.65,3.42,3.42,0,0,0,.9,2.08,11.66,11.66,0,0,1,1.39,3.19,15.13,15.13,0,0,1,.76,6.47,6,6,0,0,0-.13,1,2.7,2.7,0,0,1-.22,1,24,24,0,0,0-1.65,7.44c-.19,2,0,2.79,1.17,5a6.72,6.72,0,0,1,.62,1.51,13.93,13.93,0,0,0,.39,1.39c.17.49.45,1.46.62,2.17a9.92,9.92,0,0,1,.37,2.88A5.32,5.32,0,0,1,731.51,424.21Z" transform="translate(-448.86 -245.81)"/><path class="cls-2" d="M715.4,407.5a1.61,1.61,0,0,0,1.39-1.16c.05-.17.13-2.24.17-4.73.12-6.32.19-7.12,1-11.56.75-3.88.73-4.16-.51-5.41-.83-.85-1.33-1.14-1.93-1.14-.78,0-1.19.8-1.23,2.39a10.57,10.57,0,0,1-.12,1.46c-.05.29-.12.93-.15,1.41a13.17,13.17,0,0,1-.22,1.77c-.09.48-.23,1.5-.3,2.26s-.18,1.74-.23,2.18c-.17,1.49-.25,2.65-.34,5-.23,5.79-.08,6.47,1.63,7.28A2.54,2.54,0,0,0,715.4,407.5Z" transform="translate(-448.86 -245.81)"/><path class="cls-2" d="M628.49,396c-.25-.36-.52-.75-.58-.87a12.82,12.82,0,0,0-1.71-2,4.25,4.25,0,0,0-1.23-.85,6.88,6.88,0,0,0-1.63-.59,3.8,3.8,0,0,1-.73-.25,9.79,9.79,0,0,0-3.29-.67c-1.21,0-1.41.11-3.11,1.8-3,3-4.3,5.49-4.68,9a23.78,23.78,0,0,0,0,4.37,8.36,8.36,0,0,0,.72,3.45l.68,1.54a4.27,4.27,0,0,0,.83,1.34,12.52,12.52,0,0,0,4,2.71,22,22,0,0,0,4.25,0,11.52,11.52,0,0,0,2.81-1.08,15.11,15.11,0,0,0,3-3.05,20.19,20.19,0,0,0,2-5.83,19.08,19.08,0,0,0,.14-4.29A9.59,9.59,0,0,0,628.49,396Zm-3.76,9.9a9.49,9.49,0,0,1-2.07,2.8,8.24,8.24,0,0,1-2.78,1.45,3,3,0,0,1-3.25-.91,6.53,6.53,0,0,1-.82-2.08,13.57,13.57,0,0,1,0-4.22c.71-3.31,3-6.73,5-7.45.31-.11.35-.1.7.14a3.31,3.31,0,0,0,1.18.66,4.21,4.21,0,0,1,1.12.45,3.2,3.2,0,0,0,.34.19,4.53,4.53,0,0,1,1.07,2.11,6.07,6.07,0,0,0,.27,1C625.94,401.12,625.53,404.13,624.73,405.86Z" transform="translate(-448.86 -245.81)"/><path class="cls-2" d="M715.92,411.32a1.27,1.27,0,0,0-.84,0,1.52,1.52,0,0,0-.87,1.26,2.77,2.77,0,0,0,.35,2.06,3.08,3.08,0,0,0,1.46,1.53c1.24.57,2.35-.31,2.51-2a2,2,0,0,0-.73-1.88A3,3,0,0,0,715.92,411.32Z" transform="translate(-448.86 -245.81)"/><path class="cls-2" d="M651.55,410.56a35.57,35.57,0,0,1-.56-4.16,9.43,9.43,0,0,0-.19-1.37,19.71,19.71,0,0,1-.2-2.26c-.15-3.18-.78-5.52-1.9-7.08-.25-.35-.59-.88-.76-1.17a8.5,8.5,0,0,0-1.21-1.44,4.88,4.88,0,0,0-1.75-1.31,6.78,6.78,0,0,0-3-.71,6.17,6.17,0,0,0-3.06,1.59,13.52,13.52,0,0,0-1.11,1.32,3.34,3.34,0,0,1-.8.86c-.25,0-.36-.19-.36-.58a6,6,0,0,0-.48-2.13,2.83,2.83,0,0,0-1.35-1.26c-1.16-.67-2-.67-2.41,0-.2.29-.2.35-.14,1.24.1,1.49.08,7,0,9.26l-.2,3.89c0,1-.14,2.14-.21,2.57a9.55,9.55,0,0,0-.24,2.73,2.25,2.25,0,0,1,0,1,4.66,4.66,0,0,0,.1,1.93,3.26,3.26,0,0,0,1.72,1.83,3.19,3.19,0,0,0,2,.09,1.18,1.18,0,0,0,.86-1,8.46,8.46,0,0,1,.22-1,2.37,2.37,0,0,0-.05-1.62,4.93,4.93,0,0,1-.18-1.78,5.75,5.75,0,0,1,.42-2.7c.12-.27.41-1.06.65-1.74a25.05,25.05,0,0,1,4.27-8.1,2.78,2.78,0,0,1,1.08-.9,1.35,1.35,0,0,1,1.77.17,10,10,0,0,1,1.66,2.69c0,.16.22,1.77.39,3.57s.41,4.2.52,5.32.26,2.54.32,3.15a10.87,10.87,0,0,0,.88,3.49,3.77,3.77,0,0,0,1.2,1.05,1.83,1.83,0,0,0,.71.14,1.25,1.25,0,0,0,.89-.3,3.39,3.39,0,0,0,.67-.6c.2-.28.21-.34.21-1.57A14.59,14.59,0,0,0,651.55,410.56Z" transform="translate(-448.86 -245.81)"/><path class="cls-2" d="M598,401.62a11.49,11.49,0,0,0-1.54-1.38c-.28-.17-.87-.58-1.32-.91a6.27,6.27,0,0,0-1.47-.83,12.62,12.62,0,0,1-2.94-1.51,1,1,0,0,1-.33-1.05c.24-.88,2.15-2.08,3.63-2.3.4-.06.42-.05.93.42a5.4,5.4,0,0,0,2.05,1.22c.54,0,1.26-.75,1.39-1.45a4.52,4.52,0,0,0-.91-2.35,6.64,6.64,0,0,0-4.44-2.4,11.23,11.23,0,0,0-4,1.26,5.54,5.54,0,0,0-2,2.19,6.33,6.33,0,0,0-.34,5.14,11,11,0,0,0,1.5,2.9c.43.57.49.61,1.43,1,.53.24,1.35.57,1.81.74a12.54,12.54,0,0,1,1.77.82l1.25.66a4.43,4.43,0,0,1,1.5,1.35,2.29,2.29,0,0,1,.68,2.06,3.18,3.18,0,0,1-1,2.36,6,6,0,0,1-2.93,1.74c-.64,0-1.43-.67-2.34-2-1.09-1.57-1.69-2-2.5-1.75-.55.17-.74.52-.77,1.49-.06,1.36.36,2.34,1.59,3.81,1.56,1.84,3.2,3,4.59,3.28a7.89,7.89,0,0,0,1.45.08,2.9,2.9,0,0,0,1.33-.26,8.65,8.65,0,0,0,2.39-2.05,9.89,9.89,0,0,0,1.88-2.69,12,12,0,0,0,.63-3.17,3.11,3.11,0,0,0-.19-1.64A10.5,10.5,0,0,0,598,401.62Z" transform="translate(-448.86 -245.81)"/><path class="cls-2" d="M702.43,404.78c-1.69-3.62-3.75-5.22-8.23-6.41a12.3,12.3,0,0,1-1.26-.39,3,3,0,0,1-.94-1,3.74,3.74,0,0,1,.69-2.88,4.9,4.9,0,0,1,1.81-1.29,5.93,5.93,0,0,1,1.13-.2l.68-.05.39.39a2.64,2.64,0,0,1,.68,1.28,2.52,2.52,0,0,0,.7,1.29,2.6,2.6,0,0,0,1.6.7,1.35,1.35,0,0,0,1-.75c.16-.32.18-.53.18-2v-1.64l-.39-.71c-1.11-2-2-2.85-3.42-3.15a12.6,12.6,0,0,0-3.36,0,14.39,14.39,0,0,0-3.13,1.32,5.87,5.87,0,0,0-2.37,3.35,15.13,15.13,0,0,0-.4,3.07,5.69,5.69,0,0,0,.78,3,6.09,6.09,0,0,0,1.34,1.78c1.31,1.31,1.69,1.51,4.93,2.65,2,.71,3,1.36,3.64,2.48a1.71,1.71,0,0,1,.32,1.33,3.51,3.51,0,0,1-.56,2.13,2.22,2.22,0,0,1-1.54,1.07,2.1,2.1,0,0,1-1.9-.19,4.16,4.16,0,0,1-1.72-1.6,9.38,9.38,0,0,0-.83-1.06,3.52,3.52,0,0,0-1.41-.79c-.7,0-1.18,1.66-.92,3.19a3.82,3.82,0,0,0,.91,2,6.79,6.79,0,0,0,1.73,2,8.52,8.52,0,0,0,3.29,1.89,4.21,4.21,0,0,0,1.29.07l1.26-.08a1.38,1.38,0,0,0,.77-.23l1.09-.76a5.79,5.79,0,0,0,2.83-6C703.07,406.34,703,406,702.43,404.78Z" transform="translate(-448.86 -245.81)"/><path class="cls-2" d="M580.82,394c-.29-.18-.63-.42-.76-.52a1.32,1.32,0,0,0-.62-.23c-.34,0-.42,0-.63.19a1.84,1.84,0,0,0-.34.57c-.05.17-.13,1.71-.17,3.42-.08,3.21-.21,5.18-.58,9.16a28.71,28.71,0,0,1-.58,4.31,4.41,4.41,0,0,0-.14,1.15,3.68,3.68,0,0,1,0,.91,3.78,3.78,0,0,0,.4,2.21c.25.5.31.56.95.91a1.83,1.83,0,0,0,.83.26,2.44,2.44,0,0,0,2-1.42,21.71,21.71,0,0,0,.14-2.34c.07-2.74.38-7.48.53-8.2.07-.31.19-1.69.27-3,.15-2.59.29-4.5.37-5.2a1.19,1.19,0,0,0-.08-.67A5.39,5.39,0,0,0,580.82,394Z" transform="translate(-448.86 -245.81)"/><path class="cls-2" d="M684.91,408.33a11.49,11.49,0,0,1-1.41-3.44c-.38-1.36-.44-1.94-.56-5.49a54.71,54.71,0,0,0-.4-6.64,7.15,7.15,0,0,0-1-1.89,3.93,3.93,0,0,0-1.69-.64,1.78,1.78,0,0,0-1.65,1.06c-.17.38-.18.59-.2,3.81,0,3.66-.08,5.51-.22,7.26a5.18,5.18,0,0,1-.37,1.81,10.47,10.47,0,0,1-3.7,4.37,3.16,3.16,0,0,1-2.06.38c-1.09-.32-1.78-1.31-2.27-3.29a15.15,15.15,0,0,1-.43-4.73,18.3,18.3,0,0,1,.28-3.14c.13-.71.23-1.41.23-1.57a4.87,4.87,0,0,0-.33-1.1,3.8,3.8,0,0,0-1.86-2.1c-.87-.51-1.09-.54-1.48-.18a1.36,1.36,0,0,0-.45.92,53.53,53.53,0,0,0-.19,10.63,21.5,21.5,0,0,0,1.57,5.61,19.33,19.33,0,0,0,3.07,3.17,5,5,0,0,0,1.46.69,4.35,4.35,0,0,0,3.66-.24c.39-.16,1-.39,1.31-.5a4.14,4.14,0,0,0,2-1.37c.2-.26.76-.91,1.25-1.43.74-.79.91-.94,1.07-.88s.44.47.9,1.57a3.47,3.47,0,0,0,2.35,2.15,1.42,1.42,0,0,0,.9.05c1-.26,1.48-1.25,1.26-2.53A5.36,5.36,0,0,0,684.91,408.33Z" transform="translate(-448.86 -245.81)"/><path class="cls-2" d="M579.81,386.88a3,3,0,0,0-.62-2,4.27,4.27,0,0,0-2.53-1.23c-.82-.1-1.11.39-1.11,1.92a2.05,2.05,0,0,0,.21,1.12,6.9,6.9,0,0,1,.32.74,3.56,3.56,0,0,0,2.23,1.67C579.29,389.28,579.81,388.52,579.81,386.88Z" transform="translate(-448.86 -245.81)"/><path class="cls-2" d="M499.8,416.23a5.34,5.34,0,0,1-.6-1.06l-.87-1.95c-.85-1.9-1.48-3.42-2.75-6.6-1.42-3.56-1.83-4.73-1.76-5.07a5.88,5.88,0,0,1,.81-1.16,9.07,9.07,0,0,0,1.81-3,13.48,13.48,0,0,0,.87-6.65,5.25,5.25,0,0,0-1-3,7.64,7.64,0,0,0-3.85-3.13,9.18,9.18,0,0,0-3.07-.59,7.66,7.66,0,0,0-2.72,1.09,10.81,10.81,0,0,1-1.06.7,7.89,7.89,0,0,0-2.71,2.35c-.14.25-.17.5-.17,1.54a4.45,4.45,0,0,0,.29,2,12.7,12.7,0,0,1,.69,3.5c.08.8.22,2.08.31,2.83.38,3,.64,7.39.8,12.9.14,5.32.25,6.32.74,7.17a2.28,2.28,0,0,0,2,1.19,2.06,2.06,0,0,0,1.18-1.54c.29-1.06.29-6.76,0-11.47a12.51,12.51,0,0,1,0-2.15,1.4,1.4,0,0,1,.95-.48c.68-.11,1.15.47,1.48,1.79a8.81,8.81,0,0,0,.58,1.61c.2.43.51,1.17.68,1.65a14.63,14.63,0,0,0,.56,1.39c.14.28.49,1.08.78,1.78s.69,1.63.88,2.07.6,1.51.9,2.39c.89,2.55,1.64,3.85,2.44,4.22a2,2,0,0,0,2.31-.58,1.53,1.53,0,0,0,.29-1,4.56,4.56,0,0,0-.32-2A7.21,7.21,0,0,0,499.8,416.23ZM492,395.74a3.33,3.33,0,0,1-1.76,1.32,1.32,1.32,0,0,0-.9.62,2.1,2.1,0,0,1-.47.52,1.17,1.17,0,0,1-.46.09c-.66,0-1-.72-1.13-2.66-.05-.61-.14-1.68-.2-2.39-.14-1.6-.13-1.84.07-2.27a4.83,4.83,0,0,1,1.79-1.66c1.56-1,2.48-1.22,3.58-.7a1.56,1.56,0,0,1,1.12,1.57A8.92,8.92,0,0,1,492,395.74Z" transform="translate(-448.86 -245.81)"/><path class="cls-2" d="M563,405.87a48.57,48.57,0,0,0-1.29-8.75,6.86,6.86,0,0,0-1.24-2.87,9.9,9.9,0,0,0-2.31-2.19,6.74,6.74,0,0,0-2.25-.46,4.69,4.69,0,0,0-2.38.37,12.19,12.19,0,0,0-2.19,2.18c-.61.76-.79.78-1.37.18-.23-.24-.55-.61-.73-.83a4.79,4.79,0,0,0-3.29-1.37,6.89,6.89,0,0,0-2.4.68c-.91.47-1,.44-1.56-.3A3.46,3.46,0,0,0,539.4,391a.66.66,0,0,0-.68.18c-.46.38-.48.64-.32,3,.12,1.81.13,3.24.08,9.52-.05,7.47,0,9.39.26,10.77a4.14,4.14,0,0,0,.25.9,3.83,3.83,0,0,0,1.34,1.31,1.33,1.33,0,0,0,1.67,0c.63-.42.85-.87,1-2a51.84,51.84,0,0,0-.11-6.32c-.06-.77-.08-2.42-.06-4.38a17.55,17.55,0,0,1,.19-3.61,6.8,6.8,0,0,1,3.58-3.26c.15,0,.26,0,.45.2s.27.35.34,1.05c0,.43.07,1.83.07,3.09,0,2.26,0,2.32-.23,3a3.14,3.14,0,0,0,.44,3.41c.87,1.35,1.18,1.54,2.22,1.44a2.24,2.24,0,0,0,1.85-1.08,5.74,5.74,0,0,0,.07-2.63,7.66,7.66,0,0,1,.65-4.31,11.35,11.35,0,0,1,1.81-3.1,2.83,2.83,0,0,1,1.61-1.27,1.1,1.1,0,0,1,1.42.32,2.59,2.59,0,0,1,.65,1.2,36.58,36.58,0,0,1,1,7.17,50.31,50.31,0,0,0,.55,5.23c.46,3.05.7,4,1.13,4.71a2.18,2.18,0,0,0,2.47,1c.59-.31.87-.8,1.08-1.94a7.52,7.52,0,0,0-.34-3.35A24.64,24.64,0,0,1,563,405.87Z" transform="translate(-448.86 -245.81)"/><path class="cls-2" d="M534.83,397.17a9.65,9.65,0,0,0-2.79-3.05,6.8,6.8,0,0,1-.77-.46,9.63,9.63,0,0,0-2.46-1.09,10.73,10.73,0,0,0-2.56-.11l-2,0-1,.44a4.07,4.07,0,0,0-1.61,1.08,22,22,0,0,0-3.09,4.11,21,21,0,0,0-1.32,5.16,12.55,12.55,0,0,0,.28,5.1,8.33,8.33,0,0,0,1.63,3.24,9.07,9.07,0,0,0,1.91,1.91,13.62,13.62,0,0,0,2.17,1.45l1,.51,1.15-.05a9,9,0,0,0,3.67-.78,10.51,10.51,0,0,0,3.64-2.37,13.5,13.5,0,0,0,2.38-3.05,13.1,13.1,0,0,0,1-3.46,27.32,27.32,0,0,0-.09-5.62A6.17,6.17,0,0,0,534.83,397.17Zm-2.54,5a17.71,17.71,0,0,1-.56,3.6,12.77,12.77,0,0,1-2.54,3,6.49,6.49,0,0,1-3,1.64,4.7,4.7,0,0,1-2.59.16,5.71,5.71,0,0,1-1.63-1.87,5.1,5.1,0,0,1-.63-2.9,9.34,9.34,0,0,1,.7-3.71,9,9,0,0,1,3.63-4.78,5.12,5.12,0,0,1,2.64-.42c1.63,0,1.69,0,2.35.78a6,6,0,0,1,1.38,2.42A3.84,3.84,0,0,1,532.29,402.18Z" transform="translate(-448.86 -245.81)"/><path class="cls-2" d="M511.9,393.61a4.7,4.7,0,0,0-1.68-1.23l-1-.49-1.51.05c-2.59.09-3.51.29-4.61,1a11.36,11.36,0,0,0-3.36,3.69,17.7,17.7,0,0,0-1.6,4.08,12.39,12.39,0,0,0,.5,5.61,8.22,8.22,0,0,1,.35,1.06c.3,1.18,1.05,2.18,3,4a10.91,10.91,0,0,0,1.59,1.3,2.42,2.42,0,0,0,.85.17,7.27,7.27,0,0,1,1.06.13,3.37,3.37,0,0,0,2.15-.13A6.25,6.25,0,0,0,510,411.5a13.23,13.23,0,0,1,1.62-1.11,4.82,4.82,0,0,0,2.36-2.66,13.23,13.23,0,0,0,.76-10.17A14.5,14.5,0,0,0,511.9,393.61Zm-.89,9.6-.34.68a5.92,5.92,0,0,1-.54.93c-.11.14-.35.47-.52.74a7.91,7.91,0,0,1-3.31,2.49c-1.58.74-2.67.15-3.73-2a3.28,3.28,0,0,1-.53-1.88,5.94,5.94,0,0,1,.6-2.91,9.7,9.7,0,0,1,2.9-4.13,4.73,4.73,0,0,1,.87-.44,17.62,17.62,0,0,1,2.95-.45c.38,0,.66.32,1,1.13.6,1.39.64,1.63.64,3.85Z" transform="translate(-448.86 -245.81)"/></svg>