<svg id="Layer_1" data-name="Layer 1" xmlns="http://www.w3.org/2000/svg" viewBox="0 0 300 310.55"><defs><style>.cls-1{fill:#231f20;}.cls-2{fill:#e57e25;}</style></defs><path class="cls-1" d="M749.08,195.3a.23.23,0,0,0-.26-.25c-.24,0-.24,0,0,.24S749.08,195.6,749.08,195.3Z" transform="translate(-449.08 -195.05)"/><path class="cls-1" d="M749,505.21a1,1,0,0,1-.28.29c-.12.08-.09.1.11.11s.29-.07.28-.28S749,505.09,749,505.21Z" transform="translate(-449.08 -195.05)"/><path class="cls-1" d="M526.75,310.28a3.59,3.59,0,0,0-1.79-.59,5.82,5.82,0,0,1-.81.2c-.88.17-1.08,0-1.08-1.11A11.16,11.16,0,0,1,524,305a10.81,10.81,0,0,0,.67-1.86,1.78,1.78,0,0,0-.48-1.91,1.12,1.12,0,0,0-1-.35c-.77,0-1,.19-1.91,1.82a14.61,14.61,0,0,0-1.67,4.65c-.11.65-.29,1.6-.38,2.09a6.85,6.85,0,0,0,0,3.12,6.68,6.68,0,0,0,1.25,3,9.71,9.71,0,0,0,2.93,2.23,2.54,2.54,0,0,0,2.22-.09c.83-.4.93-.51,1.55-1.75l.5-1-.05-1.73C527.59,311.33,527.42,310.75,526.75,310.28Z" transform="translate(-449.08 -195.05)"/><path class="cls-2" d="M614.92,242.91a3.56,3.56,0,0,0,.87.13,1.11,1.11,0,0,0,1.2-1.44,1.81,1.81,0,0,0-1.39-1.27,1.79,1.79,0,0,0-2,.33c-.42.42-.44.6-.11,1.24C613.74,242.35,614,242.55,614.92,242.91Z" transform="translate(-449.08 -195.05)"/><path class="cls-1" d="M449.08,195.34c0,.2,0,.23.11.11a.93.93,0,0,1,.28-.28c.12-.08.1-.11-.11-.11S449.07,195.13,449.08,195.34Z" transform="translate(-449.08 -195.05)"/><polygon class="cls-1" points="172.92 55.95 172.93 55.95 172.92 55.95 172.92 55.95"/><path class="cls-1" d="M729.78,391.92a5.26,5.26,0,0,0-1.1-2.35c-.84-1.17-2.29-1.73-4.42-1.72-1.23,0-1.61.07-4.83.8-.87.2-1.76.39-2,.43a5.37,5.37,0,0,0-1.13.4,3.46,3.46,0,0,1-1.1.34l-27.89,0c-23.37,0-28.05,0-31.09-.21-7.37-.41-10.5-.7-11.46-1.08-.64-.26-.58-.75.14-1.11a2.41,2.41,0,0,0,.64-.45,5.43,5.43,0,0,1,1.06-.69,7.73,7.73,0,0,0,1.51-1.13c.6-.6.63-.67.63-1.29,0-1.61-.65-3.69-2-6.62-.35-.73-.7-1.53-.78-1.79a9.09,9.09,0,0,0-.71-1.31c-.8-1.22-.77-1.35.49-2,1.58-.88,3.14-2.28,6.43-5.81a10.12,10.12,0,0,1,1-1,12.06,12.06,0,0,0,1.64-2.08c.61-.91,1.47-2.14,1.92-2.72s1.06-1.47,1.36-1.95c.56-.92.74-1.19,1.61-2.48a26.47,26.47,0,0,0,2.48-4.27c.24-.57.69-1.58,1-2.23.51-1,.94-2,1.77-3.9.11-.24.24-.55.3-.69a25.23,25.23,0,0,0,.8-2.57c.12-.45.29-1.11.39-1.46a4.88,4.88,0,0,0,.18-.83,3.48,3.48,0,0,1,.38-.87,3,3,0,0,0,.37-1.1,20.39,20.39,0,0,1,.83-3.34,15.73,15.73,0,0,0,.68-3.64,37.28,37.28,0,0,1,.52-4.53,58.06,58.06,0,0,0,.44-12.69c-.1-.69-.18-1.54-.19-1.89a58.55,58.55,0,0,0-1-6.91,14.87,14.87,0,0,1-.18-1.83c0-.79.05-.87,1.12-1.49a10.77,10.77,0,0,0,3.86-4,10.63,10.63,0,0,0,.42-1.54c.21-1.18.4-1.52.89-1.62a6.43,6.43,0,0,0,3.48-2.95,3.3,3.3,0,0,0,.4-2,11.08,11.08,0,0,0-3.18-8.2,3.28,3.28,0,0,0-1.49-1c-1-.3-1.54-.25-1.86.16s-.28,1,.14,1.79a1.87,1.87,0,0,1,.19,1.34,2.92,2.92,0,0,1-1.52,2.5,2,2,0,0,1-1.73.45,9.31,9.31,0,0,0-3-.17,6.72,6.72,0,0,0-2.49,1.37,1.67,1.67,0,0,1-.67.41c-.24,0-.55-.44-1.22-1.76a8.63,8.63,0,0,0-.94-1.51,11.45,11.45,0,0,1-1.44-1.91,2.72,2.72,0,0,1,.44-.58A6.11,6.11,0,0,0,661,279.9a5,5,0,0,1,.32-1.12,8.08,8.08,0,0,0,.44-2.31c.14-1.6.16-1.82.45-4.29a10.07,10.07,0,0,0-.06-3.58c-.14-1-.29-2.92-.33-4.2a22.41,22.41,0,0,0-.33-3.52c-.14-.65-.32-1.56-.39-2a20.66,20.66,0,0,0-1.3-4.78c-.38-.94-.68-1.76-.68-1.83a21.63,21.63,0,0,0-1.38-3.22,6.21,6.21,0,0,1-.51-1.14,3.28,3.28,0,0,0-.33-.79c-.19-.33-.54-1-.79-1.49s-.63-1.14-.85-1.46a8,8,0,0,1-1-1.93,5.35,5.35,0,0,0-2.43-2.08,2.28,2.28,0,0,1-.77-.43c-.7-.54-1.18-.65-3.27-.76a11.27,11.27,0,0,0-4.48.44,21.92,21.92,0,0,1-2.06.76c-.83.28-1.62.55-1.76.61l-1.1.5a5.55,5.55,0,0,1-1,.4,8.4,8.4,0,0,0-1.92,1.05c-3.87,2.56-5.1,3.36-5.35,3.47a15.13,15.13,0,0,0-2.43,1.62l-1.91,1.41-1.33,1a3.62,3.62,0,0,1-.8.51.5.5,0,0,0-.29.19,1,1,0,0,1-.61.19A5.41,5.41,0,0,1,622,251h0a14.35,14.35,0,0,1-1.82-.44c-.42-.15-.67-.55-.52-.83l0-.09c-12.81-1.14-25.56.59-37.63-3.48a.53.53,0,0,1-.15.53.92.92,0,0,1-.74.25,44.69,44.69,0,0,0-7,.94c-1.81.39-2.71.57-2.92.57s-3.55.78-4.3,1c-.21.07-.78.21-1.26.33a15.19,15.19,0,0,0-1.65.5,4.64,4.64,0,0,1-1,.3c-.26,0-.8-.47-.8-.7a5.83,5.83,0,0,0-1.16-2,39.14,39.14,0,0,0-4.37-4,6.63,6.63,0,0,1-.94-.76,4.52,4.52,0,0,0-1.07-.68l-2.35-1.18a6.71,6.71,0,0,0-2-.78,5.16,5.16,0,0,1-1-.17,14.7,14.7,0,0,0-1.62-.33c-.56-.08-1.29-.2-1.64-.27-2.7-.5-5.61-.47-7,.06a4.58,4.58,0,0,1-1.2.33,7.45,7.45,0,0,0-2.36,1.41,12.45,12.45,0,0,0-.85,2.49c-.12.45-.3,1-.39,1.29-.27.73-.36,2.52-.36,6.81,0,5.36.06,6,.88,10l.18.69a8.35,8.35,0,0,1,.2.82c0,.14.14.54.24.88a5.85,5.85,0,0,1,.19,1.34v.71l-1.58,1.74a31.19,31.19,0,0,0-2.38,2.93,34.48,34.48,0,0,1-2.39,3.23,12.86,12.86,0,0,0-1.18,2.12c-.37.82-1.12,2.43-1.67,3.57a28.68,28.68,0,0,0-2.15,5.2c-.07.65-.54,1.09-1.89,1.78-.63.32-1.29.67-1.48.79-3.53,2.2-3.6,2.25-4.69,3.2-3.65,3.22-6.36,6.54-7.22,8.87-.19.53-.64,1.64-1,2.47a18,18,0,0,0-.71,1.86,1.89,1.89,0,0,1-.12.46c0,.05-.17.67-.31,1.37a20,20,0,0,0-.25,4.21,35.24,35.24,0,0,0,.13,3.6c.07.37.21,1.32.31,2.11a6.48,6.48,0,0,0,.84,2.75,11,11,0,0,0,1,1.71c.18.21.56.71.85,1.1s2.22,2.4,4.3,4.47c3,2.95,3.8,3.85,3.83,4.13a73.21,73.21,0,0,0,2,7.71c.11.31.28.85.38,1.21a10.78,10.78,0,0,0,.72,1.69c.31.58.79,1.65,1.08,2.38a17.89,17.89,0,0,0,1,2c.47.77,2.08,3.75,2.08,3.84s.38.64.85,1.35c3.09,4.62,3.75,5.58,4.17,6,.25.28.65.77.87,1.08a11,11,0,0,0,2.48,2.87c.54.44,1.72,1.49,2.62,2.32,1.9,1.78,3.09,2.82,4.15,3.63a11.8,11.8,0,0,1,1.12,1,1.54,1.54,0,0,0,.47.39,10.53,10.53,0,0,1,1.24.66l1.36.79c.43.25,1.72,1.12,2.15,1.46a6.51,6.51,0,0,0,1.13.62A8,8,0,0,1,549,372a11.24,11.24,0,0,0,1.22.73,3.68,3.68,0,0,1,.72.44,4.22,4.22,0,0,0,.9.52c.92.46,1.68,1.11,1.68,1.43a2,2,0,0,1-.47.74c-.27.29-.73.84-1,1.22s-.89,1.05-1.29,1.49a19.17,19.17,0,0,0-2.55,3.79,3.11,3.11,0,0,0-.47,1.82c0,1.79.15,2.41.81,3.28.36.47.58.88.53,1s-1.81.19-14.41.19c-7.88,0-17,.06-20.3.12-4.76.09-7,.08-11-.08a119.9,119.9,0,0,0-13.6.1,4.13,4.13,0,0,1-1.73,0,2.65,2.65,0,0,0-1.37,0,16.59,16.59,0,0,1-3.67,0l-3-.15-.57-.61a2.78,2.78,0,0,0-1.07-.78,4.41,4.41,0,0,1-.81-.37l-.85-.55a3,3,0,0,0-1.44-.45,42.36,42.36,0,0,0-6.13,0c-1.81.12-2,.15-2.7.51a12.78,12.78,0,0,0-3,2.26,6.5,6.5,0,0,0-.87,2.51,38.23,38.23,0,0,0-.24,6,4.37,4.37,0,0,0,.69,2.23c.58.85.67,1.25.82,3.78.26,4.54.34,5.24.59,5.68a2.9,2.9,0,0,0,1.44,1.1c.39,0,1.08.84,1.17,1.41.15.95.58,3.16.71,3.68a33.65,33.65,0,0,1,1.05,6c.21,2.09.38,5.69.6,13.07.2,6.62.22,6.16-.26,7.07a12.14,12.14,0,0,0-.91,3.84,5.82,5.82,0,0,1-.19,1.16,14.17,14.17,0,0,0,0,4.64,6.85,6.85,0,0,0,1.94,3.9,4.52,4.52,0,0,0,2.33,1.72,13.33,13.33,0,0,0,5.87.59l1.42-.15,1.51.63a23.44,23.44,0,0,0,5,1.6c2.11.49,2.58.61,3.71.95a18.64,18.64,0,0,0,3.62.74,17.51,17.51,0,0,1,3,.58l1.38.39,1.32.36,1.41.36,1.51.38c.4.1,1.31.3,2,.44,2,.4,4.5,1,5.46,1.26.49.15,1.65.4,2.58.57,1.71.31,2.46.46,4.65.95.65.15,1.45.31,1.77.37s.8.16,1.07.23,1,.23,1.68.34,1.59.33,2.07.46,1.42.38,2.08.54c1.11.27,1.66.39,4.11.89.54.11,1.31.27,1.73.37s1.29.26,2,.38a15.26,15.26,0,0,1,1.69.38,7.77,7.77,0,0,0,1.38.24c.49.05,1.22.16,1.64.25s1.23.24,1.82.31,1.43.21,1.88.32,1.36.27,2,.38c1.19.19,2.27.41,3.71.75.94.22,2.19.48,3.58.75,2.45.49,4.49.91,5.46,1.13l1.57.36c1.29.3,2.49.55,3.71.77l2.07.38,2.08.38a37.64,37.64,0,0,1,4.33.94c.66.19,1.65.44,2.2.55,2.24.47,2.91.62,3.39.77s1.6.45,2.8.74l3.55.88c.93.24,2.48.61,3.45.82l2.64.59c1.19.26,2.37.53,3.2.74l1.7.38c1.41.31,3.13.78,5.46,1.49.31.1.94.27,1.38.39l1.32.37,1.32.38c.45.12,1,.3,1.32.39s.84.26,1.26.37,1.09.35,1.51.51a17.71,17.71,0,0,0,5,1.18,17.8,17.8,0,0,1,3.26.71l2,.63a5.6,5.6,0,0,1,1.19.43.9.9,0,0,0,.48.12,3.94,3.94,0,0,1,1.09.3,7.58,7.58,0,0,0,1.16.38l1.17.26,2,.45a5.76,5.76,0,0,1,1.3.38.33.33,0,0,0,.25.11,7.52,7.52,0,0,1,1.88,1.28,9.87,9.87,0,0,0,.89.7A28.3,28.3,0,0,0,631,495.1a9.18,9.18,0,0,0,1.45.59,19.51,19.51,0,0,0,5.82.05,18.28,18.28,0,0,0,4-1.86,3.42,3.42,0,0,1,.81-.46c1.44-.62,4.4-3.25,4.86-4.32a3.34,3.34,0,0,0,.26-.81c0-.44.8-1,1.39-1a11,11,0,0,0,2.59-.77,6.63,6.63,0,0,1,1.05-.36c.13,0,3.15-1.23,4.2-1.71l2-.82c.86-.35,1.86-.78,2.23-.94,1.64-.75,2-.92,2.67-1.18l.94-.39.94-.37c.38-.15.81-.32.94-.39.86-.38,4.18-1.69,5-2,.51-.17,1.22-.44,1.57-.6s1.16-.47,1.82-.69,1.3-.45,1.44-.51.62-.25,1.07-.41c1.33-.49,3.55-1.35,4-1.54a2.18,2.18,0,0,1,.48-.18,2.18,2.18,0,0,0,.48-.18l2.47-.93L689,472c.87-.31,1.62-.57,1.68-.57s2.29-.88,3.15-1.27l1.61-.61c.74-.28,1.45-.56,1.57-.63s1-.49,2.73-1.26l2.93-1.34a10.48,10.48,0,0,1,1-.42,4.29,4.29,0,0,0,.59-.23c.28-.13,1.13-.48,1.89-.78,1.34-.52,1.8-.71,3.14-1.32.64-.28,1.52-.65,2.31-.95a3.1,3.1,0,0,0,.76-.42,5.78,5.78,0,0,1,3.54-1.25,10.27,10.27,0,0,0,4.28-1.31c1.77-.87,2.41-1.66,2.23-2.8a3.44,3.44,0,0,1,0-1.16c.06-.29.25-1.14.42-1.9a13.24,13.24,0,0,0,.32-2.22,4.9,4.9,0,0,1,.19-1.34,15,15,0,0,0,.27-4.06,3.41,3.41,0,0,0-.49-1.49c-.8-1.33-.77-1.16-.55-2.62.11-.74.29-2.05.4-2.91s.28-2,.38-2.57c.29-1.65.53-3.41.73-5.47.11-1.07.26-2.57.34-3.33s.19-2.74.25-4.4.16-3.46.23-4,.13-2,.13-3.16V414l.65-.86c1.24-1.62,1.52-2.92,1.8-8.2.22-4,.17-3.8,1-4.5.64-.56.94-1.53,1.28-4.11A13,13,0,0,0,729.78,391.92Zm-56-103c.54-.54.67-.61.88-.49s.26.21.26.3a4.45,4.45,0,0,1-.64,1.59c-.31.43-.53.46-.87.12S673.13,289.58,673.82,288.89ZM645,381.42l-.22.42c-.49.91-2.64,2-4.76,2.39l-1,.21a1.41,1.41,0,0,1-.67-.13,3.08,3.08,0,0,0-1-.19,3.72,3.72,0,0,1-2.26-.62,8.64,8.64,0,0,1-.77-2.2,3.48,3.48,0,0,0-.38-1,4.58,4.58,0,0,1-.37-.91c0-.26.5-.52,1.19-.61a3.5,3.5,0,0,0,1.09-.36c1.87-1.1,3-1.74,3.65-2a10.21,10.21,0,0,0,1.28-.7,2.14,2.14,0,0,1,.8-.39c.57,0,1.75,1.9,2.8,4.5Zm-2.66,9.36a11.31,11.31,0,0,1-.87,3.17,27.41,27.41,0,0,1-3.58,4.6c-1.63,1.85-2.29,2.39-3.19,2.63a5.16,5.16,0,0,1-1,.15c-.77,0-4.16-2.7-4.68-3.7a6.42,6.42,0,0,0-.66-.95,15.69,15.69,0,0,1-2.39-3.83,3.13,3.13,0,0,1,1.42-1.8,30.38,30.38,0,0,1,6.12-1.6,22.82,22.82,0,0,1,6.58,0,2.84,2.84,0,0,0,1,.22A1.23,1.23,0,0,1,642.29,390.78Zm24.58-100.23a2.31,2.31,0,0,1,1.55-.53,2.54,2.54,0,0,1,1.34,1.35,6.17,6.17,0,0,1,.38,4.53,7.35,7.35,0,0,1-1.68,2.43,2,2,0,0,1-.71.49c-.49,0-1.26-1.65-1.64-3.54C665.68,293.2,666,291.27,666.87,290.55Zm-88.71-39.06c2.06-.89,4.06-1.18,4.58-.66s.3.79-.94,1.49c-1.8,1-4.66,2.44-5.71,2.85-1.6.62-2,.7-2.26.48C572.81,254.94,574.94,252.89,578.16,251.49Zm-26.67-5.68a3,3,0,0,1,1,.5.33.33,0,0,0,.26.13c.31,0,1.64,1.17,3.73,3.29,1.4,1.41,2,2.07,1.92,2.21a1.22,1.22,0,0,1-.6.43c-.89.37-1.16.3-1.66-.38a9.53,9.53,0,0,1-.77-1.27A14.06,14.06,0,0,0,553,247.5C551.52,245.93,551.42,245.81,551.49,245.81Zm-12.22-1.38a6.15,6.15,0,0,1,3.52.75l1.07.53a13.3,13.3,0,0,1,2.07,1.37c.66.52,1.46,1.12,1.78,1.34a25.56,25.56,0,0,1,3.57,4.11,5.38,5.38,0,0,1,.94,1.85c0,.27-.75.91-1.61,1.37s-.85.46-2.16,1.23a32.54,32.54,0,0,0-2.89,2c-3,2.19-4.35,3.24-5,3.85s-.95.8-1.19.64-.47-.74-1.11-4.05a26.78,26.78,0,0,1-.59-5.67C537.35,247.72,537.83,245,539.27,244.43Zm11,123.31c-.18-.14-.61-.42-.94-.62l-1.28-.75-1-.59c-.18-.11-.69-.43-1.12-.72a5.53,5.53,0,0,0-.91-.53,1.9,1.9,0,0,1-.52-.36,7.41,7.41,0,0,0-1.2-.76,8.34,8.34,0,0,1-1.57-1.12,12.69,12.69,0,0,0-1.45-1.15A7,7,0,0,1,539,360c-.36-.41-1.59-1.58-2.73-2.61a32,32,0,0,1-2.51-2.45l-1-1.23a43.1,43.1,0,0,1-2.51-3.72,8.88,8.88,0,0,0-.7-1.09,10.74,10.74,0,0,1-.81-1.37c-.33-.62-.77-1.41-1-1.75a19.87,19.87,0,0,1-1.53-3,8.26,8.26,0,0,0-.65-1.36,11,11,0,0,1-1.22-2.9,8.73,8.73,0,0,0-.68-1.76c-1.34-2.58-1.79-4-1.34-4.15.15-.06.34,0,.55.21a13.36,13.36,0,0,0,2.9,1.35,7,7,0,0,1,1,.52,3.31,3.31,0,0,0,2,.73,6.79,6.79,0,0,1,2.39.56,8.57,8.57,0,0,0,1.32.38c.54.11,1.27.28,1.62.38a17.89,17.89,0,0,0,4.83.57c1.56.05,3.23.16,3.71.23a25.57,25.57,0,0,0,4.71.44,24.15,24.15,0,0,0,5.49-.53,3.22,3.22,0,0,1,1.07-.14,19.77,19.77,0,0,0,3.56-.52,4.5,4.5,0,0,0,1.09-.36,9.44,9.44,0,0,1,1.56-.51c.61-.15,1.45-.4,1.87-.56.7-.27,1-.38,2.63-.88a4.62,4.62,0,0,1,.89-.19,19.06,19.06,0,0,0,3.7-1.6,27.24,27.24,0,0,0,4.82-3.07c.44-.37,1.3-1.06,1.9-1.55a14.16,14.16,0,0,0,4.39-5.2,14.63,14.63,0,0,0,.7-1.58,5.31,5.31,0,0,1,.9-1.72c1.07-1.6,1.41-3.37,1.41-7.39a20.77,20.77,0,0,0-.8-6.66,11,11,0,0,0-1.5-3.45,4.82,4.82,0,0,1-.5-.82,5.3,5.3,0,0,0-.63-.94,11.85,11.85,0,0,1-.76-1A10,10,0,0,0,578,298a5.09,5.09,0,0,1-1.07-1.27,1.77,1.77,0,0,0-.53-.69,7.49,7.49,0,0,1-1-.88,3.17,3.17,0,0,0-.92-.73,2.41,2.41,0,0,1-.78-.54,4.24,4.24,0,0,0-3.72-1.35c-1.46,0-1.56,0-1.87.31a1,1,0,0,0-.34.58,5.64,5.64,0,0,0,2,1.95,24.59,24.59,0,0,1,4.33,3.58,6,6,0,0,0,.88,1,6.14,6.14,0,0,1,.88,1,9.63,9.63,0,0,0,1,1.22,5.87,5.87,0,0,1,1.73,2.8,2.85,2.85,0,0,0,.3.93,8,8,0,0,1,1.19,4.65,8.87,8.87,0,0,1-.17,2.36,4.93,4.93,0,0,0-.19,1.26,2.83,2.83,0,0,1-.57,1.64,6.69,6.69,0,0,0-.63,1.36,2.39,2.39,0,0,1-.18.57c-.06.12-.37.75-.7,1.4A13.08,13.08,0,0,1,575,323a27.47,27.47,0,0,1-3.64,3.18c-.33.21-.78.52-1,.7-.38.31-1.75,1.26-2.29,1.58-.13.08-.67.36-1.19.61l-1.16.57a9.05,9.05,0,0,1-.94.38c-.4.14-.84.31-1,.37-.42.19-4,1.39-5.72,1.93a37.62,37.62,0,0,1-4.52,1.13,89.93,89.93,0,0,1-9,.47,59.46,59.46,0,0,1-9.38-.85,3.75,3.75,0,0,0-1.11-.17,4.76,4.76,0,0,1-1.54-.32,19.12,19.12,0,0,0-1.92-.58,16.86,16.86,0,0,1-3.27-1.16,4.18,4.18,0,0,0-.63-.34c-1.11-.52-3.17-1.55-4.14-2.07a16.72,16.72,0,0,1-2.7-1.63c-.28-.21-.92-.66-1.42-1a27.43,27.43,0,0,1-3.08-2.76c-2.54-2.51-3.41-3.74-3.79-5.35a5.57,5.57,0,0,0-.36-1.11,2.42,2.42,0,0,1-.23-.82,12.45,12.45,0,0,0-.41-1.72,4.59,4.59,0,0,1-.26-2.26,10,10,0,0,0,0-2.6c-.25-1.4,1.78-6.84,3.09-8.27a6.09,6.09,0,0,0,.94-1.51,16.59,16.59,0,0,1,3.4-4.33,38,38,0,0,1,6-4.2,29.29,29.29,0,0,1,2.62-1.32,2.84,2.84,0,0,0,.62-.33,5.13,5.13,0,0,1,1-.41,6,6,0,0,0,.95-.38,14.16,14.16,0,0,1,2.76-1c1.08-.28,2.35-.52,6.36-1.2a43,43,0,0,1,7.64-.68c3.35-.07,3.44-.08,3.66-.35s.21-.39.13-.8c-.15-.81-.59-1.18-1.73-1.42a25.05,25.05,0,0,0-7.82-.36l-2.7.35c-2.2.29-5.47.83-6.83,1.14-.8.18-1.14.11-1.15-.25a29,29,0,0,1,2-4.48,22.45,22.45,0,0,1,3.07-5c.26-.28,1-1.15,1.54-1.95,1.44-1.94,2.36-2.82,6.37-6.09a14.43,14.43,0,0,1,2.51-1.82,4.64,4.64,0,0,0,.91-.73,23.52,23.52,0,0,1,4.06-3s.43-.26.89-.57a6.14,6.14,0,0,1,.91-.56,2.48,2.48,0,0,0,.54-.37,20,20,0,0,1,3.82-2c.41-.15,1.74-.68,3-1.19s2.54-1,3-1.13.87-.26,1-.32a31.63,31.63,0,0,1,3.07-1.12c4.5-1.47,4.6-1.47,4.08.05a4.08,4.08,0,0,0-.08,2.77,4.38,4.38,0,0,0,2.85,3.07c2.25.69,3.74.15,13.13-4.73a25.19,25.19,0,0,1,2.64-1.23l1.13-.38a25.91,25.91,0,0,1,4.66-1c.39,0,1.27-.18,1.95-.32,1.82-.36,2.81-.34,8.4.2a74.38,74.38,0,0,1,9.3,1.5c1,.23,2.27.5,3.51.76.56.11,1.3.28,1.65.38a4.88,4.88,0,0,0,.83.18,7.71,7.71,0,0,1,1.33.5c1.73.77,2.31.67,3.77-.67a36.14,36.14,0,0,1,6.52-4.72c.54-.31,1.4-.88,1.91-1.26l1.26-.94,1-.72a4.28,4.28,0,0,1,.71-.48s.51-.26,1.06-.57a5.43,5.43,0,0,1,1.18-.56,10,10,0,0,0,1.55-.7,14.07,14.07,0,0,1,2.25-.93,21,21,0,0,1,5.49-.28,1.83,1.83,0,0,1,1.47.86,9.64,9.64,0,0,1,1.86,4.19,39.21,39.21,0,0,1,.93,5.46,7,7,0,0,0,.14,1.19,23.37,23.37,0,0,1,.13,8.65,22.57,22.57,0,0,0-.26,2.52,20,20,0,0,1-.61,4,3.81,3.81,0,0,0-.19.91,10.72,10.72,0,0,1-.7,2.71c-.15.41-.33,1-.39,1.22a10.72,10.72,0,0,1-.45,1.19c-.65,1.46-.67,1.58-.43,2.12a2.51,2.51,0,0,0,1.41,1.31,1.12,1.12,0,0,0,1-.05,5.57,5.57,0,0,0,2.15-2.11,5.32,5.32,0,0,1,.63-.94,4.08,4.08,0,0,0,.62-1.06,34.72,34.72,0,0,0,.89-4.12,5.41,5.41,0,0,1,.27-1.12,3.13,3.13,0,0,0,.18-1c0-.81.38-2,.63-2s.18.44.16,2.86c0,6-.89,9.92-2.08,9.63s-1.2-.25-1.6.15c-.63.62-.5,1.35.52,2.91a7.86,7.86,0,0,0,1.5,1.56c1.56,1.28,2,1.71,2.28,2.27a10.47,10.47,0,0,0,.73,1.13,49,49,0,0,1,3.2,6.42c.26.68.63,1.64.82,2.12a13.21,13.21,0,0,1,.53,1.77,9.67,9.67,0,0,0,.56,1.7,6.14,6.14,0,0,1,.46,1.4,3.1,3.1,0,0,0,.19.82,16.84,16.84,0,0,1,.91,2.86c.28,1.65.49,3.13.61,4.33.07.73.22,1.94.33,2.7a33,33,0,0,1,.14,5.34c0,2.18-.12,4.33-.2,4.77a39.57,39.57,0,0,0-.52,4.4,15.64,15.64,0,0,1-.19,1.85c-.1.64-.21,1.37-.23,1.63a17,17,0,0,1-.53,2.61c-.14.43-.4,1.55-.62,2.64a50.64,50.64,0,0,1-1.76,5.53l-.76,1.95c-.25.65-.81,1.93-1.24,2.82s-.86,1.86-1,2.14a18.77,18.77,0,0,1-2.18,4c-.15.22-.43.67-.62,1-.32.56-1.44,2.2-3.79,5.54-.48.67-1.18,1.6-1.57,2.05-1.25,1.46-6.33,6.66-7,7.13-.34.25-.91.7-1.26,1a5.79,5.79,0,0,1-.9.67l-.7.4-.85.53c-.22.14-.85.56-1.39.94s-1.18.81-1.41.94l-.86.54a7.58,7.58,0,0,1-.73.41,9,9,0,0,0-2.08,1.13,3.71,3.71,0,0,1-1.09.56,5.36,5.36,0,0,0-.94.38,26.41,26.41,0,0,1-4,1.49c-.48.11-1.44.29-2.13.4s-1.67.28-2.17.38a9.81,9.81,0,0,1-1.47.18,7.17,7.17,0,0,0-1.54.3l-1.51.44c-.67.19-.83.48-.75,1.35a2.63,2.63,0,0,0,2.23,2.58,4.73,4.73,0,0,0,2.07-.13c.76-.14,1.77-.38,2.26-.52,2.32-.68,4.13-.91,4.62-.59a4.8,4.8,0,0,1,1.32,2.07c.22,1-.49,1.81-1.83,2.23-.4.12-.86.28-1,.34a15.07,15.07,0,0,1-3.21.59c-1.14,0-6.88.39-8.54.58-2,.23-2.26.23-2.64,0a5.61,5.61,0,0,1-.93-1.17,6,6,0,0,0-2.69-2.31c-.67-.32-.78-.34-1.13-.2a11.66,11.66,0,0,0-2.08,1.29,5.13,5.13,0,0,0-1,2.05,1.17,1.17,0,0,1-.29.61l-.29.34-3.45,0c-1.89,0-3.81,0-4.26-.07-2.43-.31-2.55-.33-2.72-.57a1.11,1.11,0,0,1-.17-.54,6.19,6.19,0,0,1,.88-2.43c.31-.38.38-.4,1.58-.49,2.73-.21,4.37-.56,4.74-1a.88.88,0,0,0,.17-.79c-.23-1.75-.55-1.92-3.85-2.07-1.21-.06-2.77-.17-3.46-.24-1.41-.16-5.94-.38-8.8-.43a13.39,13.39,0,0,1-2-.13,8.67,8.67,0,0,0-1.5-.2,13.37,13.37,0,0,1-2-.29,23.74,23.74,0,0,0-3.64-.6,15.58,15.58,0,0,1-2-.37l-2.58-.58c-.52-.11-1.42-.36-2-.55s-1.75-.53-2.58-.76-1.92-.57-2.43-.77A6.27,6.27,0,0,0,564,374a8.06,8.06,0,0,1-2.21-.77c-.42-.2-1.35-.56-2.08-.81a24.3,24.3,0,0,1-4.54-2A39,39,0,0,1,550.31,367.74Zm34.39,19.09a2.63,2.63,0,0,1-.2-.82,4.3,4.3,0,0,0-.23-1c-.57-1.66-.45-1.94.79-1.8a4,4,0,0,1,1,.21,14.53,14.53,0,0,0,3.12.47,1.89,1.89,0,0,1,1.39.42,5.73,5.73,0,0,1,.1,1.24,5,5,0,0,0,.29,1.91c.2.54.26.87.18,1s-.5.2-3.23.2c-3.57,0-3.6,0-3.22-.86A.88.88,0,0,0,584.7,386.83Zm-32-3.69c.1-.18.41-.72.67-1.2a12,12,0,0,1,1.29-1.74,15.94,15.94,0,0,0,2.09-2.67,2.86,2.86,0,0,1,.52-.68c.32-.3.36-.3,1-.15s2,.59,5.3,1.66,3.27,1.07,4.72,1.49l1.88.56c1,.31,3.07.77,5.09,1.14,2.67.48,4.25,1.05,4.67,1.68a2,2,0,0,1,.41,1.68,4.85,4.85,0,0,1-1.63,1.56,10.59,10.59,0,0,1-1.44.43h0a20.7,20.7,0,0,1-4.34.29c-3.82.06-6,0-6.66-.32-.37-.17-.54-.39-1-1.42a7.2,7.2,0,0,0-2.63-3c-.76-.32-1.15-.24-2.22.45a4.08,4.08,0,0,0-2,2.5,3.71,3.71,0,0,1-.55,1l-.31.34h-1.89c-2.23,0-2.73-.11-3.37-.75S551.65,385,552.72,383.14Zm-85.93,14.08c-.39.28-.54.28-.8,0s-.21-.46-.2-1.1a16.77,16.77,0,0,1,.69-4.22,4.74,4.74,0,0,1,1.36-1.48.66.66,0,0,0,.32-.18,9.36,9.36,0,0,1,2.9-1c1.63-.29,3.39.19,3.5.94a2.72,2.72,0,0,1-.23,1c-.29.69-.87,1.31-3.15,3.34a14,14,0,0,1-3.11,2.12A5.77,5.77,0,0,0,466.79,397.22Zm2.64,10.08a1.75,1.75,0,0,0-.54-.18c-.27,0-.56-.39-.7-.95a21.79,21.79,0,0,1-.21-2.48l-.08-2,.4-.38a1.55,1.55,0,0,1,.61-.38c.29,0,.93-.44,3.3-2.19.56-.41,1.45-1.05,2-1.41a15,15,0,0,0,1.58-1.27c.35-.34,1-1,1.5-1.42a9.27,9.27,0,0,0,1.23-1.38c.56-.85.72-.91,2.45-.82a63,63,0,0,0,9.06,0c6.92-.65,9.51-.73,11.27-.39.89.17,3.59.2,23.56.19,12.4,0,23.91,0,25.56-.08,4.22-.1,58.55.18,61.31.32,1.24.07,2.71.18,3.27.25s2.39.16,4.08.2c2.86.08,3.1.11,3.36.34a13.76,13.76,0,0,1,1.18,1.9,39.66,39.66,0,0,0,2.57,4.35,40.4,40.4,0,0,0,5.18,5.2c.95.6.95.53.86,6.54a53.89,53.89,0,0,1-.26,6.35c-.43,2.42-.6,3.53-.63,4,0,.26,0,.64,0,.83a1.12,1.12,0,0,1-1.21,1,2.55,2.55,0,0,0-1.13.3,4.27,4.27,0,0,1-2.17.36,10.18,10.18,0,0,1-3.37-.23c-1.69-.34-1.9-.42-2.3-.87l-.38-.43v-3a23.05,23.05,0,0,0-.27-4.42c-.14-.81-.28-1.52-.31-1.57a8.67,8.67,0,0,1-.24-1.29,9.54,9.54,0,0,0-1.47-4,5.14,5.14,0,0,0-2.46-2.49,3.57,3.57,0,0,1-.85-.5,5.3,5.3,0,0,0-2.45.09,5.31,5.31,0,0,1-1.76.12,9.46,9.46,0,0,0-3.66.53,3,3,0,0,0-1.56,1.65c-.18.39-.49,1-.69,1.41a4.86,4.86,0,0,0-.43,1.22c0,.28-.14.88-.24,1.33a3.37,3.37,0,0,0-.11.88,2.31,2.31,0,0,1-.14.75,8.67,8.67,0,0,0-.25,1c-.39,2.89-.71,6.16-.71,7.11,0,.64,0,.74-.29.86a1.49,1.49,0,0,1-.95,0,6.93,6.93,0,0,0-1.24-.14,52.47,52.47,0,0,1-5.56-.69c-1-.17-2.33-.33-2.95-.38s-1.78-.16-2.57-.26c-3.57-.47-4.38-.58-5-.69a46.55,46.55,0,0,0-5.52-.62,12.1,12.1,0,0,1-2-.18,10,10,0,0,0-1.82-.2,12.69,12.69,0,0,1-1.64-.13c-.86-.14-2.55-.31-4.83-.49-1-.08-2.55-.22-3.52-.32l-4-.38c-1.21-.1-2.93-.27-3.83-.37-3-.34-5.53-.57-6.33-.57-.43,0-1.62-.08-2.63-.18-4.39-.45-5.75-.58-8-.76l-4-.33c-.86-.07-2.47-.18-3.58-.24s-2.52-.18-3.14-.28-1.84-.26-2.7-.34a21.58,21.58,0,0,1-2.32-.33,8.09,8.09,0,0,0-1.39-.17c-.34,0-1.39-.08-2.32-.19-2.41-.26-5.86-.55-7.48-.63-.76,0-2.06-.12-2.88-.18s-2.76-.22-4.28-.32-3.58-.28-4.58-.38L498,412.2a44.48,44.48,0,0,1-7.9-1.2,1,1,0,0,1-.44-.41,35.89,35.89,0,0,1-.46-5.48,8.51,8.51,0,0,0-.51-3.22c-.23-.69-.49-1.4-.58-1.57a6.44,6.44,0,0,0-1.64-1.94A2,2,0,0,0,485,398a4.61,4.61,0,0,0-3.19,1.18c-.74.65-1.2.83-1.57.63s-.85-.17-.95,0a.94.94,0,0,1-.44.2,3.06,3.06,0,0,0-1.66,1.33c-.68,1.16-.74,1.56-.73,4.64,0,2.68,0,2.85-.24,3.07s-.29.21-1.23-.05c-.54-.15-1.18-.32-1.42-.37a8.51,8.51,0,0,1-1.28-.51,6.58,6.58,0,0,0-1.67-.52A4.75,4.75,0,0,1,469.43,407.3ZM616.1,426.18a17.72,17.72,0,0,0-.19,2.37,15,15,0,0,1-.19,2.17,10.74,10.74,0,0,0-.2,1.61,40.8,40.8,0,0,1-1,6.82,4.83,4.83,0,0,1-1.59,2.79,2.11,2.11,0,0,1-1.18.22c-.7,0-.9,0-1.19-.29a6.3,6.3,0,0,0-.76-.51,8,8,0,0,1-1.33-1.11,3.43,3.43,0,0,1-1.27-2.67c0-.21-.11-.6-.18-.88a10.85,10.85,0,0,1-.22-1.44,6.52,6.52,0,0,0-.13-1s0-2.73.08-6c.12-5.66.36-10.2.62-11.79.07-.41.15-1.06.19-1.44s.12-1.06.19-1.51.18-1.21.25-1.69a4.1,4.1,0,0,1,1.09-2.74,1.92,1.92,0,0,1,.87-.59,3,3,0,0,0,.87-.27,1.34,1.34,0,0,1,1.75.28,1.47,1.47,0,0,1,.33.53,3.51,3.51,0,0,0,.51.84c1.53,2.12,2.12,3.23,2.12,4a6.37,6.37,0,0,0,.33,1.41,10,10,0,0,1,.45,2.79A53.48,53.48,0,0,1,616.1,426.18ZM480.29,409.31c-.1-1-.19-2.73-.19-3.92,0-2.09,0-2.19.31-2.64.74-1.13,1-1.26,1.74-.92l1.1.49c1,.46,1.34,1.07,1.68,3.41.18,1.26.59,7.29.58,8.61a16.11,16.11,0,0,0,.18,1.82c.1.66.24,2.72.33,4.59a28.84,28.84,0,0,1,0,5.12c-.16,1.49-.22,1.77-.48,2a1,1,0,0,1-.49.31c-.52,0-1.84-1.18-2.28-2a16.64,16.64,0,0,1-1.29-4.25,30.22,30.22,0,0,1-.57-3.71C480.91,417.73,480.47,411,480.29,409.31Zm-3.16,43.17a3.92,3.92,0,0,1-.94.75,3,3,0,0,1-1.51.23c-1.18,0-1.52-.11-2-.59s-.81-1.14-1-3.16c-.25-3.07.1-5.28.83-5.28a11.28,11.28,0,0,1,3,2.29,7.34,7.34,0,0,1,1.61,2,3.32,3.32,0,0,1,.45,2.06C477.59,452,477.59,452,477.13,452.48Zm147,33.07a2.53,2.53,0,0,1-.53.91c-.32.22-.43.22-.83,0a2.06,2.06,0,0,0-.85-.18,3,3,0,0,1-1.07-.28,28.54,28.54,0,0,0-3.67-1.24c-.28-.06-1-.25-1.63-.42s-1.73-.4-2.45-.51a18.42,18.42,0,0,1-2.89-.63,10.09,10.09,0,0,0-1.32-.28,9.63,9.63,0,0,1-1.71-.43,8.62,8.62,0,0,0-1.31-.36,6.08,6.08,0,0,1-.87-.18l-1.45-.4c-.45-.11-1.07-.28-1.38-.37l-1.39-.37c-.45-.12-1.34-.38-2-.58a11.67,11.67,0,0,0-1.37-.37,12.42,12.42,0,0,1-2.08-.58,3.32,3.32,0,0,0-.88-.17,6.73,6.73,0,0,1-1.48-.38,7.51,7.51,0,0,0-1.35-.37,7,7,0,0,1-1.07-.18l-1.78-.39-1.83-.39c-1.14-.25-5.51-1.33-7.53-1.86l-2-.52c-.33-.07-1.08-.28-2.28-.61a5.25,5.25,0,0,0-.93-.2,5.1,5.1,0,0,1-.87-.18c-.56-.16-2-.51-4.91-1.15l-1.63-.37-1.82-.38c-2.16-.42-3.06-.6-5.56-1.12-3.66-.77-4.33-.9-5.68-1.13-.7-.12-1.63-.3-2.08-.4-1.14-.26-2.15-.49-3.33-.73-1-.2-1.83-.41-2.89-.68a28.38,28.38,0,0,0-3.57-.64,13.66,13.66,0,0,1-1.5-.19l-2.27-.39c-.66-.11-1.75-.34-2.42-.5a15.53,15.53,0,0,0-2-.37c-.4,0-1.09-.15-1.54-.25l-1.88-.37c-2-.38-3.09-.6-4.53-.94-.79-.19-1.89-.45-2.45-.57l-1.69-.39c-1.55-.38-4-.93-5.09-1.12-.62-.11-1.47-.28-1.88-.38l-1.7-.37-1.7-.38c-3.44-.8-3.9-.9-5.08-1.14a70,70,0,0,1-8.24-2.21,5,5,0,0,0-1.13-.23,26,26,0,0,1-3.57-.56c-.56-.16-1.4-.36-3.27-.76-1.69-.36-2.69-.59-3.46-.78a26,26,0,0,1-4-1.33c-.46-.26-.5-.33-.51-.85a11.17,11.17,0,0,0-.43-2.63c-.13-.45-.27-1-.3-1.19a6.07,6.07,0,0,0-1-2,8.21,8.21,0,0,1-.59-1,5.75,5.75,0,0,0-.85-1.08,15,15,0,0,1-1.13-1.34,5.34,5.34,0,0,0-.68-.82,9.54,9.54,0,0,0-1.4-1.06,19.41,19.41,0,0,1-1.9-1.43c-.37-.3-.38-.34-.41-1.55,0-.68-.09-2.48-.16-4s-.18-4.57-.24-6.78c-.2-6.84-.59-11.14-1.27-14-.07-.27-.15-.61-.17-.75s-.12-.53-.21-.87c-.14-.57-.14-.63.11-.83s.33-.2,1.43,0a11.19,11.19,0,0,0,2.39.21,3.13,3.13,0,0,1,1.41.14c.16.14.2.46.21,1.69,0,.84,0,2.15.12,2.91s.17,2.34.25,3.51c.22,3.53.38,4.5,1,5.82a7.24,7.24,0,0,1,.52,1.39,8.62,8.62,0,0,0,1.74,2.45,6.79,6.79,0,0,0,1.4,1c.45.24,1.1.61,1.44.84.59.38.67.4,1.82.39,1.88,0,2.45-.19,3.35-1a5,5,0,0,0,1.49-2.27c0-.14.11-.49.19-.79a3.42,3.42,0,0,0,0-1.45c-.18-1.27-.3-11.47-.13-11.78s.73-.31,2.24-.05c1,.17,2.23.32,6.23.75,1.89.21,5.18.45,10.17.76,1.73.11,3.94.28,4.9.38s3,.27,4.46.38,3.27.28,4,.38l2.53.37a18.6,18.6,0,0,0,1.93.19c.36,0,1.65.16,2.87.36a57.76,57.76,0,0,0,7.17.77c1.23,0,5.85.33,7.74.56,3.37.4,9.34.95,10.37.94a52,52,0,0,1,5.52.57c.52.09,2.24.26,3.83.37s3.82.29,5,.39,2.38.19,2.75.18a18.46,18.46,0,0,1,2.13.24c.81.14,2.12.31,2.91.39s2,.22,2.7.32c1.4.19,3.58.45,6.35.75a64.35,64.35,0,0,1,7.41,1.13,8.76,8.76,0,0,0,1.34.24,12.47,12.47,0,0,1,1.66.33,12.35,12.35,0,0,0,1.61.32,6.6,6.6,0,0,1,1.36.34,8.78,8.78,0,0,0,1.81.35c1.81.16,1.68-.24,1.7,4.91v4.31l.39,1.51c.21.83.49,2,.62,2.58a2.83,2.83,0,0,0,1.05,1.93,11.56,11.56,0,0,0,1.45,1.28c.35.23,1,.69,1.44,1a11.08,11.08,0,0,0,3.1,1.58,6.42,6.42,0,0,0,2.5.28,4.26,4.26,0,0,0,2.14-.28,6.62,6.62,0,0,0,2.51-3.48c.12-.41.45-1.49.75-2.39a14.1,14.1,0,0,0,.74-3.45c.27-2.48.56-5.59.65-7,.14-2.19.39-2.42,2.35-2.08.71.13,1.54.3,1.85.39l.88.23c.17,0,.73.21,1.24.39.92.33,1.71.41,4.79.51l1.1,0c.09,0,.22.17.29.36s.18,3.16.25,7.25c.07,3.81.18,7.57.26,8.36.32,3.3.06,24.83-.33,27.73a4.45,4.45,0,0,1-1.35,3c-.37.41-1.17,1.39-1.77,2.18s-1.49,1.93-2,2.51A23.76,23.76,0,0,0,624.18,485.55Zm17.88,3.35a32,32,0,0,1-3.1,1.88,3.45,3.45,0,0,0-.73.33,7.71,7.71,0,0,1-2.47.81c-1.51.22-1.71.23-2,.13a3.46,3.46,0,0,0-.91-.12c-1,0-2.42-.85-3.85-2.21-1.13-1.07-1.22-1.29-.94-2.18.45-1.44,1.61-3.2,4.33-6.57a17.59,17.59,0,0,0,1.18-1.61,6.53,6.53,0,0,1,2.05-2,2.5,2.5,0,0,1,1-.27c.45,0,.93.31,2.37,1.53a34.2,34.2,0,0,1,3,3.53c.26.36.67.85.9,1.1a3.14,3.14,0,0,1,.91,1.94A4.73,4.73,0,0,1,642.06,488.9ZM719.32,448c-.08.52-.14,1.16-.15,1.42a3.38,3.38,0,0,1-.18,1,5,5,0,0,0-.19,1.26,2.31,2.31,0,0,1-.31,1.26,6.74,6.74,0,0,1-2.55,1.94c-.9.44-1.06.46-1.36.17s-.19-.35-.13-.85a7.08,7.08,0,0,1,1.08-3.15,11.35,11.35,0,0,1,2.91-4c.57-.4.59-.41.8-.17S719.44,447.16,719.32,448Zm1.75-29.53c-.08,1.45-.2,4.47-.26,6.69s-.2,4.57-.3,5.22-.28,1.95-.39,2.92c-.26,2.21-.5,3.78-1.09,7.29-.17,1-.37,1.28-1.08,1.46-.53.13-.82.36-2.69,2.23s-2.11,2.13-2.68,3.32c-.32.67-.8,1.58-1.06,2a6.56,6.56,0,0,0-1,4.18,7.56,7.56,0,0,0,.33,2.7,3.41,3.41,0,0,1,.24,1.24,4.79,4.79,0,0,1-1.94,1.19c-.31.13-1.53.7-2.7,1.27s-2.71,1.27-3.4,1.56l-2.64,1.16-2.13,1c-.42.19-1.29.55-2,.81a12.15,12.15,0,0,0-1.33.59,6.32,6.32,0,0,1-1,.41c-.47.17-1.26.48-1.74.7q-2.19,1-4.78,1.9c-.55.2-1.11.42-1.25.48s-1,.38-1.82.7-1.75.67-2,.77a2.84,2.84,0,0,1-.48.17,2.38,2.38,0,0,0-.49.18c-.21.09-1.1.44-2,.76l-1.82.7c-.31.13-1.48.59-2.08.81l-1.06.42c-.35.14-.94.34-1.32.45-.67.2-2.19.73-2.71,1l-.94.38-.94.37-1.32.54c-2.12.87-8.51,3.6-10,4.28a14.66,14.66,0,0,1-1.71.71,33.9,33.9,0,0,0-3.15,1.31c-.38.18-2.53,1-3.92,1.44l-.84.26c-.19,0-.77-.66-1.12-1.27a19,19,0,0,0-1.26-1.78c-.48-.6-1-1.28-1.13-1.52a22.66,22.66,0,0,0-4.16-4.82,10.81,10.81,0,0,0-2.49-1.23,1.51,1.51,0,0,1-.7-.36c-.25-.26-.25-.35-.15-1.71.07-.79.15-2.52.19-3.83s.1-3.23.14-4.27.11-2.73.18-3.77c.18-2.83.15-10.42,0-13.38-.12-1.68-.2-5.28-.22-10.35l0-7.77.36-.28a4,4,0,0,1,1.37-.5c2.57-.54,5.09-1.14,7.88-1.89l1.44-.38,1.38-.36a37.24,37.24,0,0,1,4.34-.77c1.81-.24,3.48-.51,4.65-.75.45-.09,1.49-.26,2.32-.38s1.93-.28,2.45-.38a27,27,0,0,1,3.36-.56,10.19,10.19,0,0,0,1.29-.18,23.86,23.86,0,0,1,3.94-.58,6.21,6.21,0,0,0,1.38-.17c.35-.1,1.21-.27,1.9-.39L677,420a8.11,8.11,0,0,1,1.32-.18,12.57,12.57,0,0,0,1.54-.18c.59-.09,1.89-.27,2.89-.38,4.58-.51,5.08-.58,10.49-1.51.56-.09,2-.26,3.21-.37s2.93-.28,3.83-.38l3.45-.38,3.27-.38c.79-.1,3.14-.27,5.21-.38s4.14-.24,4.59-.3,1.56-.15,2.48-.18c1.61-.07,1.67-.06,1.81.2A10.07,10.07,0,0,1,721.07,418.48Zm2.69-15c0,1.11-.09,2.22-.08,2.46a16.53,16.53,0,0,1-.72,4.12c-.33.65-.41.69-1.4.81-.45,0-1.1.15-1.44.21a9.63,9.63,0,0,1-1.54.13c-.5,0-1.69.09-2.64.19s-2.94.27-4.43.38-3.26.28-4,.38-2,.27-3,.38l-3,.38c-.73.1-1.48.19-1.68.19s-1,.08-1.7.19l-2.78.38-5.53.74c-1.29.19-3.26.45-5.84.77-.9.11-1.95.28-2.34.38a7.33,7.33,0,0,1-1.36.17,26.46,26.46,0,0,0-3.83.56c-.49.1-1.39.27-2,.37-1.06.18-1.61.27-4.9.78l-2.33.37-4.9.76c-1.69.26-3.43.55-4.46.75l-2.07.36-2.32.38c-1.63.26-3.84.57-8.23,1.14-.87.11-2,.28-2.64.38-2,.32-2.88.34-3.65.07a9,9,0,0,0-1.14-.32,1.68,1.68,0,0,1-1.25-1.39c-.09-.34-.29-1-.46-1.43a1.73,1.73,0,0,1-.17-1.34c.09-.35.14-2.48.14-6v-5.41l.46-.52a14.86,14.86,0,0,1,1.69-1.38,10.29,10.29,0,0,0,2.2-2.08c.54-.67,1.32-1.61,1.74-2.09a13.68,13.68,0,0,0,1.82-2.52,10.94,10.94,0,0,0,1.56-3.55,1.62,1.62,0,0,1,.44-.85l.34-.33,1.63.12,3.51.25,3.64.27c1,.07,4.73.18,8.35.24,7.52.13,52.83.18,53,.06s.75.36,1.17,1.26a11.45,11.45,0,0,0,.75,1.36,2.1,2.1,0,0,1,.33.51,4.62,4.62,0,0,0,.49.75,11.54,11.54,0,0,0,2.76,2.52,8.57,8.57,0,0,1,1.34,1.1l.47.52Zm2.32-8a6.27,6.27,0,0,1-.54,1.1c-.38.57-.8.58-1.9.06-.8-.37-1.7-1.15-1.7-1.45a3.63,3.63,0,0,0-.56-.77c-.71-.84-1-1.76-.79-2.16.38-.57,4.83-1,5.28-.5S726.5,394.35,726.08,395.48Z" transform="translate(-449.08 -195.05)"/><path class="cls-2" d="M608.36,223.59a1.54,1.54,0,0,0,2.11-.18c.42-.43.45-.51.43-1.28,0-.41-.11-.58-.63-1.08a3,3,0,0,0-2.26-.87,1.68,1.68,0,0,0-1.27,1.18A3.08,3.08,0,0,0,608.36,223.59Z" transform="translate(-449.08 -195.05)"/><path class="cls-1" d="M449.47,505.5a1,1,0,0,1-.28-.29c-.08-.12-.11-.09-.11.12s.07.28.28.28S449.59,505.58,449.47,505.5Z" transform="translate(-449.08 -195.05)"/><path class="cls-1" d="M562.71,311.33a2.93,2.93,0,0,0-2.23.85c-.47.37-.48.38-.74.14s-.26-.32-.19-1.5c.19-3.13.58-4.52,1.8-6.34.56-.83.58-.9.54-1.64a2,2,0,0,0-1.16-1.6c-.84-.5-1.56-.55-1.94-.12a13.41,13.41,0,0,0-2.48,5.68c0,.28-.13.8-.21,1.17a42.87,42.87,0,0,0,.12,7.06,8.18,8.18,0,0,0,2.44,4.59,3.8,3.8,0,0,0,1.85,1.07c1.14.23,1.45.13,2.38-.78a13.21,13.21,0,0,0,2.27-3.5,11.6,11.6,0,0,0,.13-1.79,3.24,3.24,0,0,0-.34-2.07A2.06,2.06,0,0,0,562.71,311.33Z" transform="translate(-449.08 -195.05)"/><path class="cls-1" d="M631,261.13a8.11,8.11,0,0,1,2.45.85,26,26,0,0,1,4.8,4.28c2.27,2.42,2.68,2.82,3.18,3.07s.57.27.89-.06.28-.85-.24-2.39a15,15,0,0,0-5.8-7.21c-2.18-1.31-3.83-1.72-4.73-1.16A3.08,3.08,0,0,0,630.1,260c-.14.41-.12.47.2.81A1.09,1.09,0,0,0,631,261.13Z" transform="translate(-449.08 -195.05)"/><path class="cls-1" d="M599.39,327.1a7.72,7.72,0,0,0,3.39-.3,9.37,9.37,0,0,0,2.34-1.17,7.54,7.54,0,0,1,1.79-1.18,3.19,3.19,0,0,1,.8.69,4.87,4.87,0,0,0,.94.82c.16.07.51.26.79.41a5.37,5.37,0,0,0,4.52.36,3,3,0,0,0,2-1.64,9.75,9.75,0,0,0-.26-4.6,13.75,13.75,0,0,0-3-4.58,22.35,22.35,0,0,1-2.78-3.55,4.34,4.34,0,0,0-1.32-1.7,1.51,1.51,0,0,0-1.22-.4c-1.36,0-1.66.78-.87,2.3.24.45.28.79.33,2.44a7.29,7.29,0,0,1-.21,2.76,9.93,9.93,0,0,1-2.71,4.21,12.76,12.76,0,0,1-1.63,1.44,5,5,0,0,0-.74.49,4.51,4.51,0,0,1-2.83.68c-1.27,0-1.66.15-1.66.65S598.44,326.83,599.39,327.1Zm9.37-5.23a16.36,16.36,0,0,0,1.31-3.45c.2-1,.6-1,1.38,0a6.6,6.6,0,0,1,1.41,3.58,2.3,2.3,0,0,1-.88,1.91,3.07,3.07,0,0,1-2.65,0C608,323.34,608,323.24,608.76,321.87Z" transform="translate(-449.08 -195.05)"/><path class="cls-1" d="M586.6,282.44c1.46.53,3.54-1,4-3.05a14.25,14.25,0,0,0,0-3.07,6,6,0,0,0-2.38-3.82,1.93,1.93,0,0,0-1.27-.56,2.52,2.52,0,0,0-1.7.55,5,5,0,0,0-.72,1.71s0,.14-.06.32a20,20,0,0,0-.5,3.53C584,280.21,585,281.84,586.6,282.44Z" transform="translate(-449.08 -195.05)"/><path class="cls-1" d="M593.61,437.08a7.72,7.72,0,0,0-.19-.82c-.08-.31-.17-.67-.2-.81s-.16-.59-.3-1c-.56-1.68-1.56-2.69-3.71-3.74a19.55,19.55,0,0,0-4.77-1.9l-1.79-.39c-4-.93-5.17-1-7.57-.76-3.24.4-6.93,1.25-8,1.85a7.54,7.54,0,0,0-2.74,2.85l-.4.84,0,2.43c0,2.92.1,3.8.87,5.11.27.47.59,1,.7,1.29.35.74,1.2,1.26,3.43,2.1a9.48,9.48,0,0,0,1.25.33,2.82,2.82,0,0,1,1.13.44l.33.28-.4.8a7.1,7.1,0,0,1-3.72,3.39,30.11,30.11,0,0,1-7.73.19c-.46-.11-1.52-.29-2.35-.41s-1.85-.28-2.26-.37c-1.3-.28-3.65-.76-5.5-1.12-2.35-.45-3.1-.61-3.74-.77l-1.69-.42-2.33-.57c-1.56-.39-2.49-.61-3.76-.89l-1.7-.39c-.76-.19-1.06-.27-3.2-.87l-1.57-.43a15.17,15.17,0,0,1-3.11-1.36,15.48,15.48,0,0,0-1.6-.86,25.9,25.9,0,0,1-4.38-2.35,4,4,0,0,1-.6-.73c-.15-.3-.15-.36,0-.57a3.07,3.07,0,0,1,1.16-.47,10,10,0,0,0,4.5-2.44,6.9,6.9,0,0,0,1.08-2.34,3.53,3.53,0,0,1,.25-.81,4,4,0,0,0,.11-1.64,9.68,9.68,0,0,0-2.91-6.65c-1.66-1.49-2.43-1.83-5.92-2.59-.52-.11-1.29-.29-1.7-.4a45.91,45.91,0,0,0-8.11-.17,12.94,12.94,0,0,0-5.1,2,7.78,7.78,0,0,0-2,2.92,17.66,17.66,0,0,0,.05,7.28c.48,1.08,1.73,2.06,3.89,3.05.73.34.93.69,1,1.84a8.44,8.44,0,0,0,.27,1.58,30.1,30.1,0,0,1,.53,4.32,3.44,3.44,0,0,0,.81,1.81,14.17,14.17,0,0,1,.89,1.51,10.25,10.25,0,0,0,4.56,4.58,8.35,8.35,0,0,0,1.45.63,5.25,5.25,0,0,1,1.68.61.51.51,0,0,0,.29.15,5.65,5.65,0,0,1,1,.38l1.24.55a13.34,13.34,0,0,0,1.26.45,15.06,15.06,0,0,1,1.47.58,3.43,3.43,0,0,0,.76.3,2.48,2.48,0,0,1,.66.26,8.89,8.89,0,0,0,2.39,1,6.74,6.74,0,0,0,1.2.23,10.61,10.61,0,0,1,3.13.9,4.53,4.53,0,0,0,1.56.56,15.36,15.36,0,0,1,2.33.62c.31.09,1,.26,1.57.37s1.55.36,2.2.56c4.36,1.32,4.64,1.38,6.91,1.51a15.38,15.38,0,0,1,3.83.58c1.48.49,2,.54,7.73.69,3.14.08,6.54.19,7.54.24s3.57.07,5.71,0c4.27-.07,3.91,0,6.9-1a16,16,0,0,1,1.7-.5,7.08,7.08,0,0,0,2.13-1.43,9.55,9.55,0,0,0,1.65-2.19,3.68,3.68,0,0,1,.56-.81c1.11-1.34,1.35-2.32,1.7-6.87.14-1.81.35-2.49.8-2.58.15,0,.61-.09,1-.13a5.89,5.89,0,0,0,4.18-1.79,6,6,0,0,0,2-3.8,5,5,0,0,1,.13-.67,2.51,2.51,0,0,0-.06-.81C593.87,438.55,593.64,437.36,593.61,437.08Zm-22.05,1.63a2.11,2.11,0,0,1-.56,1.75c-.37.24-.31.24-1.26,0a4.7,4.7,0,0,1-2.32-1.23c-1.28-1.24-1.31-3.1-.08-4.77.7-1,1-1.11,4.55-2.17a10.64,10.64,0,0,1,3.19-.46l1.91-.08,0,.28c0,.21-.2.34-.67.5a5.71,5.71,0,0,0-3.21,2.75c-.36.6-.79,1.26-.94,1.47A3.45,3.45,0,0,0,571.56,438.71Zm-47.9-13a6.09,6.09,0,0,1,1.85,2.3,2.91,2.91,0,0,1-.2,2.3,7.24,7.24,0,0,1-2.42,2.41c-1.2.57-1.51.36-1.63-1.08a9.2,9.2,0,0,0-.26-1.54,1.79,1.79,0,0,1-.12-.57,25.94,25.94,0,0,0-1.08-3,9.2,9.2,0,0,0-.74-1.09,2.86,2.86,0,0,1-.51-.84C518.55,423.92,522.19,424.73,523.66,425.66Zm-14,2.34c-.29.64-.56,1.22-.61,1.29a4.66,4.66,0,0,0-.3.77,1.8,1.8,0,0,1-.52.85c-.34.23-.33.23-1,0a2.25,2.25,0,0,1-1.37-1.31c-.46-1.37.75-3.75,2.33-4.59a11,11,0,0,1,4.08-1.09c.43,0,.51,0,.51.25a.44.44,0,0,1-.31.38C511.35,425,510.45,426.07,509.61,428Zm72.63,18.81a21.64,21.64,0,0,0-.24,2.58c-.13,2.42-.28,3-1,4a17.47,17.47,0,0,1-2.81,2.92c-.91.66-2.51,1.09-5,1.33-.59.06-1.44.17-1.89.24-.92.15-8.88.15-11.62,0-1-.05-2.32-.15-3-.23s-1.95-.2-2.8-.26-1.78-.18-2.08-.25a16.88,16.88,0,0,0-2-.26l-2.72-.24a8.39,8.39,0,0,1-1.51-.23,29.77,29.77,0,0,0-4.5-1,26.43,26.43,0,0,1-4-.77,55.5,55.5,0,0,1-7-2.3,7.6,7.6,0,0,0-.82-.38,12.13,12.13,0,0,1-1.26-.56,2.3,2.3,0,0,0-1.36-.41c-.68.1-3.43-.83-5.91-2a15.72,15.72,0,0,0-1.7-.73,4,4,0,0,1-2-1,3.67,3.67,0,0,0-.77-.61,12.43,12.43,0,0,1-2.43-2.51,6,6,0,0,1-.54-1.71,5.16,5.16,0,0,0-.38-1.21,6.66,6.66,0,0,1-.44-1.55c-.07-.48-.18-1.29-.26-1.8a32,32,0,0,1-.09-3.71c.05-2.61.07-2.83.38-3.7a3.35,3.35,0,0,1,1.86-2.25c.81-.4.81-.41,1.44-.22a2,2,0,0,1,1.31,1.06,15.8,15.8,0,0,1-.14,4.31,10.38,10.38,0,0,0,.34,3.52,7.14,7.14,0,0,0,1.67,2.8c.37.34,1,1.06,1.48,1.59a8.91,8.91,0,0,0,1.52,1.43c.4.26.84.57,1,.69a32.12,32.12,0,0,0,2.82,1.54c1.42.73,2.83,1.47,3.14,1.64a6.85,6.85,0,0,0,2.39,1,7.22,7.22,0,0,1,1.07.32,15.36,15.36,0,0,0,3.78,1,8.13,8.13,0,0,1,1.62.32l1.57.42,1.07.26c2,.49,2.75.66,4.52,1.06l2.45.56a28.6,28.6,0,0,0,4.15.82,15.63,15.63,0,0,1,2,.38c.65.16,1.95.4,2.89.52a19.35,19.35,0,0,1,2,.32,20.89,20.89,0,0,0,3,.61c.48.06,1.2.18,1.6.27a1.76,1.76,0,0,0,1.29-.05,1,1,0,0,1,1.13.05,1.69,1.69,0,0,0,1,.17,13.6,13.6,0,0,0,2.29-.75,14.32,14.32,0,0,1,1.61-.58,2.56,2.56,0,0,0,1.69-1.08,12.39,12.39,0,0,1,1.37-1.3,1.76,1.76,0,0,0,.8-1,7.31,7.31,0,0,1,.34-1,6.71,6.71,0,0,0,.12-2.49,10.69,10.69,0,0,1,.17-3.09,9.29,9.29,0,0,0,.24-1.46,8.22,8.22,0,0,1,.73-2.59c.7-1.37,1.89-2.44,2.72-2.44a4.56,4.56,0,0,1,2.39,1.19,6.76,6.76,0,0,1,1.14,3.9,13.63,13.63,0,0,0,.17,1.89A9.26,9.26,0,0,1,582.24,446.81Zm8.1-6.38a6.09,6.09,0,0,1-2.15,2.06,7.4,7.4,0,0,0-.86.32c-.62.28-.83.29-1.09,0s-.18-.39-.13-1.12a7.19,7.19,0,0,0-.67-3.4l-.32-.8a6.33,6.33,0,0,0-1-1.32,5.63,5.63,0,0,1-.79-1,6.79,6.79,0,0,0-2.49-2.08c-.33,0-1.28-.76-1.28-1s.06-.25.6-.19a26.65,26.65,0,0,1,4.86,1.24c2.66,1.1,3.86,1.74,4.53,2.43a3.9,3.9,0,0,1,1.07,3.17A2.72,2.72,0,0,1,590.34,440.43Z" transform="translate(-449.08 -195.05)"/><path class="cls-2" d="M602,223.09c1,.54,1.33.58,1.91.23a2.18,2.18,0,0,0,.91-1.25,2.86,2.86,0,0,0-1.08-1.4,3.69,3.69,0,0,0-2.1-.32c-.47.12-1.09.69-1.09,1C600.59,222,601.12,222.6,602,223.09Z" transform="translate(-449.08 -195.05)"/><path class="cls-1" d="M567.2,276.87a10,10,0,0,1-.65-1.16,1.65,1.65,0,0,0-.89-1c-1-.49-1.79-.33-2.2.46a11.75,11.75,0,0,0-.69,3.51,3.45,3.45,0,0,0,1,2.52,4.29,4.29,0,0,0,.92.76,1.31,1.31,0,0,0,1.46,0,3.08,3.08,0,0,0,1.64-2.17,2.4,2.4,0,0,0,0-1.69A5.28,5.28,0,0,0,567.2,276.87Z" transform="translate(-449.08 -195.05)"/><path class="cls-2" d="M621.56,243a80.94,80.94,0,0,0-.1-11.81,44,44,0,0,0-2.31-6.18,6.32,6.32,0,0,1-.43-1,13.06,13.06,0,0,0-1.87-3c-.33-.37-.81-.95-1.07-1.29a8.51,8.51,0,0,0-2.27-2,11.57,11.57,0,0,1-1.13-.86,8.28,8.28,0,0,0-2.37-1.25,6.5,6.5,0,0,1-.92-.18,9.19,9.19,0,0,0-1.94-.19,3.75,3.75,0,0,1-2.06-.38c-1-.44-1.23-.45-3.59-.13a22.85,22.85,0,0,0-6.71,1.88,14.46,14.46,0,0,0-4.14,3.07,20.09,20.09,0,0,0-4,4.74l-.86,1.29c-.14.2-.34.51-.45.68a6,6,0,0,0-.49,1.21,9,9,0,0,1-.37,1,8.84,8.84,0,0,0-.37,1c-.15.49-.44,1.31-.64,1.82a17.07,17.07,0,0,0-.81,4.46c0,.63-.13,1.47-.19,1.89s-.21,1.68-.31,2.82-.26,2.54-.33,3.11a5.42,5.42,0,0,0,.08,2.05c.07.34.11.56.13.72,12.08,4.07,24.83,2.34,37.64,3.49A46,46,0,0,0,621.56,243Zm-31.94-14.81a11.62,11.62,0,0,0-.93,2.72,10.57,10.57,0,0,1-.42,1.5,14.32,14.32,0,0,0-.44,1.53c-.2,1-.43,8-.35,10.61.07,2.1.06,2.25-.17,2.48s-.52.31-.87-.07-.3-.42-.35-2.54a37.3,37.3,0,0,1,.42-6.82,12.83,12.83,0,0,0,.18-1.58,4.66,4.66,0,0,1,.17-1.07c.1-.3.28-1,.4-1.55a15.4,15.4,0,0,1,.56-1.89c.19-.48.44-1.22.56-1.64a4.26,4.26,0,0,1,.59-1.21,1.77,1.77,0,0,0,.36-.7c0-.4,1-1.82,1.19-1.65A8.64,8.64,0,0,1,589.62,228.17Zm28,13.68c-.07.38-.18,1-.24,1.32a26.17,26.17,0,0,1-2,6.11c-.27.3-2.41-.49-3.19-.27a2.26,2.26,0,0,1-1.25,0l-1.61-.33a1.78,1.78,0,0,1-.9-.35,6.66,6.66,0,0,1,0-1.6c.08-1.57,0-2.17-.56-2.57s-1-.32-1.52.23a12,12,0,0,0-2,2.81l-.15.46-1,0a42.26,42.26,0,0,1-5.3-.28c-1-.09-2.34-.15-3-.14l-1.17,0-1-1.07c-.77-.8-1.06-1.2-1.13-1.54a27.91,27.91,0,0,1-.11-5.36c.16-1.22.15-1.2,1.27-2.06.8-.61.8-1.62,0-2.62a1.53,1.53,0,0,1-.45-1.23,13.61,13.61,0,0,1,.84-3.22c.29-.68.44-.74,1.66-.71,1.06,0,1.1,0,1.39-.32a1.22,1.22,0,0,0,.31-.64,3.56,3.56,0,0,0-.77-1.72,1.82,1.82,0,0,1-.36-.6A7.69,7.69,0,0,1,596,225c.7-1.18,1-1.34,1.52-.84.82.78,2.21,1.07,2.83.58s.31-1.67-.72-2.59a2.69,2.69,0,0,1-.58-.64c0-.7,3.23-2.31,5.59-2.79,1.26-.25,1.79-.28,2.08-.13a4.08,4.08,0,0,0,1.12.25,11.11,11.11,0,0,1,2,.51,4.74,4.74,0,0,1,2.4,1.68c1.4,1.39,2.6,3.06,2.54,3.5,0,.26-.09.28-.95.24l-.9,0-.58.54c-.73.66-.69.9.3,1.9s2.06,1.25,3,.44c.4-.35.47-.37.64-.2a9.07,9.07,0,0,1,.75,2.34,7.55,7.55,0,0,0,.22.75,8.22,8.22,0,0,1,.47,2.16c-.08.4-.29.52-.51.32a3.3,3.3,0,0,0-2-.39c-.51.1-1.19.67-1.19,1A2.47,2.47,0,0,0,615,235.2c1,.61,1.32.68,2,.37s.6-.26.83,0a1,1,0,0,1,.24.78C618.1,237.13,617.74,241,617.59,241.85Z" transform="translate(-449.08 -195.05)"/><path class="cls-2" d="M597.16,242.67a5.77,5.77,0,0,0,1.69-1.32,11.23,11.23,0,0,1,1.57-1.32c.23,0,.2.38-.07,1a6.58,6.58,0,0,0-.46,2.81,2.34,2.34,0,0,0,2,1.83c.67.16.9.12,1.23-.2a1.61,1.61,0,0,0,.41-1.31,2.64,2.64,0,0,1-.14-.6,4.59,4.59,0,0,1,1-2.6,7.08,7.08,0,0,0,.45-.76s.42-.7.93-1.48c1.88-2.87,2.06-3.41,1.39-4.13a2.77,2.77,0,0,0-2.08-.86c-.65,0-.78.05-1.76.72-1.8,1.22-1.79,1.22-2.07,1.11s-.09-.22.38-.86c.32-.43.77-1.07,1-1.41a17.42,17.42,0,0,1,1.38-1.64c1.05-1.11,1.2-1.42.9-1.88-.78-1.19-2.38-1.69-3.2-1a23.73,23.73,0,0,0-2.52,3.43c-.49.83-1.58,2.46-2.33,3.47-1.57,2.11-2.48,3.93-2.5,5,0,.62,0,.76.34,1.08A5.12,5.12,0,0,0,597.16,242.67Z" transform="translate(-449.08 -195.05)"/></svg>