<svg id="Layer_2" data-name="Layer 2" xmlns="http://www.w3.org/2000/svg" viewBox="0 0 294.3 68.99"><defs><style>.cls-1{fill:#e67e22;}.cls-2{fill:#2ecc71;}</style></defs><path class="cls-1" d="M292.43,261.12a.56.56,0,0,1,.09.72c-3.6,5.48-11.27,17.2-8.77,39.55a4.22,4.22,0,0,0,.91,2.19,7.55,7.55,0,0,0,1.13,1.14,2.4,2.4,0,0,0,1.48.5h3.32a6.9,6.9,0,0,0,4.43-1.61l.05,0a2.64,2.64,0,0,0,.82-2c-.61-5.95-4.21-26.7,2.77-35.58a.86.86,0,0,1,1-.27Z" transform="translate(-265.25 -236.23)"/><path class="cls-2" d="M299.61,265.7c2.85,1.05,9.48,5,6.5,19.69a.35.35,0,0,0,.46.41c3.78-1.36,13.32-8.25,5.78-21.87a.16.16,0,0,1,.23-.21c3.37,2.51,9.86,8.47,11,17.36a.48.48,0,0,0,.86.22c3.08-3.92,7.17-12.5-2.23-24.18a.22.22,0,0,1,.19-.37c1.94.25,3.75.53,4.56.65a.22.22,0,0,0,.22-.33c-1-1.71-5.65-8.33-16.63-8.33-1.06-2.21,14.18-1.7,10.59-3.89,0,0-10.44-8.88-21.34.47a.43.43,0,0,1-.64-.08c-7.25-10.61-25.05-10-21.71-7.36l5.21,4.59s-14.71-.85-17.42,8.38a.33.33,0,0,0,.39.41c2.9-.65,9-1.95,12.6-.52a.3.3,0,0,1,.08.51c-3,2.53-10.09,9.33-7,14.61a.46.46,0,0,0,.69.1c3.91-3.37,13.22-11.25,20.34-4.84Z" transform="translate(-265.25 -236.23)"/><path class="cls-1" d="M348.09,302.51a2.47,2.47,0,0,1-2.47,2.55,2.53,2.53,0,0,1-2-1l-7.16-9.15h-4v7.57a2.73,2.73,0,1,1-5.46,0V279.6a2.89,2.89,0,0,1,3-3h7.4c6.31,0,10.36,4.09,10.36,9.19a8.7,8.7,0,0,1-5.87,8.33l5.59,6.72A2.65,2.65,0,0,1,348.09,302.51Zm-15.67-12.26h4.7c3,0,5.3-1.1,5.3-4.45s-2.27-4.54-5.3-4.54h-4.7Z" transform="translate(-265.25 -236.23)"/><path class="cls-1" d="M372.13,294.46c0,7.24-6.2,10.76-10.81,10.76a10.79,10.79,0,1,1,0-21.57C365.93,283.65,372.13,287.25,372.13,294.46Zm-16.35,0c0,3.88,2.67,6.15,5.54,6.15s5.55-2.27,5.55-6.15-2.72-6.2-5.55-6.2S355.78,290.53,355.78,294.46Z" transform="translate(-265.25 -236.23)"/><path class="cls-1" d="M396.65,294.46c0,7.24-6.19,10.76-10.8,10.76S375,301.7,375,294.46a10.81,10.81,0,1,1,21.61,0Zm-16.35,0c0,3.88,2.67,6.15,5.55,6.15s5.54-2.27,5.54-6.15-2.71-6.2-5.54-6.2S380.3,290.53,380.3,294.46Z" transform="translate(-265.25 -236.23)"/><path class="cls-1" d="M435.22,293.36v9.15a2.65,2.65,0,0,1-5.3,0v-9.15c0-3.64-1.9-5.14-4.29-5.14-3.64,0-4.9,3.4-5,4.54v9.75a2.65,2.65,0,0,1-5.3,0v-9.15c0-3.64-1.9-5.14-4.29-5.14-3.64,0-4.86,3.4-5,4.54v9.75a2.65,2.65,0,0,1-5.3,0V286.44a2.65,2.65,0,1,1,5.3,0v2c.16-1.46,2.55-4.78,6.92-4.78a7,7,0,0,1,7,5.06,8.31,8.31,0,0,1,7.61-5.06C431.62,283.69,435.22,286.36,435.22,293.36Z" transform="translate(-265.25 -236.23)"/><path class="cls-1" d="M454,286.6a3.11,3.11,0,0,1,.65,1.79,1.89,1.89,0,0,1-2.07,2,2.78,2.78,0,0,1-2.22-1.13,3.64,3.64,0,0,0-2.92-1.38c-1.57,0-2.5.77-2.5,1.9,0,.65.24,1.5,2.1,2l2.47.73c3.24.89,5.95,2.43,5.95,6,0,4.45-4.13,6.6-8.34,6.6a8.67,8.67,0,0,1-7-2.91,4.47,4.47,0,0,1-1.09-2.55,1.94,1.94,0,0,1,2-2,2.75,2.75,0,0,1,2.19,1.3,4.6,4.6,0,0,0,3.84,1.86c2,0,3.08-.85,3.08-2,0-.69-.45-1.58-2.39-2.15L445.5,296c-4.08-1.13-5.78-3.32-5.78-6.19,0-4.05,3.72-6.15,7.56-6.15A8.3,8.3,0,0,1,454,286.6Z" transform="translate(-265.25 -236.23)"/><path class="cls-1" d="M487.11,290.77A14.11,14.11,0,1,1,473,276.33,14.37,14.37,0,0,1,487.11,290.77Zm-22.51,0c0,5.55,3.93,9.27,8.38,9.27s8.42-3.72,8.42-9.27-3.89-9.26-8.42-9.26S464.6,285.23,464.6,290.77Z" transform="translate(-265.25 -236.23)"/><path class="cls-1" d="M511.47,293.36v9.15a2.65,2.65,0,0,1-5.3,0v-9.15c0-3.64-1.9-5.14-4.29-5.14-3.64,0-4.86,3.4-5,4.54v9.75a2.65,2.65,0,0,1-5.3,0V286.44a2.65,2.65,0,1,1,5.3,0v2c.16-1.46,2.55-4.78,6.92-4.78C507.87,283.69,511.47,286.36,511.47,293.36Z" transform="translate(-265.25 -236.23)"/><path class="cls-1" d="M539.11,279.12v15.66c0,6.56-5,10.44-11.29,10.44s-11.29-3.88-11.29-10.44V279.12a2.65,2.65,0,0,1,2.67-2.63,2.76,2.76,0,0,1,2.79,2.63V294.7c0,4.25,2.72,5.95,5.83,5.95s5.83-1.7,5.83-5.95V279.12a2.77,2.77,0,0,1,2.83-2.63A2.62,2.62,0,0,1,539.11,279.12Z" transform="translate(-265.25 -236.23)"/><path class="cls-1" d="M558.09,286.6a3,3,0,0,1,.65,1.79,1.89,1.89,0,0,1-2.06,2,2.78,2.78,0,0,1-2.23-1.13,3.63,3.63,0,0,0-2.91-1.38c-1.58,0-2.51.77-2.51,1.9,0,.65.24,1.5,2.1,2l2.47.73c3.24.89,5.95,2.43,5.95,6,0,4.45-4.13,6.6-8.34,6.6a8.69,8.69,0,0,1-7-2.91,4.47,4.47,0,0,1-1.09-2.55,2,2,0,0,1,2-2,2.73,2.73,0,0,1,2.19,1.3,4.6,4.6,0,0,0,3.84,1.86c2,0,3.08-.85,3.08-2,0-.69-.45-1.58-2.39-2.15l-2.31-.69c-4.08-1.13-5.78-3.32-5.78-6.19,0-4.05,3.72-6.15,7.57-6.15A8.28,8.28,0,0,1,558.09,286.6Z" transform="translate(-265.25 -236.23)"/></svg>